G04 EAGLE Gerber RS-274X export*
G75*
%MOMM*%
%FSLAX34Y34*%
%LPD*%
%INTop Solder Mask*%
%IPPOS*%
%AMOC8*
5,1,8,0,0,1.08239X$1,22.5*%
G01*
%ADD10R,0.290800X0.650800*%
%ADD11R,4.300800X4.300800*%
%ADD12R,1.550800X2.050800*%
%ADD13R,1.100800X1.130800*%
%ADD14R,0.975800X0.790800*%
%ADD15P,1.787026X8X202.500000*%
%ADD16P,1.787026X8X22.500000*%
%ADD17R,1.050800X1.150800*%
%ADD18R,1.250800X1.250800*%
%ADD19R,1.050800X1.850800*%
%ADD20R,1.350800X1.150800*%
%ADD21P,1.787026X8X292.500000*%
%ADD22P,1.787026X8X112.500000*%
%ADD23R,1.270000X2.286000*%
%ADD24R,3.650800X2.250800*%
%ADD25R,3.352800X4.368800*%
%ADD26R,1.050800X1.050800*%
%ADD27C,1.574800*%


D10*
G36*
X735721Y539965D02*
X737778Y537908D01*
X733177Y533307D01*
X731120Y535364D01*
X735721Y539965D01*
G37*
G36*
X732185Y543500D02*
X734242Y541443D01*
X729641Y536842D01*
X727584Y538899D01*
X732185Y543500D01*
G37*
G36*
X728650Y547036D02*
X730707Y544979D01*
X726106Y540378D01*
X724049Y542435D01*
X728650Y547036D01*
G37*
G36*
X725114Y550572D02*
X727171Y548515D01*
X722570Y543914D01*
X720513Y545971D01*
X725114Y550572D01*
G37*
G36*
X721579Y554107D02*
X723636Y552050D01*
X719035Y547449D01*
X716978Y549506D01*
X721579Y554107D01*
G37*
G36*
X718043Y557643D02*
X720100Y555586D01*
X715499Y550985D01*
X713442Y553042D01*
X718043Y557643D01*
G37*
G36*
X714508Y561178D02*
X716565Y559121D01*
X711964Y554520D01*
X709907Y556577D01*
X714508Y561178D01*
G37*
G36*
X710972Y564714D02*
X713029Y562657D01*
X708428Y558056D01*
X706371Y560113D01*
X710972Y564714D01*
G37*
G36*
X707437Y568249D02*
X709494Y566192D01*
X704893Y561591D01*
X702836Y563648D01*
X707437Y568249D01*
G37*
G36*
X703901Y571785D02*
X705958Y569728D01*
X701357Y565127D01*
X699300Y567184D01*
X703901Y571785D01*
G37*
G36*
X700366Y575320D02*
X702423Y573263D01*
X697822Y568662D01*
X695765Y570719D01*
X700366Y575320D01*
G37*
G36*
X696830Y578856D02*
X698887Y576799D01*
X694286Y572198D01*
X692229Y574255D01*
X696830Y578856D01*
G37*
G36*
X693295Y582391D02*
X695352Y580334D01*
X690751Y575733D01*
X688694Y577790D01*
X693295Y582391D01*
G37*
G36*
X689759Y585927D02*
X691816Y583870D01*
X687215Y579269D01*
X685158Y581326D01*
X689759Y585927D01*
G37*
G36*
X686223Y589462D02*
X688280Y587405D01*
X683679Y582804D01*
X681622Y584861D01*
X686223Y589462D01*
G37*
G36*
X682688Y592998D02*
X684745Y590941D01*
X680144Y586340D01*
X678087Y588397D01*
X682688Y592998D01*
G37*
G36*
X675559Y588404D02*
X673502Y586347D01*
X668901Y590948D01*
X670958Y593005D01*
X675559Y588404D01*
G37*
G36*
X672023Y584867D02*
X669966Y582810D01*
X665365Y587411D01*
X667422Y589468D01*
X672023Y584867D01*
G37*
G36*
X668486Y581331D02*
X666429Y579274D01*
X661828Y583875D01*
X663885Y585932D01*
X668486Y581331D01*
G37*
G36*
X664950Y577794D02*
X662893Y575737D01*
X658292Y580338D01*
X660349Y582395D01*
X664950Y577794D01*
G37*
G36*
X661414Y574258D02*
X659357Y572201D01*
X654756Y576802D01*
X656813Y578859D01*
X661414Y574258D01*
G37*
G36*
X657877Y570721D02*
X655820Y568664D01*
X651219Y573265D01*
X653276Y575322D01*
X657877Y570721D01*
G37*
G36*
X654341Y567185D02*
X652284Y565128D01*
X647683Y569729D01*
X649740Y571786D01*
X654341Y567185D01*
G37*
G36*
X650804Y563649D02*
X648747Y561592D01*
X644146Y566193D01*
X646203Y568250D01*
X650804Y563649D01*
G37*
G36*
X647268Y560112D02*
X645211Y558055D01*
X640610Y562656D01*
X642667Y564713D01*
X647268Y560112D01*
G37*
G36*
X643731Y556576D02*
X641674Y554519D01*
X637073Y559120D01*
X639130Y561177D01*
X643731Y556576D01*
G37*
G36*
X640195Y553039D02*
X638138Y550982D01*
X633537Y555583D01*
X635594Y557640D01*
X640195Y553039D01*
G37*
G36*
X636659Y549503D02*
X634602Y547446D01*
X630001Y552047D01*
X632058Y554104D01*
X636659Y549503D01*
G37*
G36*
X633122Y545967D02*
X631065Y543910D01*
X626464Y548511D01*
X628521Y550568D01*
X633122Y545967D01*
G37*
G36*
X629586Y542430D02*
X627529Y540373D01*
X622928Y544974D01*
X624985Y547031D01*
X629586Y542430D01*
G37*
G36*
X626049Y538894D02*
X623992Y536837D01*
X619391Y541438D01*
X621448Y543495D01*
X626049Y538894D01*
G37*
G36*
X622513Y535357D02*
X620456Y533300D01*
X615855Y537901D01*
X617912Y539958D01*
X622513Y535357D01*
G37*
G36*
X620463Y530773D02*
X622520Y528716D01*
X617919Y524115D01*
X615862Y526172D01*
X620463Y530773D01*
G37*
G36*
X623998Y527237D02*
X626055Y525180D01*
X621454Y520579D01*
X619397Y522636D01*
X623998Y527237D01*
G37*
G36*
X627534Y523701D02*
X629591Y521644D01*
X624990Y517043D01*
X622933Y519100D01*
X627534Y523701D01*
G37*
G36*
X631069Y520166D02*
X633126Y518109D01*
X628525Y513508D01*
X626468Y515565D01*
X631069Y520166D01*
G37*
G36*
X634605Y516630D02*
X636662Y514573D01*
X632061Y509972D01*
X630004Y512029D01*
X634605Y516630D01*
G37*
G36*
X638140Y513095D02*
X640197Y511038D01*
X635596Y506437D01*
X633539Y508494D01*
X638140Y513095D01*
G37*
G36*
X641676Y509559D02*
X643733Y507502D01*
X639132Y502901D01*
X637075Y504958D01*
X641676Y509559D01*
G37*
G36*
X645211Y506024D02*
X647268Y503967D01*
X642667Y499366D01*
X640610Y501423D01*
X645211Y506024D01*
G37*
G36*
X648747Y502488D02*
X650804Y500431D01*
X646203Y495830D01*
X644146Y497887D01*
X648747Y502488D01*
G37*
G36*
X652282Y498953D02*
X654339Y496896D01*
X649738Y492295D01*
X647681Y494352D01*
X652282Y498953D01*
G37*
G36*
X655818Y495417D02*
X657875Y493360D01*
X653274Y488759D01*
X651217Y490816D01*
X655818Y495417D01*
G37*
G36*
X659353Y491882D02*
X661410Y489825D01*
X656809Y485224D01*
X654752Y487281D01*
X659353Y491882D01*
G37*
G36*
X662889Y488346D02*
X664946Y486289D01*
X660345Y481688D01*
X658288Y483745D01*
X662889Y488346D01*
G37*
G36*
X666424Y484811D02*
X668481Y482754D01*
X663880Y478153D01*
X661823Y480210D01*
X666424Y484811D01*
G37*
G36*
X669960Y481275D02*
X672017Y479218D01*
X667416Y474617D01*
X665359Y476674D01*
X669960Y481275D01*
G37*
G36*
X673496Y477740D02*
X675553Y475683D01*
X670952Y471082D01*
X668895Y473139D01*
X673496Y477740D01*
G37*
G36*
X684738Y473132D02*
X682681Y471075D01*
X678080Y475676D01*
X680137Y477733D01*
X684738Y473132D01*
G37*
G36*
X688275Y476668D02*
X686218Y474611D01*
X681617Y479212D01*
X683674Y481269D01*
X688275Y476668D01*
G37*
G36*
X691811Y480205D02*
X689754Y478148D01*
X685153Y482749D01*
X687210Y484806D01*
X691811Y480205D01*
G37*
G36*
X695348Y483741D02*
X693291Y481684D01*
X688690Y486285D01*
X690747Y488342D01*
X695348Y483741D01*
G37*
G36*
X698884Y487278D02*
X696827Y485221D01*
X692226Y489822D01*
X694283Y491879D01*
X698884Y487278D01*
G37*
G36*
X702420Y490814D02*
X700363Y488757D01*
X695762Y493358D01*
X697819Y495415D01*
X702420Y490814D01*
G37*
G36*
X705957Y494350D02*
X703900Y492293D01*
X699299Y496894D01*
X701356Y498951D01*
X705957Y494350D01*
G37*
G36*
X709493Y497887D02*
X707436Y495830D01*
X702835Y500431D01*
X704892Y502488D01*
X709493Y497887D01*
G37*
G36*
X713030Y501423D02*
X710973Y499366D01*
X706372Y503967D01*
X708429Y506024D01*
X713030Y501423D01*
G37*
G36*
X716566Y504960D02*
X714509Y502903D01*
X709908Y507504D01*
X711965Y509561D01*
X716566Y504960D01*
G37*
G36*
X720103Y508496D02*
X718046Y506439D01*
X713445Y511040D01*
X715502Y513097D01*
X720103Y508496D01*
G37*
G36*
X723639Y512033D02*
X721582Y509976D01*
X716981Y514577D01*
X719038Y516634D01*
X723639Y512033D01*
G37*
G36*
X727175Y515569D02*
X725118Y513512D01*
X720517Y518113D01*
X722574Y520170D01*
X727175Y515569D01*
G37*
G36*
X730712Y519105D02*
X728655Y517048D01*
X724054Y521649D01*
X726111Y523706D01*
X730712Y519105D01*
G37*
G36*
X734248Y522642D02*
X732191Y520585D01*
X727590Y525186D01*
X729647Y527243D01*
X734248Y522642D01*
G37*
G36*
X737785Y526178D02*
X735728Y524121D01*
X731127Y528722D01*
X733184Y530779D01*
X737785Y526178D01*
G37*
D11*
G36*
X646409Y532040D02*
X676820Y562451D01*
X707231Y532040D01*
X676820Y501629D01*
X646409Y532040D01*
G37*
D12*
G36*
X585630Y525708D02*
X596596Y536674D01*
X611096Y522174D01*
X600130Y511208D01*
X585630Y525708D01*
G37*
G36*
X564416Y504494D02*
X575382Y515460D01*
X589882Y500960D01*
X578916Y489994D01*
X564416Y504494D01*
G37*
D13*
G36*
X654888Y462223D02*
X662671Y470006D01*
X670666Y462011D01*
X662883Y454228D01*
X654888Y462223D01*
G37*
G36*
X642514Y449849D02*
X650297Y457632D01*
X658292Y449637D01*
X650509Y441854D01*
X642514Y449849D01*
G37*
G36*
X743382Y592639D02*
X735599Y584856D01*
X727604Y592851D01*
X735387Y600634D01*
X743382Y592639D01*
G37*
G36*
X755756Y605013D02*
X747973Y597230D01*
X739978Y605225D01*
X747761Y613008D01*
X755756Y605013D01*
G37*
D14*
G36*
X602010Y602521D02*
X608909Y609420D01*
X614500Y603829D01*
X607601Y596930D01*
X602010Y602521D01*
G37*
G36*
X593524Y594035D02*
X600423Y600934D01*
X606014Y595343D01*
X599115Y588444D01*
X593524Y594035D01*
G37*
G36*
X582900Y572229D02*
X576001Y565330D01*
X570410Y570921D01*
X577309Y577820D01*
X582900Y572229D01*
G37*
G36*
X591386Y580715D02*
X584487Y573816D01*
X578896Y579407D01*
X585795Y586306D01*
X591386Y580715D01*
G37*
D15*
X647700Y393900D03*
D16*
X520854Y673239D03*
D13*
G36*
X756723Y443070D02*
X748940Y450853D01*
X756935Y458848D01*
X764718Y451065D01*
X756723Y443070D01*
G37*
G36*
X769097Y430696D02*
X761314Y438479D01*
X769309Y446474D01*
X777092Y438691D01*
X769097Y430696D01*
G37*
D17*
G36*
X768219Y454783D02*
X760789Y462213D01*
X768925Y470349D01*
X776355Y462919D01*
X768219Y454783D01*
G37*
G36*
X780239Y442763D02*
X772809Y450193D01*
X780945Y458329D01*
X788375Y450899D01*
X780239Y442763D01*
G37*
D18*
X547202Y623316D03*
X526202Y623316D03*
D17*
X488832Y624332D03*
X505832Y624332D03*
D19*
G36*
X603101Y586977D02*
X610531Y594407D01*
X623617Y581321D01*
X616187Y573891D01*
X603101Y586977D01*
G37*
G36*
X585423Y569299D02*
X592853Y576729D01*
X605939Y563643D01*
X598509Y556213D01*
X585423Y569299D01*
G37*
D20*
G36*
X724226Y467941D02*
X714675Y458390D01*
X706538Y466527D01*
X716089Y476078D01*
X724226Y467941D01*
G37*
G36*
X753218Y471477D02*
X743667Y461926D01*
X735530Y470063D01*
X745081Y479614D01*
X753218Y471477D01*
G37*
G36*
X740490Y484205D02*
X730939Y474654D01*
X722802Y482791D01*
X732353Y492342D01*
X740490Y484205D01*
G37*
G36*
X736954Y455213D02*
X727403Y445662D01*
X719266Y453799D01*
X728817Y463350D01*
X736954Y455213D01*
G37*
D14*
G36*
X718599Y450312D02*
X725498Y443413D01*
X719907Y437822D01*
X713008Y444721D01*
X718599Y450312D01*
G37*
G36*
X710113Y458798D02*
X717012Y451899D01*
X711421Y446308D01*
X704522Y453207D01*
X710113Y458798D01*
G37*
G36*
X743307Y483020D02*
X736408Y489919D01*
X741999Y495510D01*
X748898Y488611D01*
X743307Y483020D01*
G37*
G36*
X751793Y474534D02*
X744894Y481433D01*
X750485Y487024D01*
X757384Y480125D01*
X751793Y474534D01*
G37*
D21*
X723900Y673100D03*
X698500Y673100D03*
X673100Y673100D03*
X647700Y673100D03*
X622300Y673100D03*
X596900Y673100D03*
X571500Y673100D03*
X546100Y673100D03*
D22*
X673100Y393700D03*
X698500Y393700D03*
X723900Y393700D03*
X749300Y393700D03*
X774700Y393700D03*
X800100Y393700D03*
X825500Y393700D03*
X520700Y393700D03*
X546100Y393700D03*
X571500Y393700D03*
X596900Y393700D03*
X622300Y393700D03*
D21*
X876300Y673100D03*
X850900Y673100D03*
X825500Y673100D03*
X800100Y673100D03*
X1079500Y673100D03*
X1054100Y673100D03*
X1028700Y673100D03*
X1003300Y673100D03*
X977900Y673100D03*
X952500Y673100D03*
X927100Y673100D03*
X901700Y673100D03*
D15*
X850900Y393700D03*
X876300Y393700D03*
X774700Y673100D03*
X749300Y673100D03*
D23*
X484886Y515112D03*
X508000Y515112D03*
X531114Y515112D03*
D24*
X508000Y577090D03*
D12*
X548400Y486410D03*
X518400Y486410D03*
X498362Y486410D03*
X468362Y486410D03*
D15*
X1003300Y393700D03*
X1079500Y393700D03*
X1104900Y393700D03*
X1054100Y393700D03*
X1028700Y393700D03*
X901700Y393700D03*
X927100Y393700D03*
X952500Y393700D03*
X977900Y393700D03*
D17*
G36*
X575651Y547511D02*
X568221Y554941D01*
X576357Y563077D01*
X583787Y555647D01*
X575651Y547511D01*
G37*
G36*
X587671Y535491D02*
X580241Y542921D01*
X588377Y551057D01*
X595807Y543627D01*
X587671Y535491D01*
G37*
D16*
X495300Y673100D03*
X495300Y393700D03*
X469900Y393700D03*
X469900Y673100D03*
X1104900Y673100D03*
D13*
G36*
X732442Y602799D02*
X724659Y595016D01*
X716664Y603011D01*
X724447Y610794D01*
X732442Y602799D01*
G37*
G36*
X744816Y615173D02*
X737033Y607390D01*
X729038Y615385D01*
X736821Y623168D01*
X744816Y615173D01*
G37*
D25*
X1104900Y534670D03*
X812800Y534670D03*
D13*
G36*
X756215Y486994D02*
X748432Y494777D01*
X756427Y502772D01*
X764210Y494989D01*
X756215Y486994D01*
G37*
G36*
X768589Y474620D02*
X760806Y482403D01*
X768801Y490398D01*
X776584Y482615D01*
X768589Y474620D01*
G37*
G36*
X753660Y582361D02*
X745877Y574578D01*
X737882Y582573D01*
X745665Y590356D01*
X753660Y582361D01*
G37*
G36*
X766034Y594735D02*
X758251Y586952D01*
X750256Y594947D01*
X758039Y602730D01*
X766034Y594735D01*
G37*
D26*
G36*
X712275Y583841D02*
X704845Y591271D01*
X712275Y598701D01*
X719705Y591271D01*
X712275Y583841D01*
G37*
G36*
X726417Y569699D02*
X718987Y577129D01*
X726417Y584559D01*
X733847Y577129D01*
X726417Y569699D01*
G37*
D27*
X574040Y456184D02*
X574040Y440944D01*
X548640Y440944D02*
X548640Y456184D01*
M02*
