G04 EAGLE Gerber RS-274X export*
G75*
%MOMM*%
%FSLAX34Y34*%
%LPD*%
%INBottom Copper*%
%IPPOS*%
%AMOC8*
5,1,8,0,0,1.08239X$1,22.5*%
G01*
%ADD10P,1.732040X8X202.500000*%
%ADD11P,1.732040X8X22.500000*%
%ADD12P,1.732040X8X292.500000*%
%ADD13P,1.732040X8X112.500000*%
%ADD14C,1.524000*%
%ADD15C,0.604800*%
%ADD16C,0.152400*%

G36*
X464821Y383552D02*
X464821Y383552D01*
X464892Y383554D01*
X464941Y383572D01*
X464993Y383580D01*
X465056Y383614D01*
X465123Y383639D01*
X465164Y383671D01*
X465210Y383696D01*
X465260Y383748D01*
X465316Y383792D01*
X465344Y383836D01*
X465380Y383874D01*
X465410Y383939D01*
X465449Y383999D01*
X465461Y384050D01*
X465483Y384097D01*
X465491Y384168D01*
X465509Y384238D01*
X465505Y384290D01*
X465510Y384341D01*
X465495Y384412D01*
X465489Y384483D01*
X465469Y384531D01*
X465458Y384582D01*
X465421Y384643D01*
X465393Y384709D01*
X465348Y384765D01*
X465332Y384793D01*
X465314Y384808D01*
X465288Y384840D01*
X460374Y389754D01*
X460374Y397646D01*
X465954Y403226D01*
X473846Y403226D01*
X479426Y397646D01*
X479426Y389754D01*
X474512Y384840D01*
X474470Y384782D01*
X474420Y384730D01*
X474399Y384683D01*
X474368Y384641D01*
X474347Y384572D01*
X474317Y384507D01*
X474311Y384455D01*
X474296Y384405D01*
X474298Y384334D01*
X474290Y384263D01*
X474301Y384212D01*
X474302Y384160D01*
X474327Y384092D01*
X474342Y384022D01*
X474369Y383977D01*
X474387Y383929D01*
X474431Y383873D01*
X474468Y383811D01*
X474508Y383777D01*
X474540Y383737D01*
X474601Y383698D01*
X474655Y383651D01*
X474703Y383632D01*
X474747Y383604D01*
X474817Y383586D01*
X474883Y383559D01*
X474955Y383551D01*
X474986Y383543D01*
X475009Y383545D01*
X475050Y383541D01*
X515550Y383541D01*
X515621Y383552D01*
X515692Y383554D01*
X515741Y383572D01*
X515793Y383580D01*
X515856Y383614D01*
X515923Y383639D01*
X515964Y383671D01*
X516010Y383696D01*
X516060Y383748D01*
X516116Y383792D01*
X516144Y383836D01*
X516180Y383874D01*
X516210Y383939D01*
X516249Y383999D01*
X516261Y384050D01*
X516283Y384097D01*
X516291Y384168D01*
X516309Y384238D01*
X516305Y384290D01*
X516310Y384341D01*
X516295Y384412D01*
X516289Y384483D01*
X516269Y384531D01*
X516258Y384582D01*
X516221Y384643D01*
X516193Y384709D01*
X516148Y384765D01*
X516132Y384793D01*
X516114Y384808D01*
X516088Y384840D01*
X511174Y389754D01*
X511174Y397646D01*
X516754Y403226D01*
X524646Y403226D01*
X530226Y397646D01*
X530226Y389754D01*
X525312Y384840D01*
X525270Y384782D01*
X525220Y384730D01*
X525199Y384683D01*
X525168Y384641D01*
X525147Y384572D01*
X525117Y384507D01*
X525111Y384455D01*
X525096Y384405D01*
X525098Y384334D01*
X525090Y384263D01*
X525101Y384212D01*
X525102Y384160D01*
X525127Y384092D01*
X525142Y384022D01*
X525169Y383977D01*
X525187Y383929D01*
X525231Y383873D01*
X525268Y383811D01*
X525308Y383777D01*
X525340Y383737D01*
X525401Y383698D01*
X525455Y383651D01*
X525503Y383632D01*
X525547Y383604D01*
X525617Y383586D01*
X525683Y383559D01*
X525755Y383551D01*
X525786Y383543D01*
X525809Y383545D01*
X525850Y383541D01*
X540950Y383541D01*
X541021Y383552D01*
X541092Y383554D01*
X541141Y383572D01*
X541193Y383580D01*
X541256Y383614D01*
X541323Y383639D01*
X541364Y383671D01*
X541410Y383696D01*
X541460Y383748D01*
X541516Y383792D01*
X541544Y383836D01*
X541580Y383874D01*
X541610Y383939D01*
X541649Y383999D01*
X541661Y384050D01*
X541683Y384097D01*
X541691Y384168D01*
X541709Y384238D01*
X541705Y384290D01*
X541710Y384341D01*
X541695Y384412D01*
X541689Y384483D01*
X541669Y384531D01*
X541658Y384582D01*
X541621Y384643D01*
X541593Y384709D01*
X541548Y384765D01*
X541532Y384793D01*
X541514Y384808D01*
X541488Y384840D01*
X536574Y389754D01*
X536574Y397646D01*
X542154Y403226D01*
X550046Y403226D01*
X555626Y397646D01*
X555626Y389754D01*
X550712Y384840D01*
X550670Y384782D01*
X550620Y384730D01*
X550599Y384683D01*
X550568Y384641D01*
X550547Y384572D01*
X550517Y384507D01*
X550511Y384455D01*
X550496Y384405D01*
X550498Y384334D01*
X550490Y384263D01*
X550501Y384212D01*
X550502Y384160D01*
X550527Y384092D01*
X550542Y384022D01*
X550569Y383977D01*
X550587Y383929D01*
X550631Y383873D01*
X550668Y383811D01*
X550708Y383777D01*
X550740Y383737D01*
X550801Y383698D01*
X550855Y383651D01*
X550903Y383632D01*
X550947Y383604D01*
X551017Y383586D01*
X551083Y383559D01*
X551155Y383551D01*
X551186Y383543D01*
X551209Y383545D01*
X551250Y383541D01*
X566350Y383541D01*
X566421Y383552D01*
X566492Y383554D01*
X566541Y383572D01*
X566593Y383580D01*
X566656Y383614D01*
X566723Y383639D01*
X566764Y383671D01*
X566810Y383696D01*
X566860Y383748D01*
X566916Y383792D01*
X566944Y383836D01*
X566980Y383874D01*
X567010Y383939D01*
X567049Y383999D01*
X567061Y384050D01*
X567083Y384097D01*
X567091Y384168D01*
X567109Y384238D01*
X567105Y384290D01*
X567110Y384341D01*
X567095Y384412D01*
X567089Y384483D01*
X567069Y384531D01*
X567058Y384582D01*
X567021Y384643D01*
X566993Y384709D01*
X566948Y384765D01*
X566932Y384793D01*
X566914Y384808D01*
X566888Y384840D01*
X561974Y389754D01*
X561974Y397646D01*
X567554Y403226D01*
X575446Y403226D01*
X581026Y397646D01*
X581026Y389754D01*
X576112Y384840D01*
X576070Y384782D01*
X576020Y384730D01*
X575999Y384683D01*
X575968Y384641D01*
X575947Y384572D01*
X575917Y384507D01*
X575911Y384455D01*
X575896Y384405D01*
X575898Y384334D01*
X575890Y384263D01*
X575901Y384212D01*
X575902Y384160D01*
X575927Y384092D01*
X575942Y384022D01*
X575969Y383977D01*
X575987Y383929D01*
X576031Y383873D01*
X576068Y383811D01*
X576108Y383777D01*
X576140Y383737D01*
X576201Y383698D01*
X576255Y383651D01*
X576303Y383632D01*
X576347Y383604D01*
X576417Y383586D01*
X576483Y383559D01*
X576555Y383551D01*
X576586Y383543D01*
X576609Y383545D01*
X576650Y383541D01*
X591750Y383541D01*
X591821Y383552D01*
X591892Y383554D01*
X591941Y383572D01*
X591993Y383580D01*
X592056Y383614D01*
X592123Y383639D01*
X592164Y383671D01*
X592210Y383696D01*
X592260Y383748D01*
X592316Y383792D01*
X592344Y383836D01*
X592380Y383874D01*
X592410Y383939D01*
X592449Y383999D01*
X592461Y384050D01*
X592483Y384097D01*
X592491Y384168D01*
X592509Y384238D01*
X592505Y384290D01*
X592510Y384341D01*
X592495Y384412D01*
X592489Y384483D01*
X592469Y384531D01*
X592458Y384582D01*
X592421Y384643D01*
X592393Y384709D01*
X592348Y384765D01*
X592332Y384793D01*
X592314Y384808D01*
X592288Y384840D01*
X587374Y389754D01*
X587374Y397646D01*
X592954Y403226D01*
X600846Y403226D01*
X606426Y397646D01*
X606426Y389754D01*
X601512Y384840D01*
X601470Y384782D01*
X601420Y384730D01*
X601399Y384683D01*
X601368Y384641D01*
X601347Y384572D01*
X601317Y384507D01*
X601311Y384455D01*
X601296Y384405D01*
X601298Y384334D01*
X601290Y384263D01*
X601301Y384212D01*
X601302Y384160D01*
X601327Y384092D01*
X601342Y384022D01*
X601369Y383977D01*
X601387Y383929D01*
X601431Y383873D01*
X601468Y383811D01*
X601508Y383777D01*
X601540Y383737D01*
X601601Y383698D01*
X601655Y383651D01*
X601703Y383632D01*
X601747Y383604D01*
X601817Y383586D01*
X601883Y383559D01*
X601955Y383551D01*
X601986Y383543D01*
X602009Y383545D01*
X602050Y383541D01*
X617150Y383541D01*
X617221Y383552D01*
X617292Y383554D01*
X617341Y383572D01*
X617393Y383580D01*
X617456Y383614D01*
X617523Y383639D01*
X617564Y383671D01*
X617610Y383696D01*
X617660Y383748D01*
X617716Y383792D01*
X617744Y383836D01*
X617780Y383874D01*
X617810Y383939D01*
X617849Y383999D01*
X617861Y384050D01*
X617883Y384097D01*
X617891Y384168D01*
X617909Y384238D01*
X617905Y384290D01*
X617910Y384341D01*
X617895Y384412D01*
X617889Y384483D01*
X617869Y384531D01*
X617858Y384582D01*
X617821Y384643D01*
X617793Y384709D01*
X617748Y384765D01*
X617732Y384793D01*
X617714Y384808D01*
X617688Y384840D01*
X612774Y389754D01*
X612774Y397646D01*
X618354Y403226D01*
X626246Y403226D01*
X631826Y397646D01*
X631826Y389754D01*
X626912Y384840D01*
X626870Y384782D01*
X626820Y384730D01*
X626799Y384683D01*
X626768Y384641D01*
X626747Y384572D01*
X626717Y384507D01*
X626711Y384455D01*
X626696Y384405D01*
X626698Y384334D01*
X626690Y384263D01*
X626701Y384212D01*
X626702Y384160D01*
X626727Y384092D01*
X626742Y384022D01*
X626769Y383977D01*
X626787Y383929D01*
X626831Y383873D01*
X626868Y383811D01*
X626908Y383777D01*
X626940Y383737D01*
X627001Y383698D01*
X627055Y383651D01*
X627103Y383632D01*
X627147Y383604D01*
X627217Y383586D01*
X627283Y383559D01*
X627355Y383551D01*
X627386Y383543D01*
X627409Y383545D01*
X627450Y383541D01*
X642750Y383541D01*
X642821Y383552D01*
X642892Y383554D01*
X642941Y383572D01*
X642993Y383580D01*
X643056Y383614D01*
X643123Y383639D01*
X643164Y383671D01*
X643210Y383696D01*
X643260Y383748D01*
X643316Y383792D01*
X643344Y383836D01*
X643380Y383874D01*
X643410Y383939D01*
X643449Y383999D01*
X643461Y384050D01*
X643483Y384097D01*
X643491Y384168D01*
X643509Y384238D01*
X643505Y384290D01*
X643510Y384341D01*
X643495Y384412D01*
X643489Y384483D01*
X643469Y384531D01*
X643458Y384582D01*
X643421Y384643D01*
X643393Y384709D01*
X643348Y384765D01*
X643332Y384793D01*
X643314Y384808D01*
X643288Y384840D01*
X638174Y389954D01*
X638174Y397846D01*
X643754Y403426D01*
X651646Y403426D01*
X657226Y397846D01*
X657226Y389954D01*
X652112Y384840D01*
X652070Y384782D01*
X652020Y384730D01*
X651999Y384683D01*
X651968Y384641D01*
X651947Y384572D01*
X651917Y384507D01*
X651911Y384455D01*
X651896Y384405D01*
X651898Y384334D01*
X651890Y384263D01*
X651901Y384212D01*
X651902Y384160D01*
X651927Y384092D01*
X651942Y384022D01*
X651969Y383977D01*
X651987Y383929D01*
X652031Y383873D01*
X652068Y383811D01*
X652108Y383777D01*
X652140Y383737D01*
X652201Y383698D01*
X652255Y383651D01*
X652303Y383632D01*
X652347Y383604D01*
X652417Y383586D01*
X652483Y383559D01*
X652555Y383551D01*
X652586Y383543D01*
X652609Y383545D01*
X652650Y383541D01*
X667950Y383541D01*
X668021Y383552D01*
X668092Y383554D01*
X668141Y383572D01*
X668193Y383580D01*
X668256Y383614D01*
X668323Y383639D01*
X668364Y383671D01*
X668410Y383696D01*
X668460Y383748D01*
X668516Y383792D01*
X668544Y383836D01*
X668580Y383874D01*
X668610Y383939D01*
X668649Y383999D01*
X668661Y384050D01*
X668683Y384097D01*
X668691Y384168D01*
X668709Y384238D01*
X668705Y384290D01*
X668710Y384341D01*
X668695Y384412D01*
X668689Y384483D01*
X668669Y384531D01*
X668658Y384582D01*
X668621Y384643D01*
X668593Y384709D01*
X668548Y384765D01*
X668532Y384793D01*
X668514Y384808D01*
X668488Y384840D01*
X663574Y389754D01*
X663574Y397646D01*
X669154Y403226D01*
X677046Y403226D01*
X682626Y397646D01*
X682626Y389754D01*
X677712Y384840D01*
X677670Y384782D01*
X677620Y384730D01*
X677599Y384683D01*
X677568Y384641D01*
X677547Y384572D01*
X677517Y384507D01*
X677511Y384455D01*
X677496Y384405D01*
X677498Y384334D01*
X677490Y384263D01*
X677501Y384212D01*
X677502Y384160D01*
X677527Y384092D01*
X677542Y384022D01*
X677569Y383977D01*
X677587Y383929D01*
X677631Y383873D01*
X677668Y383811D01*
X677708Y383777D01*
X677740Y383737D01*
X677801Y383698D01*
X677855Y383651D01*
X677903Y383632D01*
X677947Y383604D01*
X678017Y383586D01*
X678083Y383559D01*
X678155Y383551D01*
X678186Y383543D01*
X678209Y383545D01*
X678250Y383541D01*
X693350Y383541D01*
X693421Y383552D01*
X693492Y383554D01*
X693541Y383572D01*
X693593Y383580D01*
X693656Y383614D01*
X693723Y383639D01*
X693764Y383671D01*
X693810Y383696D01*
X693860Y383748D01*
X693916Y383792D01*
X693944Y383836D01*
X693980Y383874D01*
X694010Y383939D01*
X694049Y383999D01*
X694061Y384050D01*
X694083Y384097D01*
X694091Y384168D01*
X694109Y384238D01*
X694105Y384290D01*
X694110Y384341D01*
X694095Y384412D01*
X694089Y384483D01*
X694069Y384531D01*
X694058Y384582D01*
X694021Y384643D01*
X693993Y384709D01*
X693948Y384765D01*
X693932Y384793D01*
X693914Y384808D01*
X693888Y384840D01*
X688974Y389754D01*
X688974Y397646D01*
X694554Y403226D01*
X702446Y403226D01*
X708026Y397646D01*
X708026Y389754D01*
X703112Y384840D01*
X703070Y384782D01*
X703020Y384730D01*
X702999Y384683D01*
X702968Y384641D01*
X702947Y384572D01*
X702917Y384507D01*
X702911Y384455D01*
X702896Y384405D01*
X702898Y384334D01*
X702890Y384263D01*
X702901Y384212D01*
X702902Y384160D01*
X702927Y384092D01*
X702942Y384022D01*
X702969Y383977D01*
X702987Y383929D01*
X703031Y383873D01*
X703068Y383811D01*
X703108Y383777D01*
X703140Y383737D01*
X703201Y383698D01*
X703255Y383651D01*
X703303Y383632D01*
X703347Y383604D01*
X703417Y383586D01*
X703483Y383559D01*
X703555Y383551D01*
X703586Y383543D01*
X703609Y383545D01*
X703650Y383541D01*
X718750Y383541D01*
X718821Y383552D01*
X718892Y383554D01*
X718941Y383572D01*
X718993Y383580D01*
X719056Y383614D01*
X719123Y383639D01*
X719164Y383671D01*
X719210Y383696D01*
X719260Y383748D01*
X719316Y383792D01*
X719344Y383836D01*
X719380Y383874D01*
X719410Y383939D01*
X719449Y383999D01*
X719461Y384050D01*
X719483Y384097D01*
X719491Y384168D01*
X719509Y384238D01*
X719505Y384290D01*
X719510Y384341D01*
X719495Y384412D01*
X719489Y384483D01*
X719469Y384531D01*
X719458Y384582D01*
X719421Y384643D01*
X719393Y384709D01*
X719348Y384765D01*
X719332Y384793D01*
X719314Y384808D01*
X719288Y384840D01*
X714374Y389754D01*
X714374Y397646D01*
X719954Y403226D01*
X727846Y403226D01*
X733426Y397646D01*
X733426Y389754D01*
X728512Y384840D01*
X728470Y384782D01*
X728420Y384730D01*
X728399Y384683D01*
X728368Y384641D01*
X728347Y384572D01*
X728317Y384507D01*
X728311Y384455D01*
X728296Y384405D01*
X728298Y384334D01*
X728290Y384263D01*
X728301Y384212D01*
X728302Y384160D01*
X728327Y384092D01*
X728342Y384022D01*
X728369Y383977D01*
X728387Y383929D01*
X728431Y383873D01*
X728468Y383811D01*
X728508Y383777D01*
X728540Y383737D01*
X728601Y383698D01*
X728655Y383651D01*
X728703Y383632D01*
X728747Y383604D01*
X728817Y383586D01*
X728883Y383559D01*
X728955Y383551D01*
X728986Y383543D01*
X729009Y383545D01*
X729050Y383541D01*
X744150Y383541D01*
X744221Y383552D01*
X744292Y383554D01*
X744341Y383572D01*
X744393Y383580D01*
X744456Y383614D01*
X744523Y383639D01*
X744564Y383671D01*
X744610Y383696D01*
X744660Y383748D01*
X744716Y383792D01*
X744744Y383836D01*
X744780Y383874D01*
X744810Y383939D01*
X744849Y383999D01*
X744861Y384050D01*
X744883Y384097D01*
X744891Y384168D01*
X744909Y384238D01*
X744905Y384290D01*
X744910Y384341D01*
X744895Y384412D01*
X744889Y384483D01*
X744869Y384531D01*
X744858Y384582D01*
X744821Y384643D01*
X744793Y384709D01*
X744748Y384765D01*
X744732Y384793D01*
X744714Y384808D01*
X744688Y384840D01*
X739774Y389754D01*
X739774Y397646D01*
X745354Y403226D01*
X753246Y403226D01*
X758826Y397646D01*
X758826Y389754D01*
X753912Y384840D01*
X753870Y384782D01*
X753820Y384730D01*
X753799Y384683D01*
X753768Y384641D01*
X753747Y384572D01*
X753717Y384507D01*
X753711Y384455D01*
X753696Y384405D01*
X753698Y384334D01*
X753690Y384263D01*
X753701Y384212D01*
X753702Y384160D01*
X753727Y384092D01*
X753742Y384022D01*
X753769Y383977D01*
X753787Y383929D01*
X753831Y383873D01*
X753868Y383811D01*
X753908Y383777D01*
X753940Y383737D01*
X754001Y383698D01*
X754055Y383651D01*
X754103Y383632D01*
X754147Y383604D01*
X754217Y383586D01*
X754283Y383559D01*
X754355Y383551D01*
X754386Y383543D01*
X754409Y383545D01*
X754450Y383541D01*
X769550Y383541D01*
X769621Y383552D01*
X769692Y383554D01*
X769741Y383572D01*
X769793Y383580D01*
X769856Y383614D01*
X769923Y383639D01*
X769964Y383671D01*
X770010Y383696D01*
X770060Y383748D01*
X770116Y383792D01*
X770144Y383836D01*
X770180Y383874D01*
X770210Y383939D01*
X770249Y383999D01*
X770261Y384050D01*
X770283Y384097D01*
X770291Y384168D01*
X770309Y384238D01*
X770305Y384290D01*
X770310Y384341D01*
X770295Y384412D01*
X770289Y384483D01*
X770269Y384531D01*
X770258Y384582D01*
X770221Y384643D01*
X770193Y384709D01*
X770148Y384765D01*
X770132Y384793D01*
X770114Y384808D01*
X770088Y384840D01*
X765174Y389754D01*
X765174Y397646D01*
X770754Y403226D01*
X778646Y403226D01*
X784226Y397646D01*
X784226Y389754D01*
X779312Y384840D01*
X779270Y384782D01*
X779220Y384730D01*
X779199Y384683D01*
X779168Y384641D01*
X779147Y384572D01*
X779117Y384507D01*
X779111Y384455D01*
X779096Y384405D01*
X779098Y384334D01*
X779090Y384263D01*
X779101Y384212D01*
X779102Y384160D01*
X779127Y384092D01*
X779142Y384022D01*
X779169Y383977D01*
X779187Y383929D01*
X779231Y383873D01*
X779268Y383811D01*
X779308Y383777D01*
X779340Y383737D01*
X779401Y383698D01*
X779455Y383651D01*
X779503Y383632D01*
X779547Y383604D01*
X779617Y383586D01*
X779683Y383559D01*
X779755Y383551D01*
X779786Y383543D01*
X779809Y383545D01*
X779850Y383541D01*
X794950Y383541D01*
X795021Y383552D01*
X795092Y383554D01*
X795141Y383572D01*
X795193Y383580D01*
X795256Y383614D01*
X795323Y383639D01*
X795364Y383671D01*
X795410Y383696D01*
X795460Y383748D01*
X795516Y383792D01*
X795544Y383836D01*
X795580Y383874D01*
X795610Y383939D01*
X795649Y383999D01*
X795661Y384050D01*
X795683Y384097D01*
X795691Y384168D01*
X795709Y384238D01*
X795705Y384290D01*
X795710Y384341D01*
X795695Y384412D01*
X795689Y384483D01*
X795669Y384531D01*
X795658Y384582D01*
X795621Y384643D01*
X795593Y384709D01*
X795548Y384765D01*
X795532Y384793D01*
X795514Y384808D01*
X795488Y384840D01*
X790574Y389754D01*
X790574Y397646D01*
X796154Y403226D01*
X804046Y403226D01*
X809626Y397646D01*
X809626Y389754D01*
X804712Y384840D01*
X804670Y384782D01*
X804620Y384730D01*
X804599Y384683D01*
X804568Y384641D01*
X804547Y384572D01*
X804517Y384507D01*
X804511Y384455D01*
X804496Y384405D01*
X804498Y384334D01*
X804490Y384263D01*
X804501Y384212D01*
X804502Y384160D01*
X804527Y384092D01*
X804542Y384022D01*
X804569Y383977D01*
X804587Y383929D01*
X804631Y383873D01*
X804668Y383811D01*
X804708Y383777D01*
X804740Y383737D01*
X804801Y383698D01*
X804855Y383651D01*
X804903Y383632D01*
X804947Y383604D01*
X805017Y383586D01*
X805083Y383559D01*
X805155Y383551D01*
X805186Y383543D01*
X805209Y383545D01*
X805250Y383541D01*
X820350Y383541D01*
X820421Y383552D01*
X820492Y383554D01*
X820541Y383572D01*
X820593Y383580D01*
X820656Y383614D01*
X820723Y383639D01*
X820764Y383671D01*
X820810Y383696D01*
X820860Y383748D01*
X820916Y383792D01*
X820944Y383836D01*
X820980Y383874D01*
X821010Y383939D01*
X821049Y383999D01*
X821061Y384050D01*
X821083Y384097D01*
X821091Y384168D01*
X821109Y384238D01*
X821105Y384290D01*
X821110Y384341D01*
X821095Y384412D01*
X821089Y384483D01*
X821069Y384531D01*
X821058Y384582D01*
X821021Y384643D01*
X820993Y384709D01*
X820948Y384765D01*
X820932Y384793D01*
X820914Y384808D01*
X820888Y384840D01*
X815974Y389754D01*
X815974Y397646D01*
X821554Y403226D01*
X829446Y403226D01*
X835026Y397646D01*
X835026Y389754D01*
X830112Y384840D01*
X830070Y384782D01*
X830020Y384730D01*
X829999Y384683D01*
X829968Y384641D01*
X829947Y384572D01*
X829917Y384507D01*
X829911Y384455D01*
X829896Y384405D01*
X829898Y384334D01*
X829890Y384263D01*
X829901Y384212D01*
X829902Y384160D01*
X829927Y384092D01*
X829942Y384022D01*
X829969Y383977D01*
X829987Y383929D01*
X830031Y383873D01*
X830068Y383811D01*
X830108Y383777D01*
X830140Y383737D01*
X830201Y383698D01*
X830255Y383651D01*
X830303Y383632D01*
X830347Y383604D01*
X830417Y383586D01*
X830483Y383559D01*
X830555Y383551D01*
X830586Y383543D01*
X830609Y383545D01*
X830650Y383541D01*
X845750Y383541D01*
X845821Y383552D01*
X845892Y383554D01*
X845941Y383572D01*
X845993Y383580D01*
X846056Y383614D01*
X846123Y383639D01*
X846164Y383671D01*
X846210Y383696D01*
X846260Y383748D01*
X846316Y383792D01*
X846344Y383836D01*
X846380Y383874D01*
X846410Y383939D01*
X846449Y383999D01*
X846461Y384050D01*
X846483Y384097D01*
X846491Y384168D01*
X846509Y384238D01*
X846505Y384290D01*
X846510Y384341D01*
X846495Y384412D01*
X846489Y384483D01*
X846469Y384531D01*
X846458Y384582D01*
X846421Y384643D01*
X846393Y384709D01*
X846348Y384765D01*
X846332Y384793D01*
X846314Y384808D01*
X846288Y384840D01*
X841374Y389754D01*
X841374Y397646D01*
X846954Y403226D01*
X854846Y403226D01*
X860426Y397646D01*
X860426Y389754D01*
X855512Y384840D01*
X855470Y384782D01*
X855420Y384730D01*
X855399Y384683D01*
X855368Y384641D01*
X855347Y384572D01*
X855317Y384507D01*
X855311Y384455D01*
X855296Y384405D01*
X855298Y384334D01*
X855290Y384263D01*
X855301Y384212D01*
X855302Y384160D01*
X855327Y384092D01*
X855342Y384022D01*
X855369Y383977D01*
X855387Y383929D01*
X855431Y383873D01*
X855468Y383811D01*
X855508Y383777D01*
X855540Y383737D01*
X855601Y383698D01*
X855655Y383651D01*
X855703Y383632D01*
X855747Y383604D01*
X855817Y383586D01*
X855883Y383559D01*
X855955Y383551D01*
X855986Y383543D01*
X856009Y383545D01*
X856050Y383541D01*
X871150Y383541D01*
X871221Y383552D01*
X871292Y383554D01*
X871341Y383572D01*
X871393Y383580D01*
X871456Y383614D01*
X871523Y383639D01*
X871564Y383671D01*
X871610Y383696D01*
X871660Y383748D01*
X871716Y383792D01*
X871744Y383836D01*
X871780Y383874D01*
X871810Y383939D01*
X871849Y383999D01*
X871861Y384050D01*
X871883Y384097D01*
X871891Y384168D01*
X871909Y384238D01*
X871905Y384290D01*
X871910Y384341D01*
X871895Y384412D01*
X871889Y384483D01*
X871869Y384531D01*
X871858Y384582D01*
X871821Y384643D01*
X871793Y384709D01*
X871748Y384765D01*
X871732Y384793D01*
X871714Y384808D01*
X871688Y384840D01*
X866774Y389754D01*
X866774Y397646D01*
X872354Y403226D01*
X880246Y403226D01*
X885826Y397646D01*
X885826Y389754D01*
X880912Y384840D01*
X880870Y384782D01*
X880820Y384730D01*
X880799Y384683D01*
X880768Y384641D01*
X880747Y384572D01*
X880717Y384507D01*
X880711Y384455D01*
X880696Y384405D01*
X880698Y384334D01*
X880690Y384263D01*
X880701Y384212D01*
X880702Y384160D01*
X880727Y384092D01*
X880742Y384022D01*
X880769Y383977D01*
X880787Y383929D01*
X880831Y383873D01*
X880868Y383811D01*
X880908Y383777D01*
X880940Y383737D01*
X881001Y383698D01*
X881055Y383651D01*
X881103Y383632D01*
X881147Y383604D01*
X881217Y383586D01*
X881283Y383559D01*
X881355Y383551D01*
X881386Y383543D01*
X881409Y383545D01*
X881450Y383541D01*
X896550Y383541D01*
X896621Y383552D01*
X896692Y383554D01*
X896741Y383572D01*
X896793Y383580D01*
X896856Y383614D01*
X896923Y383639D01*
X896964Y383671D01*
X897010Y383696D01*
X897060Y383748D01*
X897116Y383792D01*
X897144Y383836D01*
X897180Y383874D01*
X897210Y383939D01*
X897249Y383999D01*
X897261Y384050D01*
X897283Y384097D01*
X897291Y384168D01*
X897309Y384238D01*
X897305Y384290D01*
X897310Y384341D01*
X897295Y384412D01*
X897289Y384483D01*
X897269Y384531D01*
X897258Y384582D01*
X897221Y384643D01*
X897193Y384709D01*
X897148Y384765D01*
X897132Y384793D01*
X897114Y384808D01*
X897088Y384840D01*
X892174Y389754D01*
X892174Y397646D01*
X897754Y403226D01*
X905646Y403226D01*
X911226Y397646D01*
X911226Y389754D01*
X906312Y384840D01*
X906270Y384782D01*
X906220Y384730D01*
X906199Y384683D01*
X906168Y384641D01*
X906147Y384572D01*
X906117Y384507D01*
X906111Y384455D01*
X906096Y384405D01*
X906098Y384334D01*
X906090Y384263D01*
X906101Y384212D01*
X906102Y384160D01*
X906127Y384092D01*
X906142Y384022D01*
X906169Y383977D01*
X906187Y383929D01*
X906231Y383873D01*
X906268Y383811D01*
X906308Y383777D01*
X906340Y383737D01*
X906401Y383698D01*
X906455Y383651D01*
X906503Y383632D01*
X906547Y383604D01*
X906617Y383586D01*
X906683Y383559D01*
X906755Y383551D01*
X906786Y383543D01*
X906809Y383545D01*
X906850Y383541D01*
X921950Y383541D01*
X922021Y383552D01*
X922092Y383554D01*
X922141Y383572D01*
X922193Y383580D01*
X922256Y383614D01*
X922323Y383639D01*
X922364Y383671D01*
X922410Y383696D01*
X922460Y383748D01*
X922516Y383792D01*
X922544Y383836D01*
X922580Y383874D01*
X922610Y383939D01*
X922649Y383999D01*
X922661Y384050D01*
X922683Y384097D01*
X922691Y384168D01*
X922709Y384238D01*
X922705Y384290D01*
X922710Y384341D01*
X922695Y384412D01*
X922689Y384483D01*
X922669Y384531D01*
X922658Y384582D01*
X922621Y384643D01*
X922593Y384709D01*
X922548Y384765D01*
X922532Y384793D01*
X922514Y384808D01*
X922488Y384840D01*
X917574Y389754D01*
X917574Y397646D01*
X923154Y403226D01*
X931046Y403226D01*
X936626Y397646D01*
X936626Y389754D01*
X931712Y384840D01*
X931670Y384782D01*
X931620Y384730D01*
X931599Y384683D01*
X931568Y384641D01*
X931547Y384572D01*
X931517Y384507D01*
X931511Y384455D01*
X931496Y384405D01*
X931498Y384334D01*
X931490Y384263D01*
X931501Y384212D01*
X931502Y384160D01*
X931527Y384092D01*
X931542Y384022D01*
X931569Y383977D01*
X931587Y383929D01*
X931631Y383873D01*
X931668Y383811D01*
X931708Y383777D01*
X931740Y383737D01*
X931801Y383698D01*
X931855Y383651D01*
X931903Y383632D01*
X931947Y383604D01*
X932017Y383586D01*
X932083Y383559D01*
X932155Y383551D01*
X932186Y383543D01*
X932209Y383545D01*
X932250Y383541D01*
X947350Y383541D01*
X947421Y383552D01*
X947492Y383554D01*
X947541Y383572D01*
X947593Y383580D01*
X947656Y383614D01*
X947723Y383639D01*
X947764Y383671D01*
X947810Y383696D01*
X947860Y383748D01*
X947916Y383792D01*
X947944Y383836D01*
X947980Y383874D01*
X948010Y383939D01*
X948049Y383999D01*
X948061Y384050D01*
X948083Y384097D01*
X948091Y384168D01*
X948109Y384238D01*
X948105Y384290D01*
X948110Y384341D01*
X948095Y384412D01*
X948089Y384483D01*
X948069Y384531D01*
X948058Y384582D01*
X948021Y384643D01*
X947993Y384709D01*
X947948Y384765D01*
X947932Y384793D01*
X947914Y384808D01*
X947888Y384840D01*
X942974Y389754D01*
X942974Y397646D01*
X948554Y403226D01*
X956446Y403226D01*
X962026Y397646D01*
X962026Y389754D01*
X957112Y384840D01*
X957070Y384782D01*
X957020Y384730D01*
X956999Y384683D01*
X956968Y384641D01*
X956947Y384572D01*
X956917Y384507D01*
X956911Y384455D01*
X956896Y384405D01*
X956898Y384334D01*
X956890Y384263D01*
X956901Y384212D01*
X956902Y384160D01*
X956927Y384092D01*
X956942Y384022D01*
X956969Y383977D01*
X956987Y383929D01*
X957031Y383873D01*
X957068Y383811D01*
X957108Y383777D01*
X957140Y383737D01*
X957201Y383698D01*
X957255Y383651D01*
X957303Y383632D01*
X957347Y383604D01*
X957417Y383586D01*
X957483Y383559D01*
X957555Y383551D01*
X957586Y383543D01*
X957609Y383545D01*
X957650Y383541D01*
X972750Y383541D01*
X972821Y383552D01*
X972892Y383554D01*
X972941Y383572D01*
X972993Y383580D01*
X973056Y383614D01*
X973123Y383639D01*
X973164Y383671D01*
X973210Y383696D01*
X973260Y383748D01*
X973316Y383792D01*
X973344Y383836D01*
X973380Y383874D01*
X973410Y383939D01*
X973449Y383999D01*
X973461Y384050D01*
X973483Y384097D01*
X973491Y384168D01*
X973509Y384238D01*
X973505Y384290D01*
X973510Y384341D01*
X973495Y384412D01*
X973489Y384483D01*
X973469Y384531D01*
X973458Y384582D01*
X973421Y384643D01*
X973393Y384709D01*
X973348Y384765D01*
X973332Y384793D01*
X973314Y384808D01*
X973288Y384840D01*
X968374Y389754D01*
X968374Y397646D01*
X973954Y403226D01*
X977851Y403226D01*
X977921Y403237D01*
X977993Y403239D01*
X978042Y403257D01*
X978093Y403265D01*
X978157Y403299D01*
X978224Y403324D01*
X978265Y403356D01*
X978311Y403381D01*
X978360Y403433D01*
X978416Y403477D01*
X978444Y403521D01*
X978480Y403559D01*
X978510Y403624D01*
X978549Y403684D01*
X978562Y403735D01*
X978584Y403782D01*
X978592Y403853D01*
X978609Y403923D01*
X978605Y403975D01*
X978611Y404026D01*
X978596Y404097D01*
X978590Y404168D01*
X978570Y404216D01*
X978559Y404267D01*
X978522Y404328D01*
X978494Y404394D01*
X978449Y404450D01*
X978432Y404478D01*
X978415Y404493D01*
X978389Y404525D01*
X977627Y405287D01*
X977553Y405340D01*
X977483Y405400D01*
X977453Y405412D01*
X977427Y405431D01*
X977340Y405458D01*
X977255Y405492D01*
X977214Y405496D01*
X977192Y405503D01*
X977160Y405502D01*
X977089Y405510D01*
X896636Y405510D01*
X896546Y405496D01*
X896455Y405488D01*
X896426Y405476D01*
X896394Y405471D01*
X896313Y405428D01*
X896229Y405392D01*
X896197Y405366D01*
X896176Y405355D01*
X896154Y405332D01*
X896098Y405287D01*
X894186Y403375D01*
X890418Y403375D01*
X887753Y406040D01*
X887753Y409808D01*
X890418Y412473D01*
X894186Y412473D01*
X896352Y410307D01*
X896426Y410254D01*
X896496Y410194D01*
X896526Y410182D01*
X896552Y410163D01*
X896639Y410136D01*
X896724Y410102D01*
X896765Y410098D01*
X896787Y410091D01*
X896819Y410092D01*
X896890Y410084D01*
X979298Y410084D01*
X980861Y408521D01*
X992475Y396907D01*
X992533Y396865D01*
X992585Y396816D01*
X992632Y396794D01*
X992674Y396764D01*
X992743Y396743D01*
X992808Y396712D01*
X992860Y396707D01*
X992910Y396691D01*
X992981Y396693D01*
X993052Y396685D01*
X993103Y396696D01*
X993155Y396698D01*
X993223Y396722D01*
X993293Y396738D01*
X993338Y396764D01*
X993386Y396782D01*
X993442Y396827D01*
X993504Y396864D01*
X993538Y396903D01*
X993578Y396936D01*
X993617Y396996D01*
X993664Y397051D01*
X993683Y397099D01*
X993711Y397143D01*
X993729Y397212D01*
X993756Y397279D01*
X993764Y397350D01*
X993772Y397381D01*
X993770Y397405D01*
X993774Y397446D01*
X993774Y397646D01*
X999354Y403226D01*
X1007246Y403226D01*
X1012826Y397646D01*
X1012826Y389754D01*
X1007912Y384840D01*
X1007870Y384782D01*
X1007820Y384730D01*
X1007799Y384683D01*
X1007768Y384641D01*
X1007747Y384572D01*
X1007717Y384507D01*
X1007711Y384455D01*
X1007696Y384405D01*
X1007698Y384334D01*
X1007690Y384263D01*
X1007701Y384212D01*
X1007702Y384160D01*
X1007727Y384092D01*
X1007742Y384022D01*
X1007769Y383977D01*
X1007787Y383929D01*
X1007831Y383873D01*
X1007868Y383811D01*
X1007908Y383777D01*
X1007940Y383737D01*
X1008001Y383698D01*
X1008055Y383651D01*
X1008103Y383632D01*
X1008147Y383604D01*
X1008217Y383586D01*
X1008283Y383559D01*
X1008355Y383551D01*
X1008386Y383543D01*
X1008409Y383545D01*
X1008450Y383541D01*
X1023550Y383541D01*
X1023621Y383552D01*
X1023692Y383554D01*
X1023741Y383572D01*
X1023793Y383580D01*
X1023856Y383614D01*
X1023923Y383639D01*
X1023964Y383671D01*
X1024010Y383696D01*
X1024060Y383748D01*
X1024116Y383792D01*
X1024144Y383836D01*
X1024180Y383874D01*
X1024210Y383939D01*
X1024249Y383999D01*
X1024261Y384050D01*
X1024283Y384097D01*
X1024291Y384168D01*
X1024309Y384238D01*
X1024305Y384290D01*
X1024310Y384341D01*
X1024295Y384412D01*
X1024289Y384483D01*
X1024269Y384531D01*
X1024258Y384582D01*
X1024221Y384643D01*
X1024193Y384709D01*
X1024148Y384765D01*
X1024132Y384793D01*
X1024114Y384808D01*
X1024088Y384840D01*
X1019174Y389754D01*
X1019174Y397646D01*
X1024754Y403226D01*
X1032646Y403226D01*
X1038226Y397646D01*
X1038226Y389754D01*
X1033312Y384840D01*
X1033270Y384782D01*
X1033220Y384730D01*
X1033199Y384683D01*
X1033168Y384641D01*
X1033147Y384572D01*
X1033117Y384507D01*
X1033111Y384455D01*
X1033096Y384405D01*
X1033098Y384334D01*
X1033090Y384263D01*
X1033101Y384212D01*
X1033102Y384160D01*
X1033127Y384092D01*
X1033142Y384022D01*
X1033169Y383977D01*
X1033187Y383929D01*
X1033231Y383873D01*
X1033268Y383811D01*
X1033308Y383777D01*
X1033340Y383737D01*
X1033401Y383698D01*
X1033455Y383651D01*
X1033503Y383632D01*
X1033547Y383604D01*
X1033617Y383586D01*
X1033683Y383559D01*
X1033755Y383551D01*
X1033786Y383543D01*
X1033809Y383545D01*
X1033850Y383541D01*
X1048950Y383541D01*
X1049021Y383552D01*
X1049092Y383554D01*
X1049141Y383572D01*
X1049193Y383580D01*
X1049256Y383614D01*
X1049323Y383639D01*
X1049364Y383671D01*
X1049410Y383696D01*
X1049460Y383748D01*
X1049516Y383792D01*
X1049544Y383836D01*
X1049580Y383874D01*
X1049610Y383939D01*
X1049649Y383999D01*
X1049661Y384050D01*
X1049683Y384097D01*
X1049691Y384168D01*
X1049709Y384238D01*
X1049705Y384290D01*
X1049710Y384341D01*
X1049695Y384412D01*
X1049689Y384483D01*
X1049669Y384531D01*
X1049658Y384582D01*
X1049621Y384643D01*
X1049593Y384709D01*
X1049548Y384765D01*
X1049532Y384793D01*
X1049514Y384808D01*
X1049488Y384840D01*
X1044574Y389754D01*
X1044574Y397646D01*
X1050154Y403226D01*
X1058046Y403226D01*
X1063626Y397646D01*
X1063626Y389754D01*
X1058712Y384840D01*
X1058670Y384782D01*
X1058620Y384730D01*
X1058599Y384683D01*
X1058568Y384641D01*
X1058547Y384572D01*
X1058517Y384507D01*
X1058511Y384455D01*
X1058496Y384405D01*
X1058498Y384334D01*
X1058490Y384263D01*
X1058501Y384212D01*
X1058502Y384160D01*
X1058527Y384092D01*
X1058542Y384022D01*
X1058569Y383977D01*
X1058587Y383929D01*
X1058631Y383873D01*
X1058668Y383811D01*
X1058708Y383777D01*
X1058740Y383737D01*
X1058801Y383698D01*
X1058855Y383651D01*
X1058903Y383632D01*
X1058947Y383604D01*
X1059017Y383586D01*
X1059083Y383559D01*
X1059155Y383551D01*
X1059186Y383543D01*
X1059209Y383545D01*
X1059250Y383541D01*
X1074350Y383541D01*
X1074421Y383552D01*
X1074492Y383554D01*
X1074541Y383572D01*
X1074593Y383580D01*
X1074656Y383614D01*
X1074723Y383639D01*
X1074764Y383671D01*
X1074810Y383696D01*
X1074860Y383748D01*
X1074916Y383792D01*
X1074944Y383836D01*
X1074980Y383874D01*
X1075010Y383939D01*
X1075049Y383999D01*
X1075061Y384050D01*
X1075083Y384097D01*
X1075091Y384168D01*
X1075109Y384238D01*
X1075105Y384290D01*
X1075110Y384341D01*
X1075095Y384412D01*
X1075089Y384483D01*
X1075069Y384531D01*
X1075058Y384582D01*
X1075021Y384643D01*
X1074993Y384709D01*
X1074948Y384765D01*
X1074932Y384793D01*
X1074914Y384808D01*
X1074888Y384840D01*
X1069974Y389754D01*
X1069974Y397646D01*
X1075554Y403226D01*
X1083446Y403226D01*
X1089026Y397646D01*
X1089026Y389754D01*
X1084112Y384840D01*
X1084070Y384782D01*
X1084020Y384730D01*
X1083999Y384683D01*
X1083968Y384641D01*
X1083947Y384572D01*
X1083917Y384507D01*
X1083911Y384455D01*
X1083896Y384405D01*
X1083898Y384334D01*
X1083890Y384263D01*
X1083901Y384212D01*
X1083902Y384160D01*
X1083927Y384092D01*
X1083942Y384022D01*
X1083969Y383977D01*
X1083987Y383929D01*
X1084031Y383873D01*
X1084068Y383811D01*
X1084108Y383777D01*
X1084140Y383737D01*
X1084201Y383698D01*
X1084255Y383651D01*
X1084303Y383632D01*
X1084347Y383604D01*
X1084417Y383586D01*
X1084483Y383559D01*
X1084555Y383551D01*
X1084586Y383543D01*
X1084609Y383545D01*
X1084650Y383541D01*
X1099750Y383541D01*
X1099821Y383552D01*
X1099892Y383554D01*
X1099941Y383572D01*
X1099993Y383580D01*
X1100056Y383614D01*
X1100123Y383639D01*
X1100164Y383671D01*
X1100210Y383696D01*
X1100260Y383748D01*
X1100316Y383792D01*
X1100344Y383836D01*
X1100380Y383874D01*
X1100410Y383939D01*
X1100449Y383999D01*
X1100461Y384050D01*
X1100483Y384097D01*
X1100491Y384168D01*
X1100509Y384238D01*
X1100505Y384290D01*
X1100510Y384341D01*
X1100495Y384412D01*
X1100489Y384483D01*
X1100469Y384531D01*
X1100458Y384582D01*
X1100421Y384643D01*
X1100393Y384709D01*
X1100348Y384765D01*
X1100332Y384793D01*
X1100314Y384808D01*
X1100288Y384840D01*
X1095374Y389754D01*
X1095374Y397646D01*
X1100954Y403226D01*
X1108846Y403226D01*
X1114426Y397646D01*
X1114426Y389754D01*
X1109512Y384840D01*
X1109470Y384782D01*
X1109420Y384730D01*
X1109399Y384683D01*
X1109368Y384641D01*
X1109347Y384572D01*
X1109317Y384507D01*
X1109311Y384455D01*
X1109296Y384405D01*
X1109298Y384334D01*
X1109290Y384263D01*
X1109301Y384212D01*
X1109302Y384160D01*
X1109327Y384092D01*
X1109342Y384022D01*
X1109369Y383977D01*
X1109387Y383929D01*
X1109431Y383873D01*
X1109468Y383811D01*
X1109508Y383777D01*
X1109540Y383737D01*
X1109601Y383698D01*
X1109655Y383651D01*
X1109703Y383632D01*
X1109747Y383604D01*
X1109817Y383586D01*
X1109883Y383559D01*
X1109955Y383551D01*
X1109986Y383543D01*
X1110009Y383545D01*
X1110050Y383541D01*
X1130098Y383541D01*
X1130118Y383544D01*
X1130137Y383542D01*
X1130239Y383564D01*
X1130341Y383580D01*
X1130358Y383590D01*
X1130378Y383594D01*
X1130467Y383647D01*
X1130558Y383696D01*
X1130572Y383710D01*
X1130589Y383720D01*
X1130656Y383799D01*
X1130728Y383874D01*
X1130736Y383892D01*
X1130749Y383907D01*
X1130788Y384003D01*
X1130831Y384097D01*
X1130833Y384117D01*
X1130841Y384135D01*
X1130859Y384302D01*
X1130859Y683248D01*
X1130856Y683268D01*
X1130858Y683287D01*
X1130836Y683389D01*
X1130820Y683491D01*
X1130810Y683508D01*
X1130806Y683528D01*
X1130753Y683617D01*
X1130704Y683708D01*
X1130690Y683722D01*
X1130680Y683739D01*
X1130601Y683806D01*
X1130526Y683878D01*
X1130508Y683886D01*
X1130493Y683899D01*
X1130397Y683938D01*
X1130303Y683981D01*
X1130283Y683983D01*
X1130265Y683991D01*
X1130098Y684009D01*
X1083900Y684009D01*
X1083829Y683998D01*
X1083758Y683996D01*
X1083709Y683978D01*
X1083657Y683970D01*
X1083594Y683936D01*
X1083527Y683911D01*
X1083486Y683879D01*
X1083440Y683854D01*
X1083390Y683802D01*
X1083334Y683758D01*
X1083306Y683714D01*
X1083270Y683676D01*
X1083240Y683611D01*
X1083201Y683551D01*
X1083189Y683500D01*
X1083167Y683453D01*
X1083159Y683382D01*
X1083141Y683312D01*
X1083145Y683260D01*
X1083140Y683209D01*
X1083155Y683138D01*
X1083161Y683067D01*
X1083181Y683019D01*
X1083192Y682968D01*
X1083229Y682907D01*
X1083257Y682841D01*
X1083302Y682785D01*
X1083318Y682757D01*
X1083336Y682742D01*
X1083362Y682710D01*
X1089026Y677046D01*
X1089026Y669154D01*
X1083446Y663574D01*
X1075554Y663574D01*
X1069974Y669154D01*
X1069974Y677046D01*
X1075638Y682710D01*
X1075680Y682768D01*
X1075730Y682820D01*
X1075751Y682867D01*
X1075782Y682909D01*
X1075803Y682978D01*
X1075833Y683043D01*
X1075839Y683095D01*
X1075854Y683145D01*
X1075852Y683216D01*
X1075860Y683287D01*
X1075849Y683338D01*
X1075848Y683390D01*
X1075823Y683458D01*
X1075808Y683528D01*
X1075781Y683573D01*
X1075763Y683621D01*
X1075719Y683677D01*
X1075682Y683739D01*
X1075642Y683773D01*
X1075610Y683813D01*
X1075549Y683852D01*
X1075495Y683899D01*
X1075447Y683918D01*
X1075403Y683946D01*
X1075333Y683964D01*
X1075267Y683991D01*
X1075195Y683999D01*
X1075164Y684007D01*
X1075141Y684005D01*
X1075100Y684009D01*
X1058500Y684009D01*
X1058429Y683998D01*
X1058358Y683996D01*
X1058309Y683978D01*
X1058257Y683970D01*
X1058194Y683936D01*
X1058127Y683911D01*
X1058086Y683879D01*
X1058040Y683854D01*
X1057990Y683802D01*
X1057934Y683758D01*
X1057906Y683714D01*
X1057870Y683676D01*
X1057840Y683611D01*
X1057801Y683551D01*
X1057789Y683500D01*
X1057767Y683453D01*
X1057759Y683382D01*
X1057741Y683312D01*
X1057745Y683260D01*
X1057740Y683209D01*
X1057755Y683138D01*
X1057761Y683067D01*
X1057781Y683019D01*
X1057792Y682968D01*
X1057829Y682907D01*
X1057857Y682841D01*
X1057902Y682785D01*
X1057918Y682757D01*
X1057936Y682742D01*
X1057962Y682710D01*
X1063626Y677046D01*
X1063626Y669154D01*
X1058046Y663574D01*
X1050154Y663574D01*
X1044574Y669154D01*
X1044574Y677046D01*
X1050238Y682710D01*
X1050280Y682768D01*
X1050330Y682820D01*
X1050351Y682867D01*
X1050382Y682909D01*
X1050403Y682978D01*
X1050433Y683043D01*
X1050439Y683095D01*
X1050454Y683145D01*
X1050452Y683216D01*
X1050460Y683287D01*
X1050449Y683338D01*
X1050448Y683390D01*
X1050423Y683458D01*
X1050408Y683528D01*
X1050381Y683573D01*
X1050363Y683621D01*
X1050319Y683677D01*
X1050282Y683739D01*
X1050242Y683773D01*
X1050210Y683813D01*
X1050149Y683852D01*
X1050095Y683899D01*
X1050047Y683918D01*
X1050003Y683946D01*
X1049933Y683964D01*
X1049867Y683991D01*
X1049795Y683999D01*
X1049764Y684007D01*
X1049741Y684005D01*
X1049700Y684009D01*
X1033100Y684009D01*
X1033029Y683998D01*
X1032958Y683996D01*
X1032909Y683978D01*
X1032857Y683970D01*
X1032794Y683936D01*
X1032727Y683911D01*
X1032686Y683879D01*
X1032640Y683854D01*
X1032590Y683802D01*
X1032534Y683758D01*
X1032506Y683714D01*
X1032470Y683676D01*
X1032440Y683611D01*
X1032401Y683551D01*
X1032389Y683500D01*
X1032367Y683453D01*
X1032359Y683382D01*
X1032341Y683312D01*
X1032345Y683260D01*
X1032340Y683209D01*
X1032355Y683138D01*
X1032361Y683067D01*
X1032381Y683019D01*
X1032392Y682968D01*
X1032429Y682907D01*
X1032457Y682841D01*
X1032502Y682785D01*
X1032518Y682757D01*
X1032536Y682742D01*
X1032562Y682710D01*
X1038226Y677046D01*
X1038226Y669154D01*
X1032646Y663574D01*
X1024754Y663574D01*
X1019174Y669154D01*
X1019174Y677046D01*
X1024838Y682710D01*
X1024880Y682768D01*
X1024930Y682820D01*
X1024951Y682867D01*
X1024982Y682909D01*
X1025003Y682978D01*
X1025033Y683043D01*
X1025039Y683095D01*
X1025054Y683145D01*
X1025052Y683216D01*
X1025060Y683287D01*
X1025049Y683338D01*
X1025048Y683390D01*
X1025023Y683458D01*
X1025008Y683528D01*
X1024981Y683573D01*
X1024963Y683621D01*
X1024919Y683677D01*
X1024882Y683739D01*
X1024842Y683773D01*
X1024810Y683813D01*
X1024749Y683852D01*
X1024695Y683899D01*
X1024647Y683918D01*
X1024603Y683946D01*
X1024533Y683964D01*
X1024467Y683991D01*
X1024395Y683999D01*
X1024364Y684007D01*
X1024341Y684005D01*
X1024300Y684009D01*
X1007700Y684009D01*
X1007629Y683998D01*
X1007558Y683996D01*
X1007509Y683978D01*
X1007457Y683970D01*
X1007394Y683936D01*
X1007327Y683911D01*
X1007286Y683879D01*
X1007240Y683854D01*
X1007190Y683802D01*
X1007134Y683758D01*
X1007106Y683714D01*
X1007070Y683676D01*
X1007040Y683611D01*
X1007001Y683551D01*
X1006989Y683500D01*
X1006967Y683453D01*
X1006959Y683382D01*
X1006941Y683312D01*
X1006945Y683260D01*
X1006940Y683209D01*
X1006955Y683138D01*
X1006961Y683067D01*
X1006981Y683019D01*
X1006992Y682968D01*
X1007029Y682907D01*
X1007057Y682841D01*
X1007102Y682785D01*
X1007118Y682757D01*
X1007136Y682742D01*
X1007162Y682710D01*
X1012826Y677046D01*
X1012826Y669154D01*
X1007246Y663574D01*
X999354Y663574D01*
X993774Y669154D01*
X993774Y677046D01*
X999438Y682710D01*
X999480Y682768D01*
X999530Y682820D01*
X999551Y682867D01*
X999582Y682909D01*
X999603Y682978D01*
X999633Y683043D01*
X999639Y683095D01*
X999654Y683145D01*
X999652Y683216D01*
X999660Y683287D01*
X999649Y683338D01*
X999648Y683390D01*
X999623Y683458D01*
X999608Y683528D01*
X999581Y683573D01*
X999563Y683621D01*
X999519Y683677D01*
X999482Y683739D01*
X999442Y683773D01*
X999410Y683813D01*
X999349Y683852D01*
X999295Y683899D01*
X999247Y683918D01*
X999203Y683946D01*
X999133Y683964D01*
X999067Y683991D01*
X998995Y683999D01*
X998964Y684007D01*
X998941Y684005D01*
X998900Y684009D01*
X982300Y684009D01*
X982229Y683998D01*
X982158Y683996D01*
X982109Y683978D01*
X982057Y683970D01*
X981994Y683936D01*
X981927Y683911D01*
X981886Y683879D01*
X981840Y683854D01*
X981790Y683802D01*
X981734Y683758D01*
X981706Y683714D01*
X981670Y683676D01*
X981640Y683611D01*
X981601Y683551D01*
X981589Y683500D01*
X981567Y683453D01*
X981559Y683382D01*
X981541Y683312D01*
X981545Y683260D01*
X981540Y683209D01*
X981555Y683138D01*
X981561Y683067D01*
X981581Y683019D01*
X981592Y682968D01*
X981629Y682907D01*
X981657Y682841D01*
X981702Y682785D01*
X981718Y682757D01*
X981736Y682742D01*
X981762Y682710D01*
X987426Y677046D01*
X987426Y669154D01*
X981846Y663574D01*
X973954Y663574D01*
X968374Y669154D01*
X968374Y677046D01*
X974038Y682710D01*
X974080Y682768D01*
X974130Y682820D01*
X974151Y682867D01*
X974182Y682909D01*
X974203Y682978D01*
X974233Y683043D01*
X974239Y683095D01*
X974254Y683145D01*
X974252Y683216D01*
X974260Y683287D01*
X974249Y683338D01*
X974248Y683390D01*
X974223Y683458D01*
X974208Y683528D01*
X974181Y683573D01*
X974163Y683621D01*
X974119Y683677D01*
X974082Y683739D01*
X974042Y683773D01*
X974010Y683813D01*
X973949Y683852D01*
X973895Y683899D01*
X973847Y683918D01*
X973803Y683946D01*
X973733Y683964D01*
X973667Y683991D01*
X973595Y683999D01*
X973564Y684007D01*
X973541Y684005D01*
X973500Y684009D01*
X956900Y684009D01*
X956829Y683998D01*
X956758Y683996D01*
X956709Y683978D01*
X956657Y683970D01*
X956594Y683936D01*
X956527Y683911D01*
X956486Y683879D01*
X956440Y683854D01*
X956390Y683802D01*
X956334Y683758D01*
X956306Y683714D01*
X956270Y683676D01*
X956240Y683611D01*
X956201Y683551D01*
X956189Y683500D01*
X956167Y683453D01*
X956159Y683382D01*
X956141Y683312D01*
X956145Y683260D01*
X956140Y683209D01*
X956155Y683138D01*
X956161Y683067D01*
X956181Y683019D01*
X956192Y682968D01*
X956229Y682907D01*
X956257Y682841D01*
X956302Y682785D01*
X956318Y682757D01*
X956336Y682742D01*
X956362Y682710D01*
X962026Y677046D01*
X962026Y669154D01*
X956446Y663574D01*
X948554Y663574D01*
X942974Y669154D01*
X942974Y677046D01*
X948638Y682710D01*
X948680Y682768D01*
X948730Y682820D01*
X948751Y682867D01*
X948782Y682909D01*
X948803Y682978D01*
X948833Y683043D01*
X948839Y683095D01*
X948854Y683145D01*
X948852Y683216D01*
X948860Y683287D01*
X948849Y683338D01*
X948848Y683390D01*
X948823Y683458D01*
X948808Y683528D01*
X948781Y683573D01*
X948763Y683621D01*
X948719Y683677D01*
X948682Y683739D01*
X948642Y683773D01*
X948610Y683813D01*
X948549Y683852D01*
X948495Y683899D01*
X948447Y683918D01*
X948403Y683946D01*
X948333Y683964D01*
X948267Y683991D01*
X948195Y683999D01*
X948164Y684007D01*
X948141Y684005D01*
X948100Y684009D01*
X931500Y684009D01*
X931429Y683998D01*
X931358Y683996D01*
X931309Y683978D01*
X931257Y683970D01*
X931194Y683936D01*
X931127Y683911D01*
X931086Y683879D01*
X931040Y683854D01*
X930990Y683802D01*
X930934Y683758D01*
X930906Y683714D01*
X930870Y683676D01*
X930840Y683611D01*
X930801Y683551D01*
X930789Y683500D01*
X930767Y683453D01*
X930759Y683382D01*
X930741Y683312D01*
X930745Y683260D01*
X930740Y683209D01*
X930755Y683138D01*
X930761Y683067D01*
X930781Y683019D01*
X930792Y682968D01*
X930829Y682907D01*
X930857Y682841D01*
X930902Y682785D01*
X930918Y682757D01*
X930936Y682742D01*
X930962Y682710D01*
X936626Y677046D01*
X936626Y669154D01*
X931046Y663574D01*
X923154Y663574D01*
X917574Y669154D01*
X917574Y677046D01*
X923238Y682710D01*
X923280Y682768D01*
X923330Y682820D01*
X923351Y682867D01*
X923382Y682909D01*
X923403Y682978D01*
X923433Y683043D01*
X923439Y683095D01*
X923454Y683145D01*
X923452Y683216D01*
X923460Y683287D01*
X923449Y683338D01*
X923448Y683390D01*
X923423Y683458D01*
X923408Y683528D01*
X923381Y683573D01*
X923363Y683621D01*
X923319Y683677D01*
X923282Y683739D01*
X923242Y683773D01*
X923210Y683813D01*
X923149Y683852D01*
X923095Y683899D01*
X923047Y683918D01*
X923003Y683946D01*
X922933Y683964D01*
X922867Y683991D01*
X922795Y683999D01*
X922764Y684007D01*
X922741Y684005D01*
X922700Y684009D01*
X906100Y684009D01*
X906029Y683998D01*
X905958Y683996D01*
X905909Y683978D01*
X905857Y683970D01*
X905794Y683936D01*
X905727Y683911D01*
X905686Y683879D01*
X905640Y683854D01*
X905590Y683802D01*
X905534Y683758D01*
X905506Y683714D01*
X905470Y683676D01*
X905440Y683611D01*
X905401Y683551D01*
X905389Y683500D01*
X905367Y683453D01*
X905359Y683382D01*
X905341Y683312D01*
X905345Y683260D01*
X905340Y683209D01*
X905355Y683138D01*
X905361Y683067D01*
X905381Y683019D01*
X905392Y682968D01*
X905429Y682907D01*
X905457Y682841D01*
X905502Y682785D01*
X905518Y682757D01*
X905536Y682742D01*
X905562Y682710D01*
X911226Y677046D01*
X911226Y669154D01*
X905646Y663574D01*
X897754Y663574D01*
X892174Y669154D01*
X892174Y677046D01*
X897838Y682710D01*
X897880Y682768D01*
X897930Y682820D01*
X897951Y682867D01*
X897982Y682909D01*
X898003Y682978D01*
X898033Y683043D01*
X898039Y683095D01*
X898054Y683145D01*
X898052Y683216D01*
X898060Y683287D01*
X898049Y683338D01*
X898048Y683390D01*
X898023Y683458D01*
X898008Y683528D01*
X897981Y683573D01*
X897963Y683621D01*
X897919Y683677D01*
X897882Y683739D01*
X897842Y683773D01*
X897810Y683813D01*
X897749Y683852D01*
X897695Y683899D01*
X897647Y683918D01*
X897603Y683946D01*
X897533Y683964D01*
X897467Y683991D01*
X897395Y683999D01*
X897364Y684007D01*
X897341Y684005D01*
X897300Y684009D01*
X880700Y684009D01*
X880629Y683998D01*
X880558Y683996D01*
X880509Y683978D01*
X880457Y683970D01*
X880394Y683936D01*
X880327Y683911D01*
X880286Y683879D01*
X880240Y683854D01*
X880190Y683802D01*
X880134Y683758D01*
X880106Y683714D01*
X880070Y683676D01*
X880040Y683611D01*
X880001Y683551D01*
X879989Y683500D01*
X879967Y683453D01*
X879959Y683382D01*
X879941Y683312D01*
X879945Y683260D01*
X879940Y683209D01*
X879955Y683138D01*
X879961Y683067D01*
X879981Y683019D01*
X879992Y682968D01*
X880029Y682907D01*
X880057Y682841D01*
X880102Y682785D01*
X880118Y682757D01*
X880136Y682742D01*
X880162Y682710D01*
X885826Y677046D01*
X885826Y669154D01*
X880246Y663574D01*
X872354Y663574D01*
X866774Y669154D01*
X866774Y677046D01*
X872438Y682710D01*
X872480Y682768D01*
X872530Y682820D01*
X872551Y682867D01*
X872582Y682909D01*
X872603Y682978D01*
X872633Y683043D01*
X872639Y683095D01*
X872654Y683145D01*
X872652Y683216D01*
X872660Y683287D01*
X872649Y683338D01*
X872648Y683390D01*
X872623Y683458D01*
X872608Y683528D01*
X872581Y683573D01*
X872563Y683621D01*
X872519Y683677D01*
X872482Y683739D01*
X872442Y683773D01*
X872410Y683813D01*
X872349Y683852D01*
X872295Y683899D01*
X872247Y683918D01*
X872203Y683946D01*
X872133Y683964D01*
X872067Y683991D01*
X871995Y683999D01*
X871964Y684007D01*
X871941Y684005D01*
X871900Y684009D01*
X855300Y684009D01*
X855229Y683998D01*
X855158Y683996D01*
X855109Y683978D01*
X855057Y683970D01*
X854994Y683936D01*
X854927Y683911D01*
X854886Y683879D01*
X854840Y683854D01*
X854790Y683802D01*
X854734Y683758D01*
X854706Y683714D01*
X854670Y683676D01*
X854640Y683611D01*
X854601Y683551D01*
X854589Y683500D01*
X854567Y683453D01*
X854559Y683382D01*
X854541Y683312D01*
X854545Y683260D01*
X854540Y683209D01*
X854555Y683138D01*
X854561Y683067D01*
X854581Y683019D01*
X854592Y682968D01*
X854629Y682907D01*
X854657Y682841D01*
X854702Y682785D01*
X854718Y682757D01*
X854736Y682742D01*
X854762Y682710D01*
X860426Y677046D01*
X860426Y669154D01*
X854846Y663574D01*
X846954Y663574D01*
X841374Y669154D01*
X841374Y677046D01*
X847038Y682710D01*
X847080Y682768D01*
X847130Y682820D01*
X847151Y682867D01*
X847182Y682909D01*
X847203Y682978D01*
X847233Y683043D01*
X847239Y683095D01*
X847254Y683145D01*
X847252Y683216D01*
X847260Y683287D01*
X847249Y683338D01*
X847248Y683390D01*
X847223Y683458D01*
X847208Y683528D01*
X847181Y683573D01*
X847163Y683621D01*
X847119Y683677D01*
X847082Y683739D01*
X847042Y683773D01*
X847010Y683813D01*
X846949Y683852D01*
X846895Y683899D01*
X846847Y683918D01*
X846803Y683946D01*
X846733Y683964D01*
X846667Y683991D01*
X846595Y683999D01*
X846564Y684007D01*
X846541Y684005D01*
X846500Y684009D01*
X829900Y684009D01*
X829829Y683998D01*
X829758Y683996D01*
X829709Y683978D01*
X829657Y683970D01*
X829594Y683936D01*
X829527Y683911D01*
X829486Y683879D01*
X829440Y683854D01*
X829390Y683802D01*
X829334Y683758D01*
X829306Y683714D01*
X829270Y683676D01*
X829240Y683611D01*
X829201Y683551D01*
X829189Y683500D01*
X829167Y683453D01*
X829159Y683382D01*
X829141Y683312D01*
X829145Y683260D01*
X829140Y683209D01*
X829155Y683138D01*
X829161Y683067D01*
X829181Y683019D01*
X829192Y682968D01*
X829229Y682907D01*
X829257Y682841D01*
X829302Y682785D01*
X829318Y682757D01*
X829336Y682742D01*
X829362Y682710D01*
X835026Y677046D01*
X835026Y669154D01*
X829446Y663574D01*
X821554Y663574D01*
X815974Y669154D01*
X815974Y677046D01*
X821638Y682710D01*
X821680Y682768D01*
X821730Y682820D01*
X821751Y682867D01*
X821782Y682909D01*
X821803Y682978D01*
X821833Y683043D01*
X821839Y683095D01*
X821854Y683145D01*
X821852Y683216D01*
X821860Y683287D01*
X821849Y683338D01*
X821848Y683390D01*
X821823Y683458D01*
X821808Y683528D01*
X821781Y683573D01*
X821763Y683621D01*
X821719Y683677D01*
X821682Y683739D01*
X821642Y683773D01*
X821610Y683813D01*
X821549Y683852D01*
X821495Y683899D01*
X821447Y683918D01*
X821403Y683946D01*
X821333Y683964D01*
X821267Y683991D01*
X821195Y683999D01*
X821164Y684007D01*
X821141Y684005D01*
X821100Y684009D01*
X804500Y684009D01*
X804429Y683998D01*
X804358Y683996D01*
X804309Y683978D01*
X804257Y683970D01*
X804194Y683936D01*
X804127Y683911D01*
X804086Y683879D01*
X804040Y683854D01*
X803990Y683802D01*
X803934Y683758D01*
X803906Y683714D01*
X803870Y683676D01*
X803840Y683611D01*
X803801Y683551D01*
X803789Y683500D01*
X803767Y683453D01*
X803759Y683382D01*
X803741Y683312D01*
X803745Y683260D01*
X803740Y683209D01*
X803755Y683138D01*
X803761Y683067D01*
X803781Y683019D01*
X803792Y682968D01*
X803829Y682907D01*
X803857Y682841D01*
X803902Y682785D01*
X803918Y682757D01*
X803936Y682742D01*
X803962Y682710D01*
X809626Y677046D01*
X809626Y669154D01*
X804046Y663574D01*
X796154Y663574D01*
X790574Y669154D01*
X790574Y677046D01*
X796238Y682710D01*
X796280Y682768D01*
X796330Y682820D01*
X796351Y682867D01*
X796382Y682909D01*
X796403Y682978D01*
X796433Y683043D01*
X796439Y683095D01*
X796454Y683145D01*
X796452Y683216D01*
X796460Y683287D01*
X796449Y683338D01*
X796448Y683390D01*
X796423Y683458D01*
X796408Y683528D01*
X796381Y683573D01*
X796363Y683621D01*
X796319Y683677D01*
X796282Y683739D01*
X796242Y683773D01*
X796210Y683813D01*
X796149Y683852D01*
X796095Y683899D01*
X796047Y683918D01*
X796003Y683946D01*
X795933Y683964D01*
X795867Y683991D01*
X795795Y683999D01*
X795764Y684007D01*
X795741Y684005D01*
X795700Y684009D01*
X779100Y684009D01*
X779029Y683998D01*
X778958Y683996D01*
X778909Y683978D01*
X778857Y683970D01*
X778794Y683936D01*
X778727Y683911D01*
X778686Y683879D01*
X778640Y683854D01*
X778590Y683802D01*
X778534Y683758D01*
X778506Y683714D01*
X778470Y683676D01*
X778440Y683611D01*
X778401Y683551D01*
X778389Y683500D01*
X778367Y683453D01*
X778359Y683382D01*
X778341Y683312D01*
X778345Y683260D01*
X778340Y683209D01*
X778355Y683138D01*
X778361Y683067D01*
X778381Y683019D01*
X778392Y682968D01*
X778429Y682907D01*
X778457Y682841D01*
X778502Y682785D01*
X778518Y682757D01*
X778536Y682742D01*
X778562Y682710D01*
X784226Y677046D01*
X784226Y669154D01*
X778646Y663574D01*
X770754Y663574D01*
X765174Y669154D01*
X765174Y677046D01*
X770838Y682710D01*
X770880Y682768D01*
X770930Y682820D01*
X770951Y682867D01*
X770982Y682909D01*
X771003Y682978D01*
X771033Y683043D01*
X771039Y683095D01*
X771054Y683145D01*
X771052Y683216D01*
X771060Y683287D01*
X771049Y683338D01*
X771048Y683390D01*
X771023Y683458D01*
X771008Y683528D01*
X770981Y683573D01*
X770963Y683621D01*
X770919Y683677D01*
X770882Y683739D01*
X770842Y683773D01*
X770810Y683813D01*
X770749Y683852D01*
X770695Y683899D01*
X770647Y683918D01*
X770603Y683946D01*
X770533Y683964D01*
X770467Y683991D01*
X770395Y683999D01*
X770364Y684007D01*
X770341Y684005D01*
X770300Y684009D01*
X753700Y684009D01*
X753629Y683998D01*
X753558Y683996D01*
X753509Y683978D01*
X753457Y683970D01*
X753394Y683936D01*
X753327Y683911D01*
X753286Y683879D01*
X753240Y683854D01*
X753190Y683802D01*
X753134Y683758D01*
X753106Y683714D01*
X753070Y683676D01*
X753040Y683611D01*
X753001Y683551D01*
X752989Y683500D01*
X752967Y683453D01*
X752959Y683382D01*
X752941Y683312D01*
X752945Y683260D01*
X752940Y683209D01*
X752955Y683138D01*
X752961Y683067D01*
X752981Y683019D01*
X752992Y682968D01*
X753029Y682907D01*
X753057Y682841D01*
X753102Y682785D01*
X753118Y682757D01*
X753136Y682742D01*
X753162Y682710D01*
X758826Y677046D01*
X758826Y669154D01*
X753246Y663574D01*
X745354Y663574D01*
X739774Y669154D01*
X739774Y677046D01*
X745438Y682710D01*
X745480Y682768D01*
X745530Y682820D01*
X745551Y682867D01*
X745582Y682909D01*
X745603Y682978D01*
X745633Y683043D01*
X745639Y683095D01*
X745654Y683145D01*
X745652Y683216D01*
X745660Y683287D01*
X745649Y683338D01*
X745648Y683390D01*
X745623Y683458D01*
X745608Y683528D01*
X745581Y683573D01*
X745563Y683621D01*
X745519Y683677D01*
X745482Y683739D01*
X745442Y683773D01*
X745410Y683813D01*
X745349Y683852D01*
X745295Y683899D01*
X745247Y683918D01*
X745203Y683946D01*
X745133Y683964D01*
X745067Y683991D01*
X744995Y683999D01*
X744964Y684007D01*
X744941Y684005D01*
X744900Y684009D01*
X728300Y684009D01*
X728229Y683998D01*
X728158Y683996D01*
X728109Y683978D01*
X728057Y683970D01*
X727994Y683936D01*
X727927Y683911D01*
X727886Y683879D01*
X727840Y683854D01*
X727790Y683802D01*
X727734Y683758D01*
X727706Y683714D01*
X727670Y683676D01*
X727640Y683611D01*
X727601Y683551D01*
X727589Y683500D01*
X727567Y683453D01*
X727559Y683382D01*
X727541Y683312D01*
X727545Y683260D01*
X727540Y683209D01*
X727555Y683138D01*
X727561Y683067D01*
X727581Y683019D01*
X727592Y682968D01*
X727629Y682907D01*
X727657Y682841D01*
X727702Y682785D01*
X727718Y682757D01*
X727736Y682742D01*
X727762Y682710D01*
X733426Y677046D01*
X733426Y669154D01*
X727846Y663574D01*
X719954Y663574D01*
X714374Y669154D01*
X714374Y677046D01*
X720038Y682710D01*
X720080Y682768D01*
X720130Y682820D01*
X720151Y682867D01*
X720182Y682909D01*
X720203Y682978D01*
X720233Y683043D01*
X720239Y683095D01*
X720254Y683145D01*
X720252Y683216D01*
X720260Y683287D01*
X720249Y683338D01*
X720248Y683390D01*
X720223Y683458D01*
X720208Y683528D01*
X720181Y683573D01*
X720163Y683621D01*
X720119Y683677D01*
X720082Y683739D01*
X720042Y683773D01*
X720010Y683813D01*
X719949Y683852D01*
X719895Y683899D01*
X719847Y683918D01*
X719803Y683946D01*
X719733Y683964D01*
X719667Y683991D01*
X719595Y683999D01*
X719564Y684007D01*
X719541Y684005D01*
X719500Y684009D01*
X702900Y684009D01*
X702829Y683998D01*
X702758Y683996D01*
X702709Y683978D01*
X702657Y683970D01*
X702594Y683936D01*
X702527Y683911D01*
X702486Y683879D01*
X702440Y683854D01*
X702390Y683802D01*
X702334Y683758D01*
X702306Y683714D01*
X702270Y683676D01*
X702240Y683611D01*
X702201Y683551D01*
X702189Y683500D01*
X702167Y683453D01*
X702159Y683382D01*
X702141Y683312D01*
X702145Y683260D01*
X702140Y683209D01*
X702155Y683138D01*
X702161Y683067D01*
X702181Y683019D01*
X702192Y682968D01*
X702229Y682907D01*
X702257Y682841D01*
X702302Y682785D01*
X702318Y682757D01*
X702336Y682742D01*
X702362Y682710D01*
X708026Y677046D01*
X708026Y669154D01*
X702446Y663574D01*
X694554Y663574D01*
X688974Y669154D01*
X688974Y677046D01*
X694638Y682710D01*
X694680Y682768D01*
X694730Y682820D01*
X694751Y682867D01*
X694782Y682909D01*
X694803Y682978D01*
X694833Y683043D01*
X694839Y683095D01*
X694854Y683145D01*
X694852Y683216D01*
X694860Y683287D01*
X694849Y683338D01*
X694848Y683390D01*
X694823Y683458D01*
X694808Y683528D01*
X694781Y683573D01*
X694763Y683621D01*
X694719Y683677D01*
X694682Y683739D01*
X694642Y683773D01*
X694610Y683813D01*
X694549Y683852D01*
X694495Y683899D01*
X694447Y683918D01*
X694403Y683946D01*
X694333Y683964D01*
X694267Y683991D01*
X694195Y683999D01*
X694164Y684007D01*
X694141Y684005D01*
X694100Y684009D01*
X677500Y684009D01*
X677429Y683998D01*
X677358Y683996D01*
X677309Y683978D01*
X677257Y683970D01*
X677194Y683936D01*
X677127Y683911D01*
X677086Y683879D01*
X677040Y683854D01*
X676990Y683802D01*
X676934Y683758D01*
X676906Y683714D01*
X676870Y683676D01*
X676840Y683611D01*
X676801Y683551D01*
X676789Y683500D01*
X676767Y683453D01*
X676759Y683382D01*
X676741Y683312D01*
X676745Y683260D01*
X676740Y683209D01*
X676755Y683138D01*
X676761Y683067D01*
X676781Y683019D01*
X676792Y682968D01*
X676829Y682907D01*
X676857Y682841D01*
X676902Y682785D01*
X676918Y682757D01*
X676936Y682742D01*
X676962Y682710D01*
X682626Y677046D01*
X682626Y669154D01*
X677046Y663574D01*
X669154Y663574D01*
X663574Y669154D01*
X663574Y677046D01*
X669238Y682710D01*
X669280Y682768D01*
X669330Y682820D01*
X669351Y682867D01*
X669382Y682909D01*
X669403Y682978D01*
X669433Y683043D01*
X669439Y683095D01*
X669454Y683145D01*
X669452Y683216D01*
X669460Y683287D01*
X669449Y683338D01*
X669448Y683390D01*
X669423Y683458D01*
X669408Y683528D01*
X669381Y683573D01*
X669363Y683621D01*
X669319Y683677D01*
X669282Y683739D01*
X669242Y683773D01*
X669210Y683813D01*
X669149Y683852D01*
X669095Y683899D01*
X669047Y683918D01*
X669003Y683946D01*
X668933Y683964D01*
X668867Y683991D01*
X668795Y683999D01*
X668764Y684007D01*
X668741Y684005D01*
X668700Y684009D01*
X652100Y684009D01*
X652029Y683998D01*
X651958Y683996D01*
X651909Y683978D01*
X651857Y683970D01*
X651794Y683936D01*
X651727Y683911D01*
X651686Y683879D01*
X651640Y683854D01*
X651590Y683802D01*
X651534Y683758D01*
X651506Y683714D01*
X651470Y683676D01*
X651440Y683611D01*
X651401Y683551D01*
X651389Y683500D01*
X651367Y683453D01*
X651359Y683382D01*
X651341Y683312D01*
X651345Y683260D01*
X651340Y683209D01*
X651355Y683138D01*
X651361Y683067D01*
X651381Y683019D01*
X651392Y682968D01*
X651429Y682907D01*
X651457Y682841D01*
X651502Y682785D01*
X651518Y682757D01*
X651536Y682742D01*
X651562Y682710D01*
X657226Y677046D01*
X657226Y669154D01*
X651646Y663574D01*
X643754Y663574D01*
X638174Y669154D01*
X638174Y677046D01*
X643838Y682710D01*
X643880Y682768D01*
X643930Y682820D01*
X643951Y682867D01*
X643982Y682909D01*
X644003Y682978D01*
X644033Y683043D01*
X644039Y683095D01*
X644054Y683145D01*
X644052Y683216D01*
X644060Y683287D01*
X644049Y683338D01*
X644048Y683390D01*
X644023Y683458D01*
X644008Y683528D01*
X643981Y683573D01*
X643963Y683621D01*
X643919Y683677D01*
X643882Y683739D01*
X643842Y683773D01*
X643810Y683813D01*
X643749Y683852D01*
X643695Y683899D01*
X643647Y683918D01*
X643603Y683946D01*
X643533Y683964D01*
X643467Y683991D01*
X643395Y683999D01*
X643364Y684007D01*
X643341Y684005D01*
X643300Y684009D01*
X626700Y684009D01*
X626629Y683998D01*
X626558Y683996D01*
X626509Y683978D01*
X626457Y683970D01*
X626394Y683936D01*
X626327Y683911D01*
X626286Y683879D01*
X626240Y683854D01*
X626190Y683802D01*
X626134Y683758D01*
X626106Y683714D01*
X626070Y683676D01*
X626040Y683611D01*
X626001Y683551D01*
X625989Y683500D01*
X625967Y683453D01*
X625959Y683382D01*
X625941Y683312D01*
X625945Y683260D01*
X625940Y683209D01*
X625955Y683138D01*
X625961Y683067D01*
X625981Y683019D01*
X625992Y682968D01*
X626029Y682907D01*
X626057Y682841D01*
X626102Y682785D01*
X626118Y682757D01*
X626136Y682742D01*
X626162Y682710D01*
X631826Y677046D01*
X631826Y669154D01*
X626246Y663574D01*
X618354Y663574D01*
X612774Y669154D01*
X612774Y677046D01*
X618438Y682710D01*
X618480Y682768D01*
X618530Y682820D01*
X618551Y682867D01*
X618582Y682909D01*
X618603Y682978D01*
X618633Y683043D01*
X618639Y683095D01*
X618654Y683145D01*
X618652Y683216D01*
X618660Y683287D01*
X618649Y683338D01*
X618648Y683390D01*
X618623Y683458D01*
X618608Y683528D01*
X618581Y683573D01*
X618563Y683621D01*
X618519Y683677D01*
X618482Y683739D01*
X618442Y683773D01*
X618410Y683813D01*
X618349Y683852D01*
X618295Y683899D01*
X618247Y683918D01*
X618203Y683946D01*
X618133Y683964D01*
X618067Y683991D01*
X617995Y683999D01*
X617964Y684007D01*
X617941Y684005D01*
X617900Y684009D01*
X601300Y684009D01*
X601229Y683998D01*
X601158Y683996D01*
X601109Y683978D01*
X601057Y683970D01*
X600994Y683936D01*
X600927Y683911D01*
X600886Y683879D01*
X600840Y683854D01*
X600790Y683802D01*
X600734Y683758D01*
X600706Y683714D01*
X600670Y683676D01*
X600640Y683611D01*
X600601Y683551D01*
X600589Y683500D01*
X600567Y683453D01*
X600559Y683382D01*
X600541Y683312D01*
X600545Y683260D01*
X600540Y683209D01*
X600555Y683138D01*
X600561Y683067D01*
X600581Y683019D01*
X600592Y682968D01*
X600629Y682907D01*
X600657Y682841D01*
X600702Y682785D01*
X600718Y682757D01*
X600736Y682742D01*
X600762Y682710D01*
X606426Y677046D01*
X606426Y669154D01*
X600846Y663574D01*
X592954Y663574D01*
X587374Y669154D01*
X587374Y677046D01*
X593038Y682710D01*
X593080Y682768D01*
X593130Y682820D01*
X593151Y682867D01*
X593182Y682909D01*
X593203Y682978D01*
X593233Y683043D01*
X593239Y683095D01*
X593254Y683145D01*
X593252Y683216D01*
X593260Y683287D01*
X593249Y683338D01*
X593248Y683390D01*
X593223Y683458D01*
X593208Y683528D01*
X593181Y683573D01*
X593163Y683621D01*
X593119Y683677D01*
X593082Y683739D01*
X593042Y683773D01*
X593010Y683813D01*
X592949Y683852D01*
X592895Y683899D01*
X592847Y683918D01*
X592803Y683946D01*
X592733Y683964D01*
X592667Y683991D01*
X592595Y683999D01*
X592564Y684007D01*
X592541Y684005D01*
X592500Y684009D01*
X575900Y684009D01*
X575829Y683998D01*
X575758Y683996D01*
X575709Y683978D01*
X575657Y683970D01*
X575594Y683936D01*
X575527Y683911D01*
X575486Y683879D01*
X575440Y683854D01*
X575390Y683802D01*
X575334Y683758D01*
X575306Y683714D01*
X575270Y683676D01*
X575240Y683611D01*
X575201Y683551D01*
X575189Y683500D01*
X575167Y683453D01*
X575159Y683382D01*
X575141Y683312D01*
X575145Y683260D01*
X575140Y683209D01*
X575155Y683138D01*
X575161Y683067D01*
X575181Y683019D01*
X575192Y682968D01*
X575229Y682907D01*
X575257Y682841D01*
X575302Y682785D01*
X575318Y682757D01*
X575336Y682742D01*
X575362Y682710D01*
X581026Y677046D01*
X581026Y669154D01*
X575446Y663574D01*
X567554Y663574D01*
X561974Y669154D01*
X561974Y677046D01*
X567638Y682710D01*
X567680Y682768D01*
X567730Y682820D01*
X567751Y682867D01*
X567782Y682909D01*
X567803Y682978D01*
X567833Y683043D01*
X567839Y683095D01*
X567854Y683145D01*
X567852Y683216D01*
X567860Y683287D01*
X567849Y683338D01*
X567848Y683390D01*
X567823Y683458D01*
X567808Y683528D01*
X567781Y683573D01*
X567763Y683621D01*
X567719Y683677D01*
X567682Y683739D01*
X567642Y683773D01*
X567610Y683813D01*
X567549Y683852D01*
X567495Y683899D01*
X567447Y683918D01*
X567403Y683946D01*
X567333Y683964D01*
X567267Y683991D01*
X567195Y683999D01*
X567164Y684007D01*
X567141Y684005D01*
X567100Y684009D01*
X550500Y684009D01*
X550429Y683998D01*
X550358Y683996D01*
X550309Y683978D01*
X550257Y683970D01*
X550194Y683936D01*
X550127Y683911D01*
X550086Y683879D01*
X550040Y683854D01*
X549990Y683802D01*
X549934Y683758D01*
X549906Y683714D01*
X549870Y683676D01*
X549840Y683611D01*
X549801Y683551D01*
X549789Y683500D01*
X549767Y683453D01*
X549759Y683382D01*
X549741Y683312D01*
X549745Y683260D01*
X549740Y683209D01*
X549755Y683138D01*
X549761Y683067D01*
X549781Y683019D01*
X549792Y682968D01*
X549829Y682907D01*
X549857Y682841D01*
X549902Y682785D01*
X549918Y682757D01*
X549936Y682742D01*
X549962Y682710D01*
X555626Y677046D01*
X555626Y669154D01*
X550046Y663574D01*
X542154Y663574D01*
X536574Y669154D01*
X536574Y677046D01*
X542238Y682710D01*
X542280Y682768D01*
X542330Y682820D01*
X542351Y682867D01*
X542382Y682909D01*
X542403Y682978D01*
X542433Y683043D01*
X542439Y683095D01*
X542454Y683145D01*
X542452Y683216D01*
X542460Y683287D01*
X542449Y683338D01*
X542448Y683390D01*
X542423Y683458D01*
X542408Y683528D01*
X542381Y683573D01*
X542363Y683621D01*
X542319Y683677D01*
X542282Y683739D01*
X542242Y683773D01*
X542210Y683813D01*
X542149Y683852D01*
X542095Y683899D01*
X542047Y683918D01*
X542003Y683946D01*
X541933Y683964D01*
X541867Y683991D01*
X541795Y683999D01*
X541764Y684007D01*
X541741Y684005D01*
X541700Y684009D01*
X525393Y684009D01*
X525322Y683998D01*
X525250Y683996D01*
X525201Y683978D01*
X525150Y683970D01*
X525086Y683936D01*
X525019Y683911D01*
X524978Y683879D01*
X524932Y683854D01*
X524883Y683802D01*
X524827Y683758D01*
X524799Y683714D01*
X524763Y683676D01*
X524733Y683611D01*
X524694Y683551D01*
X524681Y683500D01*
X524659Y683453D01*
X524652Y683382D01*
X524634Y683312D01*
X524638Y683260D01*
X524632Y683209D01*
X524648Y683138D01*
X524653Y683067D01*
X524674Y683019D01*
X524685Y682968D01*
X524721Y682907D01*
X524749Y682841D01*
X524794Y682785D01*
X524811Y682757D01*
X524829Y682742D01*
X524854Y682710D01*
X530380Y677184D01*
X530380Y669293D01*
X524800Y663713D01*
X516908Y663713D01*
X511328Y669293D01*
X511328Y677184D01*
X516854Y682710D01*
X516896Y682768D01*
X516945Y682820D01*
X516967Y682867D01*
X516997Y682909D01*
X517018Y682978D01*
X517049Y683043D01*
X517054Y683095D01*
X517070Y683145D01*
X517068Y683216D01*
X517076Y683287D01*
X517065Y683338D01*
X517063Y683390D01*
X517039Y683458D01*
X517024Y683528D01*
X516997Y683573D01*
X516979Y683621D01*
X516934Y683677D01*
X516897Y683739D01*
X516858Y683773D01*
X516825Y683813D01*
X516765Y683852D01*
X516710Y683899D01*
X516662Y683918D01*
X516618Y683946D01*
X516549Y683964D01*
X516482Y683991D01*
X516411Y683999D01*
X516380Y684007D01*
X516356Y684005D01*
X516316Y684009D01*
X474300Y684009D01*
X474229Y683998D01*
X474158Y683996D01*
X474109Y683978D01*
X474057Y683970D01*
X473994Y683936D01*
X473927Y683911D01*
X473886Y683879D01*
X473840Y683854D01*
X473790Y683802D01*
X473734Y683758D01*
X473706Y683714D01*
X473670Y683676D01*
X473640Y683611D01*
X473601Y683551D01*
X473589Y683500D01*
X473567Y683453D01*
X473559Y683382D01*
X473541Y683312D01*
X473545Y683260D01*
X473540Y683209D01*
X473555Y683138D01*
X473561Y683067D01*
X473581Y683019D01*
X473592Y682968D01*
X473629Y682907D01*
X473657Y682841D01*
X473702Y682785D01*
X473718Y682757D01*
X473736Y682742D01*
X473762Y682710D01*
X479426Y677046D01*
X479426Y669154D01*
X473846Y663574D01*
X465954Y663574D01*
X460374Y669154D01*
X460374Y677046D01*
X466038Y682710D01*
X466080Y682768D01*
X466130Y682820D01*
X466151Y682867D01*
X466182Y682909D01*
X466203Y682978D01*
X466233Y683043D01*
X466239Y683095D01*
X466254Y683145D01*
X466252Y683216D01*
X466260Y683287D01*
X466249Y683338D01*
X466248Y683390D01*
X466223Y683458D01*
X466208Y683528D01*
X466181Y683573D01*
X466163Y683621D01*
X466119Y683677D01*
X466082Y683739D01*
X466042Y683773D01*
X466010Y683813D01*
X465949Y683852D01*
X465895Y683899D01*
X465847Y683918D01*
X465803Y683946D01*
X465733Y683964D01*
X465667Y683991D01*
X465595Y683999D01*
X465564Y684007D01*
X465541Y684005D01*
X465500Y684009D01*
X454002Y684009D01*
X453982Y684006D01*
X453963Y684008D01*
X453861Y683986D01*
X453759Y683970D01*
X453742Y683960D01*
X453722Y683956D01*
X453633Y683903D01*
X453542Y683854D01*
X453528Y683840D01*
X453511Y683830D01*
X453444Y683751D01*
X453372Y683676D01*
X453364Y683658D01*
X453351Y683643D01*
X453312Y683547D01*
X453269Y683453D01*
X453267Y683433D01*
X453259Y683415D01*
X453241Y683248D01*
X453241Y384302D01*
X453244Y384282D01*
X453242Y384263D01*
X453264Y384161D01*
X453280Y384059D01*
X453290Y384042D01*
X453294Y384022D01*
X453347Y383933D01*
X453396Y383842D01*
X453410Y383828D01*
X453420Y383811D01*
X453499Y383744D01*
X453574Y383672D01*
X453592Y383664D01*
X453607Y383651D01*
X453703Y383612D01*
X453797Y383569D01*
X453817Y383567D01*
X453835Y383559D01*
X454002Y383541D01*
X464750Y383541D01*
X464821Y383552D01*
G37*
%LPC*%
G36*
X572221Y431799D02*
X572221Y431799D01*
X568860Y433191D01*
X566287Y435764D01*
X564895Y439125D01*
X564895Y458003D01*
X566287Y461364D01*
X568860Y463937D01*
X572221Y465329D01*
X575859Y465329D01*
X579220Y463937D01*
X581793Y461364D01*
X583185Y458003D01*
X583185Y439125D01*
X581793Y435764D01*
X579220Y433191D01*
X575859Y431799D01*
X572221Y431799D01*
G37*
%LPD*%
%LPC*%
G36*
X546821Y431799D02*
X546821Y431799D01*
X543460Y433191D01*
X540887Y435764D01*
X539495Y439125D01*
X539495Y458003D01*
X540887Y461364D01*
X543460Y463937D01*
X546821Y465329D01*
X550459Y465329D01*
X553820Y463937D01*
X556393Y461364D01*
X557785Y458003D01*
X557785Y439125D01*
X556393Y435764D01*
X553820Y433191D01*
X550459Y431799D01*
X546821Y431799D01*
G37*
%LPD*%
%LPC*%
G36*
X710332Y526991D02*
X710332Y526991D01*
X707667Y529656D01*
X707667Y533424D01*
X710332Y536088D01*
X712538Y536088D01*
X712549Y536090D01*
X712561Y536089D01*
X712671Y536110D01*
X712781Y536128D01*
X712791Y536134D01*
X712802Y536136D01*
X712900Y536191D01*
X712998Y536243D01*
X713006Y536252D01*
X713016Y536257D01*
X713134Y536377D01*
X715270Y539069D01*
X715293Y539111D01*
X715325Y539147D01*
X715353Y539218D01*
X715390Y539284D01*
X715399Y539331D01*
X715417Y539375D01*
X715421Y539413D01*
X715981Y539973D01*
X715998Y539997D01*
X716039Y540038D01*
X716534Y540662D01*
X716568Y540677D01*
X716641Y540697D01*
X716681Y540725D01*
X716725Y540743D01*
X716754Y540767D01*
X717547Y540767D01*
X717576Y540771D01*
X717634Y540772D01*
X718425Y540863D01*
X718460Y540849D01*
X718526Y540812D01*
X718573Y540803D01*
X718617Y540785D01*
X718746Y540771D01*
X718767Y540767D01*
X718774Y540768D01*
X718784Y540767D01*
X780399Y540767D01*
X780489Y540781D01*
X780580Y540789D01*
X780609Y540801D01*
X780641Y540806D01*
X780722Y540849D01*
X780806Y540885D01*
X780838Y540911D01*
X780859Y540922D01*
X780881Y540945D01*
X780937Y540990D01*
X782976Y543029D01*
X786744Y543029D01*
X789409Y540364D01*
X789409Y536596D01*
X786744Y533931D01*
X782976Y533931D01*
X780937Y535970D01*
X780863Y536023D01*
X780793Y536083D01*
X780763Y536095D01*
X780737Y536114D01*
X780650Y536141D01*
X780565Y536175D01*
X780524Y536179D01*
X780502Y536186D01*
X780470Y536185D01*
X780399Y536193D01*
X719194Y536193D01*
X719183Y536191D01*
X719171Y536193D01*
X719061Y536171D01*
X718952Y536154D01*
X718941Y536148D01*
X718930Y536146D01*
X718832Y536090D01*
X718734Y536038D01*
X718726Y536030D01*
X718716Y536024D01*
X718598Y535905D01*
X716930Y533802D01*
X716906Y533760D01*
X716875Y533724D01*
X716847Y533653D01*
X716810Y533587D01*
X716801Y533540D01*
X716783Y533496D01*
X716769Y533367D01*
X716765Y533345D01*
X716766Y533339D01*
X716765Y533329D01*
X716765Y529656D01*
X714100Y526991D01*
X710332Y526991D01*
G37*
%LPD*%
%LPC*%
G36*
X574950Y520215D02*
X574950Y520215D01*
X572285Y522880D01*
X572285Y525255D01*
X572271Y525346D01*
X572263Y525436D01*
X572251Y525466D01*
X572246Y525498D01*
X572203Y525579D01*
X572167Y525663D01*
X572141Y525695D01*
X572130Y525716D01*
X572107Y525738D01*
X572062Y525794D01*
X561608Y536248D01*
X561534Y536301D01*
X561464Y536361D01*
X561434Y536373D01*
X561408Y536392D01*
X561321Y536419D01*
X561236Y536453D01*
X561195Y536457D01*
X561173Y536464D01*
X561141Y536463D01*
X561069Y536471D01*
X558186Y536471D01*
X555521Y539136D01*
X555521Y542904D01*
X558186Y545569D01*
X561954Y545569D01*
X564619Y542904D01*
X564619Y540021D01*
X564634Y539930D01*
X564641Y539840D01*
X564653Y539810D01*
X564658Y539778D01*
X564701Y539697D01*
X564737Y539613D01*
X564763Y539581D01*
X564774Y539560D01*
X564797Y539538D01*
X564842Y539482D01*
X574788Y529536D01*
X574862Y529483D01*
X574932Y529423D01*
X574962Y529411D01*
X574988Y529392D01*
X575075Y529365D01*
X575160Y529331D01*
X575201Y529327D01*
X575223Y529320D01*
X575255Y529321D01*
X575327Y529313D01*
X578718Y529313D01*
X581383Y526648D01*
X581383Y522880D01*
X578718Y520215D01*
X574950Y520215D01*
G37*
%LPD*%
D10*
X647700Y393900D03*
D11*
X520854Y673239D03*
D12*
X723900Y673100D03*
X698500Y673100D03*
X673100Y673100D03*
X647700Y673100D03*
X622300Y673100D03*
X596900Y673100D03*
X571500Y673100D03*
X546100Y673100D03*
D13*
X673100Y393700D03*
X698500Y393700D03*
X723900Y393700D03*
X749300Y393700D03*
X774700Y393700D03*
X800100Y393700D03*
X825500Y393700D03*
X520700Y393700D03*
X546100Y393700D03*
X571500Y393700D03*
X596900Y393700D03*
X622300Y393700D03*
D12*
X876300Y673100D03*
X850900Y673100D03*
X825500Y673100D03*
X800100Y673100D03*
X1079500Y673100D03*
X1054100Y673100D03*
X1028700Y673100D03*
X1003300Y673100D03*
X977900Y673100D03*
X952500Y673100D03*
X927100Y673100D03*
X901700Y673100D03*
D10*
X850900Y393700D03*
X876300Y393700D03*
X774700Y673100D03*
X749300Y673100D03*
X1003300Y393700D03*
X1079500Y393700D03*
X1104900Y393700D03*
X1054100Y393700D03*
X1028700Y393700D03*
X901700Y393700D03*
X927100Y393700D03*
X952500Y393700D03*
X977900Y393700D03*
D11*
X495300Y673100D03*
X495300Y393700D03*
X469900Y393700D03*
X469900Y673100D03*
X1104900Y673100D03*
D14*
X574040Y456184D02*
X574040Y440944D01*
X548640Y440944D02*
X548640Y456184D01*
D15*
X784860Y538480D03*
D16*
X717722Y538480D01*
X712216Y531540D01*
D15*
X712216Y531540D03*
X892302Y407924D03*
D16*
X892429Y407797D01*
X992448Y393700D02*
X1003300Y393700D01*
X992448Y393700D02*
X978351Y407797D01*
X892429Y407797D01*
X1078992Y394716D02*
X1079500Y393700D01*
X576326Y524764D02*
X560070Y541020D01*
X576326Y524764D02*
X576834Y524764D01*
D15*
X576834Y524764D03*
X560070Y541020D03*
D16*
X820928Y393700D02*
X825500Y393700D01*
D15*
X595630Y584200D03*
X589280Y590550D03*
X676910Y554990D03*
X676910Y509270D03*
X699770Y532130D03*
X654050Y532130D03*
X676910Y532130D03*
X676910Y543560D03*
X688340Y532130D03*
X676910Y520700D03*
X665480Y532130D03*
X665480Y520700D03*
X688340Y520700D03*
X688340Y543560D03*
X665480Y543560D03*
X703580Y459740D03*
X702310Y478790D03*
X726440Y621538D03*
X765810Y586740D03*
X760984Y473456D03*
X659638Y442214D03*
X643636Y459232D03*
X585724Y486664D03*
X562610Y511556D03*
X476250Y567690D03*
X476250Y580390D03*
X539750Y567690D03*
X539750Y554990D03*
X539750Y580390D03*
X527050Y554990D03*
X514350Y554990D03*
X501650Y554990D03*
X488950Y554990D03*
X476250Y554990D03*
X501650Y593090D03*
X501650Y605790D03*
X514350Y593090D03*
X514350Y605790D03*
X527050Y593090D03*
X527050Y605790D03*
X539750Y605790D03*
X539750Y593090D03*
X1109980Y502920D03*
X1097280Y502920D03*
X1096010Y565150D03*
X1109980Y565150D03*
X567436Y546608D03*
X689610Y495300D03*
X643890Y547370D03*
X688340Y568960D03*
X701802Y584962D03*
X627634Y569468D03*
X508000Y469392D03*
X776986Y473964D03*
X754888Y434340D03*
X665988Y494538D03*
X636270Y523494D03*
X650748Y509778D03*
X662940Y567436D03*
X831342Y584200D03*
X850392Y474472D03*
X905256Y627634D03*
X942594Y437134D03*
X1040892Y627634D03*
X1064514Y437134D03*
X780288Y611124D03*
X753618Y633222D03*
X679450Y437896D03*
X733552Y429514D03*
X459232Y621030D03*
X559816Y647446D03*
X576580Y602488D03*
X662940Y634238D03*
X612140Y634238D03*
X628142Y605028D03*
X652780Y603504D03*
X803910Y441452D03*
X866394Y422148D03*
X567436Y563372D03*
X494538Y533654D03*
X508254Y533654D03*
X522732Y533654D03*
X496316Y469646D03*
X519938Y469646D03*
X569214Y517906D03*
X585724Y473964D03*
X460756Y432308D03*
M02*
