M48
;GenerationSoftware,Autodesk,EAGLE,9.6.2*%
;CreationDate,2021-07-09T10:07:59Z*%
FMAT,2
ICI,OFF
METRIC,TZ,000.000
T3C0.300
T2C0.914
T1C1.016
%
G90
M71
T1
X54864Y44856
X57404Y44856
T2
X64770Y39390
X52085Y67324
X72390Y67310
X69850Y67310
X67310Y67310
X64770Y67310
X62230Y67310
X59690Y67310
X57150Y67310
X54610Y67310
X67310Y39370
X69850Y39370
X72390Y39370
X74930Y39370
X77470Y39370
X80010Y39370
X82550Y39370
X54610Y39370
X57150Y39370
X59690Y39370
X62230Y39370
X87630Y67310
X85090Y67310
X82550Y67310
X80010Y67310
X107950Y67310
X105410Y67310
X102870Y67310
X100330Y67310
X97790Y67310
X95250Y67310
X92710Y67310
X90170Y67310
X85090Y39370
X77470Y67310
X74930Y67310
X100330Y39370
X107950Y39370
X110490Y39370
X105410Y39370
X102870Y39370
X90170Y39370
X92710Y39370
X95250Y39370
X97790Y39370
X49530Y67310
X49530Y39370
X46990Y39370
X46990Y67310
X110490Y67310
X52070Y39370
X87630Y39370
T3
X68834Y56896
X70180Y58496
X62763Y56947
X50800Y46939
X77699Y47396
X75489Y43434
X66599Y49454
X63627Y52349
X65075Y50978
X66294Y56744
X83134Y58420
X85039Y47447
X90526Y62763
X94259Y43713
X104089Y62763
X106451Y43713
X78029Y61112
X75362Y63322
X67945Y43790
X68834Y54356
X45923Y62103
X55982Y64745
X57658Y60249
X66294Y63424
X61214Y63424
X62814Y60503
X65278Y60350
X80391Y44145
X86639Y42215
X56744Y56337
X49454Y53365
X50825Y53365
X52273Y53365
X49632Y46965
X51994Y46965
X56921Y51791
X58572Y47396
X46076Y43231
X78486Y53848
X71222Y53154
X89230Y40792
X57683Y52476
X56007Y54102
X59563Y58420
X58928Y59055
X67691Y55499
X67691Y50927
X69977Y53213
X65405Y53213
X67691Y53213
X67691Y54356
X68834Y53213
X67691Y52070
X66548Y53213
X66548Y52070
X68834Y52070
X66548Y54356
X70358Y45974
X70231Y47879
X72644Y62154
X76581Y58674
X76098Y47346
X65964Y44221
X64364Y45923
X58572Y48666
X56261Y51156
X47625Y56769
X47625Y58039
X53975Y56769
X53975Y55499
X53975Y58039
X52705Y55499
X51435Y55499
X73355Y42951
X50165Y55499
X48895Y55499
X47625Y55499
X50165Y59309
X50165Y60579
X51435Y59309
X51435Y60579
X52705Y59309
X52705Y60579
X53975Y60579
X53975Y59309
X110998Y50292
X109728Y50292
X109601Y56515
X110998Y56515
X56744Y54661
X68961Y49530
X64389Y54737
M30