G04 EAGLE Gerber RS-274X export*
G75*
%MOMM*%
%FSLAX34Y34*%
%LPD*%
%INTop Paste*%
%IPPOS*%
%AMOC8*
5,1,8,0,0,1.08239X$1,22.5*%
G01*
%ADD10R,0.240000X0.600000*%
%ADD11R,1.500000X2.000000*%
%ADD12R,1.050000X1.080000*%
%ADD13R,0.925000X0.740000*%
%ADD14R,1.000000X1.100000*%
%ADD15R,1.200000X1.200000*%
%ADD16R,1.000000X1.800000*%
%ADD17R,1.300000X1.100000*%
%ADD18R,1.219200X2.235200*%
%ADD19R,3.600000X2.200000*%
%ADD20R,3.302000X4.318000*%
%ADD21R,1.000000X1.000000*%

G36*
X676819Y523700D02*
X676819Y523700D01*
X676832Y523697D01*
X676925Y523706D01*
X676936Y523712D01*
X676949Y523711D01*
X677039Y523738D01*
X677048Y523746D01*
X677061Y523747D01*
X677144Y523791D01*
X677151Y523801D01*
X677164Y523805D01*
X677236Y523864D01*
X677239Y523870D01*
X677246Y523872D01*
X684987Y531614D01*
X684989Y531620D01*
X684995Y531623D01*
X685055Y531695D01*
X685058Y531707D01*
X685068Y531716D01*
X685112Y531798D01*
X685113Y531810D01*
X685122Y531821D01*
X685149Y531910D01*
X685148Y531922D01*
X685154Y531934D01*
X685163Y532027D01*
X685162Y532031D01*
X685162Y532033D01*
X685159Y532039D01*
X685163Y532052D01*
X685154Y532145D01*
X685148Y532156D01*
X685149Y532169D01*
X685122Y532259D01*
X685114Y532268D01*
X685112Y532281D01*
X685068Y532364D01*
X685059Y532371D01*
X685055Y532384D01*
X684995Y532456D01*
X684990Y532459D01*
X684987Y532466D01*
X677246Y540207D01*
X677240Y540209D01*
X677236Y540215D01*
X677164Y540275D01*
X677153Y540278D01*
X677144Y540288D01*
X677061Y540332D01*
X677049Y540333D01*
X677039Y540342D01*
X676949Y540369D01*
X676937Y540368D01*
X676925Y540374D01*
X676832Y540383D01*
X676821Y540379D01*
X676807Y540383D01*
X676715Y540374D01*
X676704Y540368D01*
X676690Y540369D01*
X676601Y540342D01*
X676592Y540334D01*
X676578Y540332D01*
X676496Y540288D01*
X676488Y540279D01*
X676475Y540275D01*
X676403Y540215D01*
X676400Y540210D01*
X676394Y540207D01*
X668652Y532466D01*
X668650Y532460D01*
X668644Y532456D01*
X668585Y532384D01*
X668582Y532373D01*
X668571Y532364D01*
X668527Y532281D01*
X668526Y532269D01*
X668518Y532259D01*
X668491Y532169D01*
X668492Y532157D01*
X668486Y532145D01*
X668477Y532052D01*
X668480Y532041D01*
X668477Y532027D01*
X668486Y531934D01*
X668492Y531924D01*
X668491Y531910D01*
X668518Y531821D01*
X668526Y531812D01*
X668527Y531798D01*
X668571Y531716D01*
X668581Y531708D01*
X668585Y531695D01*
X668644Y531623D01*
X668650Y531620D01*
X668652Y531614D01*
X676394Y523872D01*
X676400Y523870D01*
X676403Y523864D01*
X676475Y523805D01*
X676487Y523801D01*
X676496Y523791D01*
X676578Y523747D01*
X676590Y523746D01*
X676601Y523738D01*
X676690Y523711D01*
X676702Y523712D01*
X676715Y523706D01*
X676807Y523697D01*
X676819Y523700D01*
G37*
G36*
X657267Y523706D02*
X657267Y523706D01*
X657278Y523712D01*
X657292Y523711D01*
X657381Y523738D01*
X657390Y523746D01*
X657404Y523747D01*
X657486Y523791D01*
X657494Y523801D01*
X657507Y523805D01*
X657579Y523864D01*
X657582Y523870D01*
X657588Y523872D01*
X665329Y531614D01*
X665332Y531620D01*
X665338Y531623D01*
X665397Y531695D01*
X665400Y531707D01*
X665411Y531716D01*
X665455Y531798D01*
X665456Y531810D01*
X665464Y531821D01*
X665491Y531910D01*
X665490Y531922D01*
X665496Y531934D01*
X665505Y532027D01*
X665504Y532031D01*
X665505Y532033D01*
X665502Y532039D01*
X665505Y532052D01*
X665496Y532145D01*
X665490Y532156D01*
X665491Y532169D01*
X665464Y532259D01*
X665456Y532268D01*
X665455Y532281D01*
X665411Y532364D01*
X665401Y532371D01*
X665397Y532384D01*
X665338Y532456D01*
X665332Y532459D01*
X665329Y532466D01*
X657588Y540207D01*
X657582Y540209D01*
X657579Y540215D01*
X657507Y540275D01*
X657495Y540278D01*
X657486Y540288D01*
X657404Y540332D01*
X657392Y540333D01*
X657381Y540342D01*
X657292Y540369D01*
X657280Y540368D01*
X657267Y540374D01*
X657175Y540383D01*
X657163Y540379D01*
X657150Y540383D01*
X657057Y540374D01*
X657046Y540368D01*
X657033Y540369D01*
X656943Y540342D01*
X656934Y540334D01*
X656921Y540332D01*
X656838Y540288D01*
X656831Y540279D01*
X656818Y540274D01*
X656746Y540215D01*
X656743Y540210D01*
X656736Y540207D01*
X648995Y532466D01*
X648993Y532460D01*
X648987Y532456D01*
X648927Y532384D01*
X648924Y532373D01*
X648914Y532364D01*
X648870Y532281D01*
X648869Y532269D01*
X648860Y532259D01*
X648833Y532169D01*
X648834Y532157D01*
X648828Y532145D01*
X648819Y532052D01*
X648823Y532040D01*
X648819Y532027D01*
X648828Y531935D01*
X648834Y531924D01*
X648833Y531910D01*
X648860Y531821D01*
X648868Y531812D01*
X648870Y531798D01*
X648914Y531716D01*
X648923Y531708D01*
X648927Y531695D01*
X648987Y531623D01*
X648992Y531620D01*
X648995Y531614D01*
X656736Y523872D01*
X656742Y523870D01*
X656746Y523864D01*
X656818Y523805D01*
X656829Y523802D01*
X656838Y523791D01*
X656921Y523747D01*
X656933Y523746D01*
X656943Y523738D01*
X657033Y523711D01*
X657045Y523712D01*
X657057Y523706D01*
X657150Y523697D01*
X657161Y523700D01*
X657175Y523697D01*
X657267Y523706D01*
G37*
G36*
X676925Y543363D02*
X676925Y543363D01*
X676936Y543369D01*
X676949Y543368D01*
X677039Y543395D01*
X677048Y543403D01*
X677061Y543405D01*
X677144Y543449D01*
X677151Y543458D01*
X677164Y543462D01*
X677236Y543522D01*
X677239Y543527D01*
X677246Y543530D01*
X684987Y551271D01*
X684989Y551277D01*
X684995Y551281D01*
X685055Y551353D01*
X685058Y551364D01*
X685068Y551373D01*
X685112Y551456D01*
X685113Y551468D01*
X685122Y551478D01*
X685149Y551568D01*
X685148Y551580D01*
X685154Y551592D01*
X685163Y551685D01*
X685162Y551689D01*
X685162Y551690D01*
X685159Y551697D01*
X685163Y551710D01*
X685154Y551803D01*
X685148Y551813D01*
X685149Y551827D01*
X685122Y551916D01*
X685114Y551925D01*
X685112Y551939D01*
X685068Y552021D01*
X685059Y552029D01*
X685055Y552042D01*
X684995Y552114D01*
X684990Y552117D01*
X684987Y552123D01*
X677246Y559865D01*
X677240Y559867D01*
X677236Y559873D01*
X677164Y559932D01*
X677153Y559936D01*
X677144Y559946D01*
X677061Y559990D01*
X677049Y559991D01*
X677039Y559999D01*
X676949Y560026D01*
X676937Y560025D01*
X676925Y560031D01*
X676832Y560040D01*
X676820Y560037D01*
X676807Y560040D01*
X676715Y560031D01*
X676704Y560025D01*
X676690Y560026D01*
X676601Y559999D01*
X676592Y559991D01*
X676578Y559990D01*
X676496Y559946D01*
X676488Y559936D01*
X676475Y559932D01*
X676403Y559873D01*
X676400Y559867D01*
X676394Y559865D01*
X668652Y552123D01*
X668650Y552117D01*
X668644Y552114D01*
X668585Y552042D01*
X668582Y552030D01*
X668571Y552021D01*
X668527Y551939D01*
X668526Y551927D01*
X668518Y551916D01*
X668491Y551827D01*
X668492Y551815D01*
X668486Y551803D01*
X668477Y551710D01*
X668480Y551698D01*
X668477Y551685D01*
X668486Y551592D01*
X668492Y551581D01*
X668491Y551568D01*
X668518Y551478D01*
X668526Y551469D01*
X668527Y551456D01*
X668571Y551373D01*
X668581Y551366D01*
X668585Y551353D01*
X668644Y551281D01*
X668650Y551278D01*
X668652Y551271D01*
X676394Y543530D01*
X676400Y543528D01*
X676403Y543522D01*
X676475Y543462D01*
X676487Y543459D01*
X676496Y543449D01*
X676578Y543405D01*
X676590Y543404D01*
X676601Y543395D01*
X676690Y543368D01*
X676702Y543370D01*
X676714Y543363D01*
X676807Y543354D01*
X676819Y543358D01*
X676832Y543354D01*
X676925Y543363D01*
G37*
G36*
X696583Y523706D02*
X696583Y523706D01*
X696593Y523712D01*
X696607Y523711D01*
X696696Y523738D01*
X696706Y523746D01*
X696719Y523747D01*
X696801Y523791D01*
X696809Y523801D01*
X696822Y523805D01*
X696894Y523864D01*
X696897Y523870D01*
X696903Y523872D01*
X704645Y531614D01*
X704647Y531620D01*
X704653Y531623D01*
X704712Y531695D01*
X704716Y531707D01*
X704726Y531716D01*
X704770Y531798D01*
X704771Y531810D01*
X704779Y531821D01*
X704806Y531910D01*
X704805Y531922D01*
X704811Y531935D01*
X704820Y532027D01*
X704819Y532031D01*
X704820Y532033D01*
X704817Y532039D01*
X704820Y532052D01*
X704811Y532145D01*
X704805Y532156D01*
X704806Y532169D01*
X704779Y532259D01*
X704771Y532268D01*
X704770Y532281D01*
X704726Y532364D01*
X704716Y532371D01*
X704712Y532384D01*
X704653Y532456D01*
X704647Y532459D01*
X704645Y532466D01*
X696903Y540207D01*
X696897Y540209D01*
X696894Y540215D01*
X696822Y540274D01*
X696810Y540278D01*
X696801Y540288D01*
X696719Y540332D01*
X696707Y540333D01*
X696696Y540342D01*
X696607Y540369D01*
X696595Y540368D01*
X696583Y540374D01*
X696490Y540383D01*
X696478Y540379D01*
X696465Y540383D01*
X696372Y540374D01*
X696361Y540368D01*
X696348Y540369D01*
X696259Y540342D01*
X696249Y540334D01*
X696236Y540332D01*
X696153Y540288D01*
X696146Y540279D01*
X696133Y540275D01*
X696061Y540215D01*
X696058Y540210D01*
X696051Y540207D01*
X688310Y532466D01*
X688308Y532460D01*
X688302Y532456D01*
X688243Y532384D01*
X688239Y532372D01*
X688229Y532364D01*
X688185Y532281D01*
X688184Y532269D01*
X688175Y532259D01*
X688148Y532169D01*
X688150Y532157D01*
X688143Y532145D01*
X688134Y532052D01*
X688138Y532040D01*
X688134Y532027D01*
X688143Y531934D01*
X688149Y531924D01*
X688148Y531910D01*
X688175Y531821D01*
X688183Y531812D01*
X688185Y531798D01*
X688229Y531716D01*
X688238Y531708D01*
X688243Y531695D01*
X688302Y531623D01*
X688307Y531620D01*
X688310Y531614D01*
X696051Y523872D01*
X696057Y523870D01*
X696061Y523864D01*
X696133Y523805D01*
X696145Y523801D01*
X696153Y523791D01*
X696236Y523747D01*
X696248Y523746D01*
X696259Y523738D01*
X696348Y523711D01*
X696360Y523712D01*
X696372Y523706D01*
X696465Y523697D01*
X696477Y523700D01*
X696490Y523697D01*
X696583Y523706D01*
G37*
G36*
X676925Y504048D02*
X676925Y504048D01*
X676936Y504054D01*
X676949Y504053D01*
X677039Y504080D01*
X677048Y504088D01*
X677061Y504090D01*
X677144Y504134D01*
X677151Y504143D01*
X677164Y504147D01*
X677236Y504207D01*
X677239Y504212D01*
X677246Y504215D01*
X684987Y511956D01*
X684989Y511962D01*
X684995Y511965D01*
X685055Y512038D01*
X685058Y512049D01*
X685068Y512058D01*
X685112Y512140D01*
X685113Y512153D01*
X685122Y512163D01*
X685149Y512253D01*
X685148Y512265D01*
X685154Y512277D01*
X685163Y512370D01*
X685162Y512374D01*
X685162Y512375D01*
X685159Y512382D01*
X685163Y512395D01*
X685154Y512487D01*
X685148Y512498D01*
X685149Y512512D01*
X685122Y512601D01*
X685114Y512610D01*
X685112Y512624D01*
X685068Y512706D01*
X685059Y512714D01*
X685055Y512727D01*
X684995Y512799D01*
X684990Y512802D01*
X684987Y512808D01*
X677246Y520549D01*
X677240Y520552D01*
X677236Y520558D01*
X677164Y520617D01*
X677153Y520620D01*
X677144Y520631D01*
X677061Y520675D01*
X677049Y520676D01*
X677039Y520684D01*
X676949Y520711D01*
X676937Y520710D01*
X676925Y520716D01*
X676832Y520725D01*
X676820Y520722D01*
X676807Y520725D01*
X676714Y520716D01*
X676704Y520710D01*
X676690Y520711D01*
X676601Y520684D01*
X676592Y520676D01*
X676578Y520675D01*
X676496Y520631D01*
X676488Y520621D01*
X676475Y520617D01*
X676403Y520558D01*
X676400Y520552D01*
X676394Y520549D01*
X668652Y512808D01*
X668650Y512802D01*
X668644Y512799D01*
X668585Y512727D01*
X668582Y512715D01*
X668571Y512706D01*
X668527Y512624D01*
X668526Y512612D01*
X668518Y512601D01*
X668491Y512512D01*
X668492Y512500D01*
X668486Y512487D01*
X668477Y512395D01*
X668480Y512383D01*
X668477Y512370D01*
X668486Y512277D01*
X668492Y512266D01*
X668491Y512253D01*
X668518Y512163D01*
X668526Y512154D01*
X668527Y512140D01*
X668571Y512058D01*
X668581Y512051D01*
X668585Y512038D01*
X668644Y511965D01*
X668650Y511963D01*
X668652Y511956D01*
X676394Y504215D01*
X676400Y504213D01*
X676403Y504207D01*
X676475Y504147D01*
X676487Y504144D01*
X676496Y504134D01*
X676578Y504090D01*
X676590Y504089D01*
X676601Y504080D01*
X676690Y504053D01*
X676702Y504054D01*
X676715Y504048D01*
X676807Y504039D01*
X676819Y504043D01*
X676832Y504039D01*
X676925Y504048D01*
G37*
G36*
X667096Y513877D02*
X667096Y513877D01*
X667107Y513883D01*
X667120Y513882D01*
X667210Y513909D01*
X667219Y513917D01*
X667233Y513918D01*
X667315Y513962D01*
X667323Y513972D01*
X667335Y513976D01*
X667408Y514035D01*
X667411Y514041D01*
X667417Y514044D01*
X675158Y521785D01*
X675161Y521791D01*
X675167Y521794D01*
X675226Y521866D01*
X675229Y521878D01*
X675239Y521887D01*
X675283Y521969D01*
X675285Y521981D01*
X675293Y521992D01*
X675320Y522081D01*
X675319Y522094D01*
X675325Y522106D01*
X675334Y522198D01*
X675333Y522202D01*
X675333Y522204D01*
X675330Y522210D01*
X675334Y522223D01*
X675325Y522316D01*
X675319Y522327D01*
X675320Y522340D01*
X675293Y522430D01*
X675285Y522439D01*
X675283Y522453D01*
X675239Y522535D01*
X675230Y522543D01*
X675226Y522555D01*
X675167Y522628D01*
X675161Y522630D01*
X675158Y522637D01*
X667417Y530378D01*
X667411Y530381D01*
X667408Y530387D01*
X667335Y530446D01*
X667324Y530449D01*
X667315Y530459D01*
X667233Y530503D01*
X667220Y530505D01*
X667210Y530513D01*
X667120Y530540D01*
X667108Y530539D01*
X667096Y530545D01*
X667003Y530554D01*
X666992Y530550D01*
X666979Y530554D01*
X666886Y530545D01*
X666875Y530539D01*
X666861Y530540D01*
X666772Y530513D01*
X666763Y530505D01*
X666749Y530503D01*
X666667Y530459D01*
X666659Y530450D01*
X666646Y530446D01*
X666574Y530387D01*
X666571Y530381D01*
X666565Y530378D01*
X658824Y522637D01*
X658821Y522631D01*
X658815Y522628D01*
X658756Y522555D01*
X658753Y522544D01*
X658742Y522535D01*
X658698Y522453D01*
X658697Y522440D01*
X658689Y522430D01*
X658662Y522340D01*
X658663Y522328D01*
X658657Y522316D01*
X658648Y522223D01*
X658652Y522212D01*
X658648Y522199D01*
X658657Y522106D01*
X658663Y522095D01*
X658662Y522081D01*
X658689Y521992D01*
X658697Y521983D01*
X658698Y521969D01*
X658742Y521887D01*
X658752Y521879D01*
X658756Y521866D01*
X658815Y521794D01*
X658821Y521791D01*
X658824Y521785D01*
X666565Y514044D01*
X666571Y514041D01*
X666574Y514035D01*
X666646Y513976D01*
X666658Y513973D01*
X666667Y513962D01*
X666749Y513918D01*
X666761Y513917D01*
X666772Y513909D01*
X666861Y513882D01*
X666874Y513883D01*
X666886Y513877D01*
X666979Y513868D01*
X666990Y513872D01*
X667003Y513868D01*
X667096Y513877D01*
G37*
G36*
X667096Y533535D02*
X667096Y533535D01*
X667107Y533540D01*
X667120Y533539D01*
X667210Y533567D01*
X667219Y533574D01*
X667233Y533576D01*
X667315Y533620D01*
X667323Y533629D01*
X667335Y533634D01*
X667408Y533693D01*
X667411Y533698D01*
X667417Y533701D01*
X675158Y541443D01*
X675161Y541448D01*
X675167Y541452D01*
X675226Y541524D01*
X675229Y541536D01*
X675239Y541545D01*
X675283Y541627D01*
X675285Y541639D01*
X675293Y541650D01*
X675320Y541739D01*
X675319Y541751D01*
X675325Y541763D01*
X675334Y541856D01*
X675333Y541860D01*
X675333Y541861D01*
X675330Y541868D01*
X675334Y541881D01*
X675325Y541974D01*
X675319Y541985D01*
X675320Y541998D01*
X675293Y542087D01*
X675285Y542097D01*
X675283Y542110D01*
X675239Y542192D01*
X675230Y542200D01*
X675226Y542213D01*
X675167Y542285D01*
X675161Y542288D01*
X675158Y542294D01*
X667417Y550036D01*
X667411Y550038D01*
X667408Y550044D01*
X667335Y550103D01*
X667324Y550107D01*
X667315Y550117D01*
X667233Y550161D01*
X667220Y550162D01*
X667210Y550170D01*
X667120Y550198D01*
X667108Y550196D01*
X667096Y550202D01*
X667003Y550212D01*
X666992Y550208D01*
X666979Y550212D01*
X666886Y550202D01*
X666875Y550197D01*
X666861Y550198D01*
X666772Y550170D01*
X666763Y550163D01*
X666749Y550161D01*
X666667Y550117D01*
X666659Y550108D01*
X666646Y550103D01*
X666574Y550044D01*
X666571Y550039D01*
X666565Y550036D01*
X658824Y542294D01*
X658821Y542289D01*
X658815Y542285D01*
X658756Y542213D01*
X658753Y542201D01*
X658742Y542192D01*
X658698Y542110D01*
X658697Y542098D01*
X658689Y542087D01*
X658662Y541998D01*
X658663Y541986D01*
X658657Y541974D01*
X658648Y541881D01*
X658652Y541869D01*
X658648Y541856D01*
X658657Y541763D01*
X658663Y541753D01*
X658662Y541739D01*
X658689Y541650D01*
X658697Y541640D01*
X658698Y541627D01*
X658742Y541545D01*
X658752Y541537D01*
X658756Y541524D01*
X658815Y541452D01*
X658821Y541449D01*
X658824Y541443D01*
X666565Y533701D01*
X666571Y533699D01*
X666574Y533693D01*
X666646Y533634D01*
X666658Y533630D01*
X666667Y533620D01*
X666749Y533576D01*
X666761Y533575D01*
X666772Y533567D01*
X666861Y533539D01*
X666874Y533541D01*
X666886Y533535D01*
X666979Y533525D01*
X666990Y533529D01*
X667003Y533525D01*
X667096Y533535D01*
G37*
G36*
X686754Y533535D02*
X686754Y533535D01*
X686765Y533540D01*
X686778Y533539D01*
X686867Y533567D01*
X686877Y533574D01*
X686890Y533576D01*
X686972Y533620D01*
X686980Y533629D01*
X686993Y533634D01*
X687065Y533693D01*
X687068Y533698D01*
X687074Y533701D01*
X694816Y541443D01*
X694818Y541448D01*
X694824Y541452D01*
X694883Y541524D01*
X694887Y541536D01*
X694897Y541545D01*
X694941Y541627D01*
X694942Y541639D01*
X694951Y541650D01*
X694978Y541739D01*
X694976Y541751D01*
X694982Y541763D01*
X694992Y541856D01*
X694990Y541860D01*
X694991Y541861D01*
X694988Y541868D01*
X694992Y541881D01*
X694982Y541974D01*
X694977Y541984D01*
X694978Y541998D01*
X694951Y542087D01*
X694943Y542097D01*
X694941Y542110D01*
X694897Y542192D01*
X694888Y542200D01*
X694883Y542213D01*
X694824Y542285D01*
X694819Y542288D01*
X694816Y542294D01*
X687074Y550036D01*
X687069Y550038D01*
X687065Y550044D01*
X686993Y550103D01*
X686981Y550107D01*
X686972Y550117D01*
X686890Y550161D01*
X686878Y550162D01*
X686867Y550170D01*
X686778Y550198D01*
X686766Y550196D01*
X686754Y550202D01*
X686661Y550212D01*
X686649Y550208D01*
X686636Y550212D01*
X686543Y550202D01*
X686533Y550197D01*
X686519Y550198D01*
X686430Y550170D01*
X686420Y550163D01*
X686407Y550161D01*
X686325Y550117D01*
X686317Y550108D01*
X686304Y550103D01*
X686232Y550044D01*
X686229Y550039D01*
X686223Y550036D01*
X678481Y542294D01*
X678479Y542289D01*
X678473Y542285D01*
X678414Y542213D01*
X678410Y542201D01*
X678400Y542192D01*
X678356Y542110D01*
X678355Y542098D01*
X678347Y542087D01*
X678319Y541998D01*
X678321Y541986D01*
X678315Y541974D01*
X678305Y541881D01*
X678309Y541869D01*
X678305Y541856D01*
X678315Y541763D01*
X678320Y541753D01*
X678319Y541739D01*
X678347Y541650D01*
X678354Y541640D01*
X678356Y541627D01*
X678400Y541545D01*
X678409Y541537D01*
X678414Y541524D01*
X678473Y541452D01*
X678478Y541449D01*
X678481Y541443D01*
X686223Y533701D01*
X686229Y533699D01*
X686232Y533693D01*
X686304Y533634D01*
X686316Y533630D01*
X686325Y533620D01*
X686407Y533576D01*
X686419Y533575D01*
X686430Y533567D01*
X686519Y533539D01*
X686531Y533541D01*
X686543Y533535D01*
X686636Y533525D01*
X686648Y533529D01*
X686661Y533525D01*
X686754Y533535D01*
G37*
G36*
X686754Y513877D02*
X686754Y513877D01*
X686765Y513883D01*
X686778Y513882D01*
X686867Y513909D01*
X686877Y513917D01*
X686890Y513918D01*
X686972Y513962D01*
X686980Y513972D01*
X686993Y513976D01*
X687065Y514035D01*
X687068Y514041D01*
X687074Y514044D01*
X694816Y521785D01*
X694818Y521791D01*
X694824Y521794D01*
X694883Y521866D01*
X694887Y521878D01*
X694897Y521887D01*
X694941Y521969D01*
X694942Y521981D01*
X694951Y521992D01*
X694978Y522081D01*
X694976Y522094D01*
X694982Y522106D01*
X694992Y522199D01*
X694990Y522202D01*
X694991Y522204D01*
X694988Y522210D01*
X694992Y522223D01*
X694982Y522316D01*
X694977Y522327D01*
X694978Y522340D01*
X694951Y522430D01*
X694943Y522439D01*
X694941Y522453D01*
X694897Y522535D01*
X694888Y522543D01*
X694883Y522555D01*
X694824Y522628D01*
X694819Y522631D01*
X694816Y522637D01*
X687074Y530378D01*
X687069Y530381D01*
X687065Y530387D01*
X686993Y530446D01*
X686981Y530449D01*
X686972Y530459D01*
X686890Y530503D01*
X686878Y530505D01*
X686867Y530513D01*
X686778Y530540D01*
X686766Y530539D01*
X686754Y530545D01*
X686661Y530554D01*
X686649Y530550D01*
X686636Y530554D01*
X686543Y530545D01*
X686533Y530539D01*
X686519Y530540D01*
X686430Y530513D01*
X686420Y530505D01*
X686407Y530503D01*
X686325Y530459D01*
X686317Y530450D01*
X686304Y530446D01*
X686232Y530387D01*
X686229Y530381D01*
X686223Y530378D01*
X678481Y522637D01*
X678479Y522631D01*
X678473Y522628D01*
X678414Y522555D01*
X678410Y522544D01*
X678400Y522535D01*
X678356Y522453D01*
X678355Y522440D01*
X678347Y522430D01*
X678319Y522340D01*
X678321Y522328D01*
X678315Y522316D01*
X678305Y522223D01*
X678309Y522212D01*
X678305Y522198D01*
X678315Y522106D01*
X678320Y522095D01*
X678319Y522081D01*
X678347Y521992D01*
X678354Y521983D01*
X678356Y521969D01*
X678400Y521887D01*
X678409Y521879D01*
X678414Y521866D01*
X678473Y521794D01*
X678478Y521791D01*
X678481Y521785D01*
X686223Y514044D01*
X686228Y514041D01*
X686232Y514035D01*
X686304Y513976D01*
X686316Y513973D01*
X686325Y513962D01*
X686407Y513918D01*
X686419Y513917D01*
X686430Y513909D01*
X686519Y513882D01*
X686531Y513883D01*
X686543Y513877D01*
X686636Y513868D01*
X686648Y513872D01*
X686661Y513868D01*
X686754Y513877D01*
G37*
D10*
G36*
X735721Y539605D02*
X737418Y537908D01*
X733177Y533667D01*
X731480Y535364D01*
X735721Y539605D01*
G37*
G36*
X732185Y543140D02*
X733882Y541443D01*
X729641Y537202D01*
X727944Y538899D01*
X732185Y543140D01*
G37*
G36*
X728650Y546676D02*
X730347Y544979D01*
X726106Y540738D01*
X724409Y542435D01*
X728650Y546676D01*
G37*
G36*
X725114Y550212D02*
X726811Y548515D01*
X722570Y544274D01*
X720873Y545971D01*
X725114Y550212D01*
G37*
G36*
X721579Y553747D02*
X723276Y552050D01*
X719035Y547809D01*
X717338Y549506D01*
X721579Y553747D01*
G37*
G36*
X718043Y557283D02*
X719740Y555586D01*
X715499Y551345D01*
X713802Y553042D01*
X718043Y557283D01*
G37*
G36*
X714508Y560818D02*
X716205Y559121D01*
X711964Y554880D01*
X710267Y556577D01*
X714508Y560818D01*
G37*
G36*
X710972Y564354D02*
X712669Y562657D01*
X708428Y558416D01*
X706731Y560113D01*
X710972Y564354D01*
G37*
G36*
X707437Y567889D02*
X709134Y566192D01*
X704893Y561951D01*
X703196Y563648D01*
X707437Y567889D01*
G37*
G36*
X703901Y571425D02*
X705598Y569728D01*
X701357Y565487D01*
X699660Y567184D01*
X703901Y571425D01*
G37*
G36*
X700366Y574960D02*
X702063Y573263D01*
X697822Y569022D01*
X696125Y570719D01*
X700366Y574960D01*
G37*
G36*
X696830Y578496D02*
X698527Y576799D01*
X694286Y572558D01*
X692589Y574255D01*
X696830Y578496D01*
G37*
G36*
X693295Y582031D02*
X694992Y580334D01*
X690751Y576093D01*
X689054Y577790D01*
X693295Y582031D01*
G37*
G36*
X689759Y585567D02*
X691456Y583870D01*
X687215Y579629D01*
X685518Y581326D01*
X689759Y585567D01*
G37*
G36*
X686223Y589102D02*
X687920Y587405D01*
X683679Y583164D01*
X681982Y584861D01*
X686223Y589102D01*
G37*
G36*
X682688Y592638D02*
X684385Y590941D01*
X680144Y586700D01*
X678447Y588397D01*
X682688Y592638D01*
G37*
G36*
X675199Y588404D02*
X673502Y586707D01*
X669261Y590948D01*
X670958Y592645D01*
X675199Y588404D01*
G37*
G36*
X671663Y584867D02*
X669966Y583170D01*
X665725Y587411D01*
X667422Y589108D01*
X671663Y584867D01*
G37*
G36*
X668126Y581331D02*
X666429Y579634D01*
X662188Y583875D01*
X663885Y585572D01*
X668126Y581331D01*
G37*
G36*
X664590Y577794D02*
X662893Y576097D01*
X658652Y580338D01*
X660349Y582035D01*
X664590Y577794D01*
G37*
G36*
X661054Y574258D02*
X659357Y572561D01*
X655116Y576802D01*
X656813Y578499D01*
X661054Y574258D01*
G37*
G36*
X657517Y570721D02*
X655820Y569024D01*
X651579Y573265D01*
X653276Y574962D01*
X657517Y570721D01*
G37*
G36*
X653981Y567185D02*
X652284Y565488D01*
X648043Y569729D01*
X649740Y571426D01*
X653981Y567185D01*
G37*
G36*
X650444Y563649D02*
X648747Y561952D01*
X644506Y566193D01*
X646203Y567890D01*
X650444Y563649D01*
G37*
G36*
X646908Y560112D02*
X645211Y558415D01*
X640970Y562656D01*
X642667Y564353D01*
X646908Y560112D01*
G37*
G36*
X643371Y556576D02*
X641674Y554879D01*
X637433Y559120D01*
X639130Y560817D01*
X643371Y556576D01*
G37*
G36*
X639835Y553039D02*
X638138Y551342D01*
X633897Y555583D01*
X635594Y557280D01*
X639835Y553039D01*
G37*
G36*
X636299Y549503D02*
X634602Y547806D01*
X630361Y552047D01*
X632058Y553744D01*
X636299Y549503D01*
G37*
G36*
X632762Y545967D02*
X631065Y544270D01*
X626824Y548511D01*
X628521Y550208D01*
X632762Y545967D01*
G37*
G36*
X629226Y542430D02*
X627529Y540733D01*
X623288Y544974D01*
X624985Y546671D01*
X629226Y542430D01*
G37*
G36*
X625689Y538894D02*
X623992Y537197D01*
X619751Y541438D01*
X621448Y543135D01*
X625689Y538894D01*
G37*
G36*
X622153Y535357D02*
X620456Y533660D01*
X616215Y537901D01*
X617912Y539598D01*
X622153Y535357D01*
G37*
G36*
X620463Y530413D02*
X622160Y528716D01*
X617919Y524475D01*
X616222Y526172D01*
X620463Y530413D01*
G37*
G36*
X623998Y526877D02*
X625695Y525180D01*
X621454Y520939D01*
X619757Y522636D01*
X623998Y526877D01*
G37*
G36*
X627534Y523341D02*
X629231Y521644D01*
X624990Y517403D01*
X623293Y519100D01*
X627534Y523341D01*
G37*
G36*
X631069Y519806D02*
X632766Y518109D01*
X628525Y513868D01*
X626828Y515565D01*
X631069Y519806D01*
G37*
G36*
X634605Y516270D02*
X636302Y514573D01*
X632061Y510332D01*
X630364Y512029D01*
X634605Y516270D01*
G37*
G36*
X638140Y512735D02*
X639837Y511038D01*
X635596Y506797D01*
X633899Y508494D01*
X638140Y512735D01*
G37*
G36*
X641676Y509199D02*
X643373Y507502D01*
X639132Y503261D01*
X637435Y504958D01*
X641676Y509199D01*
G37*
G36*
X645211Y505664D02*
X646908Y503967D01*
X642667Y499726D01*
X640970Y501423D01*
X645211Y505664D01*
G37*
G36*
X648747Y502128D02*
X650444Y500431D01*
X646203Y496190D01*
X644506Y497887D01*
X648747Y502128D01*
G37*
G36*
X652282Y498593D02*
X653979Y496896D01*
X649738Y492655D01*
X648041Y494352D01*
X652282Y498593D01*
G37*
G36*
X655818Y495057D02*
X657515Y493360D01*
X653274Y489119D01*
X651577Y490816D01*
X655818Y495057D01*
G37*
G36*
X659353Y491522D02*
X661050Y489825D01*
X656809Y485584D01*
X655112Y487281D01*
X659353Y491522D01*
G37*
G36*
X662889Y487986D02*
X664586Y486289D01*
X660345Y482048D01*
X658648Y483745D01*
X662889Y487986D01*
G37*
G36*
X666424Y484451D02*
X668121Y482754D01*
X663880Y478513D01*
X662183Y480210D01*
X666424Y484451D01*
G37*
G36*
X669960Y480915D02*
X671657Y479218D01*
X667416Y474977D01*
X665719Y476674D01*
X669960Y480915D01*
G37*
G36*
X673496Y477380D02*
X675193Y475683D01*
X670952Y471442D01*
X669255Y473139D01*
X673496Y477380D01*
G37*
G36*
X684378Y473132D02*
X682681Y471435D01*
X678440Y475676D01*
X680137Y477373D01*
X684378Y473132D01*
G37*
G36*
X687915Y476668D02*
X686218Y474971D01*
X681977Y479212D01*
X683674Y480909D01*
X687915Y476668D01*
G37*
G36*
X691451Y480205D02*
X689754Y478508D01*
X685513Y482749D01*
X687210Y484446D01*
X691451Y480205D01*
G37*
G36*
X694988Y483741D02*
X693291Y482044D01*
X689050Y486285D01*
X690747Y487982D01*
X694988Y483741D01*
G37*
G36*
X698524Y487278D02*
X696827Y485581D01*
X692586Y489822D01*
X694283Y491519D01*
X698524Y487278D01*
G37*
G36*
X702060Y490814D02*
X700363Y489117D01*
X696122Y493358D01*
X697819Y495055D01*
X702060Y490814D01*
G37*
G36*
X705597Y494350D02*
X703900Y492653D01*
X699659Y496894D01*
X701356Y498591D01*
X705597Y494350D01*
G37*
G36*
X709133Y497887D02*
X707436Y496190D01*
X703195Y500431D01*
X704892Y502128D01*
X709133Y497887D01*
G37*
G36*
X712670Y501423D02*
X710973Y499726D01*
X706732Y503967D01*
X708429Y505664D01*
X712670Y501423D01*
G37*
G36*
X716206Y504960D02*
X714509Y503263D01*
X710268Y507504D01*
X711965Y509201D01*
X716206Y504960D01*
G37*
G36*
X719743Y508496D02*
X718046Y506799D01*
X713805Y511040D01*
X715502Y512737D01*
X719743Y508496D01*
G37*
G36*
X723279Y512033D02*
X721582Y510336D01*
X717341Y514577D01*
X719038Y516274D01*
X723279Y512033D01*
G37*
G36*
X726815Y515569D02*
X725118Y513872D01*
X720877Y518113D01*
X722574Y519810D01*
X726815Y515569D01*
G37*
G36*
X730352Y519105D02*
X728655Y517408D01*
X724414Y521649D01*
X726111Y523346D01*
X730352Y519105D01*
G37*
G36*
X733888Y522642D02*
X732191Y520945D01*
X727950Y525186D01*
X729647Y526883D01*
X733888Y522642D01*
G37*
G36*
X737425Y526178D02*
X735728Y524481D01*
X731487Y528722D01*
X733184Y530419D01*
X737425Y526178D01*
G37*
D11*
G36*
X585989Y525708D02*
X596596Y536315D01*
X610737Y522174D01*
X600130Y511567D01*
X585989Y525708D01*
G37*
G36*
X564775Y504494D02*
X575382Y515101D01*
X589523Y500960D01*
X578916Y490353D01*
X564775Y504494D01*
G37*
D12*
G36*
X655247Y462223D02*
X662671Y469647D01*
X670307Y462011D01*
X662883Y454587D01*
X655247Y462223D01*
G37*
G36*
X642873Y449849D02*
X650297Y457273D01*
X657933Y449637D01*
X650509Y442213D01*
X642873Y449849D01*
G37*
G36*
X743023Y592639D02*
X735599Y585215D01*
X727963Y592851D01*
X735387Y600275D01*
X743023Y592639D01*
G37*
G36*
X755397Y605013D02*
X747973Y597589D01*
X740337Y605225D01*
X747761Y612649D01*
X755397Y605013D01*
G37*
D13*
G36*
X602369Y602521D02*
X608909Y609061D01*
X614141Y603829D01*
X607601Y597289D01*
X602369Y602521D01*
G37*
G36*
X593883Y594035D02*
X600423Y600575D01*
X605655Y595343D01*
X599115Y588803D01*
X593883Y594035D01*
G37*
G36*
X582541Y572229D02*
X576001Y565689D01*
X570769Y570921D01*
X577309Y577461D01*
X582541Y572229D01*
G37*
G36*
X591027Y580715D02*
X584487Y574175D01*
X579255Y579407D01*
X585795Y585947D01*
X591027Y580715D01*
G37*
D12*
G36*
X756723Y443429D02*
X749299Y450853D01*
X756935Y458489D01*
X764359Y451065D01*
X756723Y443429D01*
G37*
G36*
X769097Y431055D02*
X761673Y438479D01*
X769309Y446115D01*
X776733Y438691D01*
X769097Y431055D01*
G37*
D14*
G36*
X768219Y455142D02*
X761148Y462213D01*
X768925Y469990D01*
X775996Y462919D01*
X768219Y455142D01*
G37*
G36*
X780239Y443122D02*
X773168Y450193D01*
X780945Y457970D01*
X788016Y450899D01*
X780239Y443122D01*
G37*
D15*
X547202Y623316D03*
X526202Y623316D03*
D14*
X488832Y624332D03*
X505832Y624332D03*
D16*
G36*
X603460Y586977D02*
X610531Y594048D01*
X623258Y581321D01*
X616187Y574250D01*
X603460Y586977D01*
G37*
G36*
X585782Y569299D02*
X592853Y576370D01*
X605580Y563643D01*
X598509Y556572D01*
X585782Y569299D01*
G37*
D17*
G36*
X723867Y467941D02*
X714675Y458749D01*
X706897Y466527D01*
X716089Y475719D01*
X723867Y467941D01*
G37*
G36*
X752859Y471477D02*
X743667Y462285D01*
X735889Y470063D01*
X745081Y479255D01*
X752859Y471477D01*
G37*
G36*
X740131Y484205D02*
X730939Y475013D01*
X723161Y482791D01*
X732353Y491983D01*
X740131Y484205D01*
G37*
G36*
X736595Y455213D02*
X727403Y446021D01*
X719625Y453799D01*
X728817Y462991D01*
X736595Y455213D01*
G37*
D13*
G36*
X718599Y449953D02*
X725139Y443413D01*
X719907Y438181D01*
X713367Y444721D01*
X718599Y449953D01*
G37*
G36*
X710113Y458439D02*
X716653Y451899D01*
X711421Y446667D01*
X704881Y453207D01*
X710113Y458439D01*
G37*
G36*
X743307Y483379D02*
X736767Y489919D01*
X741999Y495151D01*
X748539Y488611D01*
X743307Y483379D01*
G37*
G36*
X751793Y474893D02*
X745253Y481433D01*
X750485Y486665D01*
X757025Y480125D01*
X751793Y474893D01*
G37*
D18*
X484886Y515112D03*
X508000Y515112D03*
X531114Y515112D03*
D19*
X508000Y577090D03*
D11*
X548400Y486410D03*
X518400Y486410D03*
X498362Y486410D03*
X468362Y486410D03*
D14*
G36*
X575651Y547870D02*
X568580Y554941D01*
X576357Y562718D01*
X583428Y555647D01*
X575651Y547870D01*
G37*
G36*
X587671Y535850D02*
X580600Y542921D01*
X588377Y550698D01*
X595448Y543627D01*
X587671Y535850D01*
G37*
D12*
G36*
X732083Y602799D02*
X724659Y595375D01*
X717023Y603011D01*
X724447Y610435D01*
X732083Y602799D01*
G37*
G36*
X744457Y615173D02*
X737033Y607749D01*
X729397Y615385D01*
X736821Y622809D01*
X744457Y615173D01*
G37*
D20*
X1104900Y534670D03*
X812800Y534670D03*
D12*
G36*
X756215Y487353D02*
X748791Y494777D01*
X756427Y502413D01*
X763851Y494989D01*
X756215Y487353D01*
G37*
G36*
X768589Y474979D02*
X761165Y482403D01*
X768801Y490039D01*
X776225Y482615D01*
X768589Y474979D01*
G37*
G36*
X753301Y582361D02*
X745877Y574937D01*
X738241Y582573D01*
X745665Y589997D01*
X753301Y582361D01*
G37*
G36*
X765675Y594735D02*
X758251Y587311D01*
X750615Y594947D01*
X758039Y602371D01*
X765675Y594735D01*
G37*
D21*
G36*
X712275Y584200D02*
X705204Y591271D01*
X712275Y598342D01*
X719346Y591271D01*
X712275Y584200D01*
G37*
G36*
X726417Y570058D02*
X719346Y577129D01*
X726417Y584200D01*
X733488Y577129D01*
X726417Y570058D01*
G37*
M02*
