G04 EAGLE Gerber RS-274X export*
G75*
%MOMM*%
%FSLAX34Y34*%
%LPD*%
%INBottom Silkscreen*%
%IPPOS*%
%AMOC8*
5,1,8,0,0,1.08239X$1,22.5*%
G01*
%ADD10C,0.508000*%


D10*
X1123442Y534670D02*
X1123444Y534548D01*
X1123450Y534426D01*
X1123460Y534304D01*
X1123473Y534183D01*
X1123491Y534062D01*
X1123512Y533942D01*
X1123538Y533822D01*
X1123567Y533704D01*
X1123599Y533586D01*
X1123636Y533469D01*
X1123676Y533354D01*
X1123720Y533240D01*
X1123768Y533128D01*
X1123819Y533017D01*
X1123874Y532908D01*
X1123932Y532800D01*
X1123994Y532695D01*
X1124059Y532592D01*
X1124127Y532490D01*
X1124199Y532391D01*
X1124273Y532295D01*
X1124351Y532200D01*
X1124432Y532109D01*
X1124515Y532019D01*
X1124601Y531933D01*
X1124691Y531850D01*
X1124782Y531769D01*
X1124877Y531691D01*
X1124973Y531617D01*
X1125072Y531545D01*
X1125174Y531477D01*
X1125277Y531412D01*
X1125382Y531350D01*
X1125490Y531292D01*
X1125599Y531237D01*
X1125710Y531186D01*
X1125822Y531138D01*
X1125936Y531094D01*
X1126051Y531054D01*
X1126168Y531017D01*
X1126286Y530985D01*
X1126404Y530956D01*
X1126524Y530930D01*
X1126644Y530909D01*
X1126765Y530891D01*
X1126886Y530878D01*
X1127008Y530868D01*
X1127130Y530862D01*
X1127252Y530860D01*
X1127374Y530862D01*
X1127496Y530868D01*
X1127618Y530878D01*
X1127739Y530891D01*
X1127860Y530909D01*
X1127980Y530930D01*
X1128100Y530956D01*
X1128218Y530985D01*
X1128336Y531017D01*
X1128453Y531054D01*
X1128568Y531094D01*
X1128682Y531138D01*
X1128794Y531186D01*
X1128905Y531237D01*
X1129014Y531292D01*
X1129122Y531350D01*
X1129227Y531412D01*
X1129330Y531477D01*
X1129432Y531545D01*
X1129531Y531617D01*
X1129627Y531691D01*
X1129722Y531769D01*
X1129813Y531850D01*
X1129903Y531933D01*
X1129989Y532019D01*
X1130072Y532109D01*
X1130153Y532200D01*
X1130231Y532295D01*
X1130305Y532391D01*
X1130377Y532490D01*
X1130445Y532592D01*
X1130510Y532695D01*
X1130572Y532800D01*
X1130630Y532908D01*
X1130685Y533017D01*
X1130736Y533128D01*
X1130784Y533240D01*
X1130828Y533354D01*
X1130868Y533469D01*
X1130905Y533586D01*
X1130937Y533704D01*
X1130966Y533822D01*
X1130992Y533942D01*
X1131013Y534062D01*
X1131031Y534183D01*
X1131044Y534304D01*
X1131054Y534426D01*
X1131060Y534548D01*
X1131062Y534670D01*
X1131060Y534792D01*
X1131054Y534914D01*
X1131044Y535036D01*
X1131031Y535157D01*
X1131013Y535278D01*
X1130992Y535398D01*
X1130966Y535518D01*
X1130937Y535636D01*
X1130905Y535754D01*
X1130868Y535871D01*
X1130828Y535986D01*
X1130784Y536100D01*
X1130736Y536212D01*
X1130685Y536323D01*
X1130630Y536432D01*
X1130572Y536540D01*
X1130510Y536645D01*
X1130445Y536748D01*
X1130377Y536850D01*
X1130305Y536949D01*
X1130231Y537045D01*
X1130153Y537140D01*
X1130072Y537231D01*
X1129989Y537321D01*
X1129903Y537407D01*
X1129813Y537490D01*
X1129722Y537571D01*
X1129627Y537649D01*
X1129531Y537723D01*
X1129432Y537795D01*
X1129330Y537863D01*
X1129227Y537928D01*
X1129122Y537990D01*
X1129014Y538048D01*
X1128905Y538103D01*
X1128794Y538154D01*
X1128682Y538202D01*
X1128568Y538246D01*
X1128453Y538286D01*
X1128336Y538323D01*
X1128218Y538355D01*
X1128100Y538384D01*
X1127980Y538410D01*
X1127860Y538431D01*
X1127739Y538449D01*
X1127618Y538462D01*
X1127496Y538472D01*
X1127374Y538478D01*
X1127252Y538480D01*
X1127130Y538478D01*
X1127008Y538472D01*
X1126886Y538462D01*
X1126765Y538449D01*
X1126644Y538431D01*
X1126524Y538410D01*
X1126404Y538384D01*
X1126286Y538355D01*
X1126168Y538323D01*
X1126051Y538286D01*
X1125936Y538246D01*
X1125822Y538202D01*
X1125710Y538154D01*
X1125599Y538103D01*
X1125490Y538048D01*
X1125382Y537990D01*
X1125277Y537928D01*
X1125174Y537863D01*
X1125072Y537795D01*
X1124973Y537723D01*
X1124877Y537649D01*
X1124782Y537571D01*
X1124691Y537490D01*
X1124601Y537407D01*
X1124515Y537321D01*
X1124432Y537231D01*
X1124351Y537140D01*
X1124273Y537045D01*
X1124199Y536949D01*
X1124127Y536850D01*
X1124059Y536748D01*
X1123994Y536645D01*
X1123932Y536540D01*
X1123874Y536432D01*
X1123819Y536323D01*
X1123768Y536212D01*
X1123720Y536100D01*
X1123676Y535986D01*
X1123636Y535871D01*
X1123599Y535754D01*
X1123567Y535636D01*
X1123538Y535518D01*
X1123512Y535398D01*
X1123491Y535278D01*
X1123473Y535157D01*
X1123460Y535036D01*
X1123450Y534914D01*
X1123444Y534792D01*
X1123442Y534670D01*
M02*
