G04 EAGLE Gerber RS-274X export*
G75*
%MOMM*%
%FSLAX34Y34*%
%LPD*%
%INTop Copper*%
%IPPOS*%
%AMOC8*
5,1,8,0,0,1.08239X$1,22.5*%
G01*
%ADD10R,0.240000X0.600000*%
%ADD11R,4.250000X4.250000*%
%ADD12R,1.500000X2.000000*%
%ADD13R,1.050000X1.080000*%
%ADD14R,0.925000X0.740000*%
%ADD15P,1.732040X8X202.500000*%
%ADD16P,1.732040X8X22.500000*%
%ADD17R,1.000000X1.100000*%
%ADD18R,1.200000X1.200000*%
%ADD19R,1.000000X1.800000*%
%ADD20R,1.300000X1.100000*%
%ADD21P,1.732040X8X292.500000*%
%ADD22P,1.732040X8X112.500000*%
%ADD23R,1.219200X2.235200*%
%ADD24R,3.600000X2.200000*%
%ADD25R,3.302000X4.318000*%
%ADD26R,1.000000X1.000000*%
%ADD27C,1.524000*%
%ADD28C,0.203200*%
%ADD29C,0.152400*%
%ADD30C,0.508000*%
%ADD31C,0.406400*%
%ADD32C,0.200000*%
%ADD33C,0.604800*%
%ADD34C,0.304800*%
%ADD35C,0.254000*%

G36*
X1130118Y383544D02*
X1130118Y383544D01*
X1130137Y383542D01*
X1130239Y383564D01*
X1130341Y383580D01*
X1130358Y383590D01*
X1130378Y383594D01*
X1130467Y383647D01*
X1130558Y383696D01*
X1130572Y383710D01*
X1130589Y383720D01*
X1130656Y383799D01*
X1130728Y383874D01*
X1130736Y383892D01*
X1130749Y383907D01*
X1130788Y384003D01*
X1130831Y384097D01*
X1130833Y384117D01*
X1130841Y384135D01*
X1130859Y384302D01*
X1130859Y683248D01*
X1130856Y683268D01*
X1130858Y683287D01*
X1130836Y683389D01*
X1130820Y683491D01*
X1130810Y683508D01*
X1130806Y683528D01*
X1130753Y683617D01*
X1130704Y683708D01*
X1130690Y683722D01*
X1130680Y683739D01*
X1130601Y683806D01*
X1130526Y683878D01*
X1130508Y683886D01*
X1130493Y683899D01*
X1130397Y683938D01*
X1130303Y683981D01*
X1130283Y683983D01*
X1130265Y683991D01*
X1130098Y684009D01*
X1083900Y684009D01*
X1083829Y683998D01*
X1083758Y683996D01*
X1083709Y683978D01*
X1083657Y683970D01*
X1083594Y683936D01*
X1083527Y683911D01*
X1083486Y683879D01*
X1083440Y683854D01*
X1083390Y683802D01*
X1083334Y683758D01*
X1083306Y683714D01*
X1083270Y683676D01*
X1083240Y683611D01*
X1083201Y683551D01*
X1083189Y683500D01*
X1083167Y683453D01*
X1083159Y683382D01*
X1083141Y683312D01*
X1083145Y683260D01*
X1083140Y683209D01*
X1083155Y683138D01*
X1083161Y683067D01*
X1083181Y683019D01*
X1083192Y682968D01*
X1083229Y682907D01*
X1083257Y682841D01*
X1083302Y682785D01*
X1083318Y682757D01*
X1083336Y682742D01*
X1083362Y682710D01*
X1089026Y677046D01*
X1089026Y669154D01*
X1083446Y663574D01*
X1075554Y663574D01*
X1074920Y664209D01*
X1074903Y664221D01*
X1074891Y664236D01*
X1074804Y664292D01*
X1074720Y664353D01*
X1074701Y664358D01*
X1074684Y664369D01*
X1074584Y664395D01*
X1074485Y664425D01*
X1074465Y664424D01*
X1074445Y664429D01*
X1074343Y664421D01*
X1074239Y664419D01*
X1074220Y664412D01*
X1074200Y664410D01*
X1074105Y664370D01*
X1074008Y664334D01*
X1073992Y664322D01*
X1073974Y664314D01*
X1073843Y664209D01*
X1046665Y637031D01*
X899354Y637031D01*
X899264Y637017D01*
X899173Y637009D01*
X899144Y636997D01*
X899112Y636992D01*
X899031Y636949D01*
X898947Y636913D01*
X898915Y636887D01*
X898894Y636876D01*
X898872Y636853D01*
X898816Y636808D01*
X860978Y598970D01*
X859415Y597407D01*
X828595Y597407D01*
X828505Y597393D01*
X828414Y597385D01*
X828384Y597373D01*
X828352Y597368D01*
X828272Y597325D01*
X828188Y597289D01*
X828156Y597263D01*
X828135Y597252D01*
X828113Y597229D01*
X828057Y597184D01*
X768120Y537248D01*
X766558Y535685D01*
X737667Y535685D01*
X737577Y535671D01*
X737486Y535663D01*
X737456Y535651D01*
X737424Y535646D01*
X737344Y535603D01*
X737260Y535567D01*
X737228Y535541D01*
X737207Y535530D01*
X737185Y535507D01*
X737129Y535462D01*
X736513Y534846D01*
X736471Y534788D01*
X736422Y534736D01*
X736400Y534689D01*
X736369Y534647D01*
X736348Y534578D01*
X736318Y534513D01*
X736312Y534461D01*
X736297Y534412D01*
X736299Y534340D01*
X736291Y534269D01*
X736302Y534218D01*
X736303Y534166D01*
X736328Y534098D01*
X736343Y534028D01*
X736370Y533984D01*
X736388Y533935D01*
X736433Y533879D01*
X736469Y533817D01*
X736509Y533783D01*
X736541Y533743D01*
X736602Y533704D01*
X736656Y533657D01*
X736705Y533638D01*
X736748Y533610D01*
X736818Y533592D01*
X736884Y533565D01*
X736956Y533557D01*
X736987Y533550D01*
X737010Y533551D01*
X737051Y533547D01*
X775824Y533547D01*
X793466Y515905D01*
X793524Y515863D01*
X793576Y515814D01*
X793623Y515792D01*
X793665Y515762D01*
X793734Y515741D01*
X793799Y515710D01*
X793851Y515705D01*
X793901Y515689D01*
X793972Y515691D01*
X794043Y515683D01*
X794094Y515694D01*
X794146Y515696D01*
X794214Y515720D01*
X794284Y515736D01*
X794329Y515762D01*
X794377Y515780D01*
X794433Y515825D01*
X794495Y515862D01*
X794529Y515901D01*
X794569Y515934D01*
X794608Y515994D01*
X794655Y516049D01*
X794674Y516097D01*
X794702Y516141D01*
X794720Y516210D01*
X794747Y516277D01*
X794755Y516348D01*
X794763Y516379D01*
X794761Y516403D01*
X794765Y516444D01*
X794765Y535432D01*
X794762Y535452D01*
X794764Y535471D01*
X794742Y535573D01*
X794726Y535675D01*
X794716Y535692D01*
X794712Y535712D01*
X794659Y535801D01*
X794610Y535892D01*
X794596Y535906D01*
X794586Y535923D01*
X794507Y535990D01*
X794432Y536062D01*
X794414Y536070D01*
X794399Y536083D01*
X794303Y536122D01*
X794209Y536165D01*
X794189Y536167D01*
X794171Y536175D01*
X794004Y536193D01*
X789321Y536193D01*
X789231Y536179D01*
X789140Y536171D01*
X789111Y536159D01*
X789079Y536154D01*
X788998Y536111D01*
X788914Y536075D01*
X788882Y536049D01*
X788861Y536038D01*
X788839Y536015D01*
X788783Y535970D01*
X786744Y533931D01*
X782976Y533931D01*
X780311Y536596D01*
X780311Y540364D01*
X782976Y543029D01*
X786744Y543029D01*
X788783Y540990D01*
X788857Y540937D01*
X788927Y540877D01*
X788957Y540865D01*
X788983Y540846D01*
X789070Y540819D01*
X789155Y540785D01*
X789196Y540781D01*
X789218Y540774D01*
X789250Y540775D01*
X789321Y540767D01*
X794004Y540767D01*
X794024Y540770D01*
X794043Y540768D01*
X794145Y540790D01*
X794247Y540806D01*
X794264Y540816D01*
X794284Y540820D01*
X794373Y540873D01*
X794464Y540922D01*
X794478Y540936D01*
X794495Y540946D01*
X794562Y541025D01*
X794634Y541100D01*
X794642Y541118D01*
X794655Y541133D01*
X794694Y541229D01*
X794737Y541323D01*
X794739Y541343D01*
X794747Y541361D01*
X794765Y541528D01*
X794765Y556892D01*
X795658Y557785D01*
X829942Y557785D01*
X830835Y556892D01*
X830835Y512448D01*
X829942Y511555D01*
X799654Y511555D01*
X799583Y511544D01*
X799511Y511542D01*
X799462Y511524D01*
X799411Y511516D01*
X799347Y511482D01*
X799280Y511457D01*
X799239Y511425D01*
X799193Y511400D01*
X799144Y511348D01*
X799088Y511304D01*
X799060Y511260D01*
X799024Y511222D01*
X798994Y511157D01*
X798955Y511097D01*
X798942Y511046D01*
X798920Y510999D01*
X798913Y510928D01*
X798895Y510858D01*
X798899Y510806D01*
X798893Y510755D01*
X798909Y510684D01*
X798914Y510613D01*
X798935Y510565D01*
X798946Y510514D01*
X798982Y510453D01*
X799010Y510387D01*
X799055Y510331D01*
X799072Y510303D01*
X799090Y510288D01*
X799115Y510256D01*
X845597Y463774D01*
X845671Y463721D01*
X845741Y463661D01*
X845771Y463649D01*
X845797Y463630D01*
X845884Y463603D01*
X845969Y463569D01*
X846010Y463565D01*
X846032Y463558D01*
X846064Y463559D01*
X846136Y463551D01*
X899569Y463551D01*
X935414Y427706D01*
X935488Y427653D01*
X935558Y427593D01*
X935588Y427581D01*
X935614Y427562D01*
X935701Y427535D01*
X935786Y427501D01*
X935827Y427497D01*
X935849Y427490D01*
X935881Y427491D01*
X935953Y427483D01*
X1074351Y427483D01*
X1099243Y402591D01*
X1099259Y402579D01*
X1099272Y402564D01*
X1099359Y402508D01*
X1099443Y402447D01*
X1099462Y402442D01*
X1099479Y402431D01*
X1099579Y402405D01*
X1099678Y402375D01*
X1099698Y402376D01*
X1099717Y402371D01*
X1099820Y402379D01*
X1099924Y402381D01*
X1099942Y402388D01*
X1099962Y402390D01*
X1100057Y402430D01*
X1100155Y402466D01*
X1100170Y402478D01*
X1100189Y402486D01*
X1100320Y402591D01*
X1100954Y403226D01*
X1108846Y403226D01*
X1114426Y397646D01*
X1114426Y389754D01*
X1109512Y384840D01*
X1109470Y384782D01*
X1109420Y384730D01*
X1109399Y384683D01*
X1109368Y384641D01*
X1109347Y384572D01*
X1109317Y384507D01*
X1109311Y384455D01*
X1109296Y384405D01*
X1109298Y384334D01*
X1109290Y384263D01*
X1109301Y384212D01*
X1109302Y384160D01*
X1109327Y384092D01*
X1109342Y384022D01*
X1109369Y383977D01*
X1109387Y383929D01*
X1109431Y383873D01*
X1109468Y383811D01*
X1109508Y383777D01*
X1109540Y383737D01*
X1109601Y383698D01*
X1109655Y383651D01*
X1109703Y383632D01*
X1109747Y383604D01*
X1109817Y383586D01*
X1109883Y383559D01*
X1109955Y383551D01*
X1109986Y383543D01*
X1110009Y383545D01*
X1110050Y383541D01*
X1130098Y383541D01*
X1130118Y383544D01*
G37*
G36*
X549038Y518541D02*
X549038Y518541D01*
X549142Y518544D01*
X549160Y518551D01*
X549180Y518552D01*
X549275Y518593D01*
X549373Y518628D01*
X549388Y518641D01*
X549407Y518649D01*
X549537Y518753D01*
X569265Y538481D01*
X579831Y538481D01*
X584942Y533370D01*
X585016Y533317D01*
X585086Y533257D01*
X585116Y533245D01*
X585142Y533226D01*
X585229Y533199D01*
X585314Y533165D01*
X585355Y533161D01*
X585377Y533154D01*
X585409Y533155D01*
X585481Y533147D01*
X586379Y533147D01*
X586450Y533158D01*
X586521Y533160D01*
X586570Y533178D01*
X586622Y533186D01*
X586685Y533220D01*
X586752Y533245D01*
X586793Y533277D01*
X586839Y533302D01*
X586888Y533354D01*
X586944Y533398D01*
X586973Y533442D01*
X587008Y533480D01*
X587039Y533545D01*
X587077Y533605D01*
X587090Y533656D01*
X587112Y533703D01*
X587120Y533774D01*
X587138Y533844D01*
X587133Y533896D01*
X587139Y533947D01*
X587124Y534018D01*
X587118Y534089D01*
X587098Y534137D01*
X587087Y534188D01*
X587050Y534249D01*
X587022Y534315D01*
X586977Y534371D01*
X586961Y534399D01*
X586943Y534414D01*
X586917Y534446D01*
X579075Y542288D01*
X579075Y543552D01*
X587746Y552223D01*
X589009Y552223D01*
X595163Y546070D01*
X595237Y546017D01*
X595306Y545957D01*
X595336Y545945D01*
X595362Y545926D01*
X595449Y545899D01*
X595534Y545865D01*
X595575Y545861D01*
X595597Y545854D01*
X595630Y545855D01*
X595701Y545847D01*
X619437Y545847D01*
X620401Y544883D01*
X620475Y544830D01*
X620544Y544771D01*
X620574Y544759D01*
X620600Y544740D01*
X620687Y544713D01*
X620772Y544679D01*
X620813Y544674D01*
X620836Y544667D01*
X620868Y544668D01*
X620939Y544660D01*
X622079Y544660D01*
X627215Y539524D01*
X627215Y538261D01*
X627210Y538256D01*
X627168Y538198D01*
X627119Y538146D01*
X627097Y538099D01*
X627066Y538057D01*
X627045Y537988D01*
X627015Y537923D01*
X627009Y537871D01*
X626994Y537821D01*
X626996Y537750D01*
X626988Y537679D01*
X626999Y537628D01*
X627000Y537576D01*
X627025Y537508D01*
X627040Y537438D01*
X627067Y537393D01*
X627085Y537345D01*
X627130Y537289D01*
X627166Y537227D01*
X627206Y537193D01*
X627238Y537153D01*
X627299Y537114D01*
X627353Y537067D01*
X627402Y537048D01*
X627445Y537020D01*
X627515Y537002D01*
X627581Y536975D01*
X627653Y536967D01*
X627684Y536959D01*
X627707Y536961D01*
X627748Y536957D01*
X639908Y536957D01*
X639998Y536971D01*
X640089Y536979D01*
X640118Y536991D01*
X640150Y536996D01*
X640231Y537039D01*
X640315Y537075D01*
X640347Y537101D01*
X640368Y537112D01*
X640390Y537135D01*
X640446Y537180D01*
X673463Y570196D01*
X680177Y570196D01*
X689939Y560435D01*
X689955Y560423D01*
X689967Y560408D01*
X690054Y560352D01*
X690138Y560291D01*
X690157Y560285D01*
X690174Y560275D01*
X690275Y560249D01*
X690373Y560219D01*
X690393Y560219D01*
X690413Y560215D01*
X690516Y560223D01*
X690619Y560225D01*
X690638Y560232D01*
X690658Y560234D01*
X690753Y560274D01*
X690850Y560310D01*
X690866Y560322D01*
X690884Y560330D01*
X691015Y560435D01*
X697095Y566515D01*
X697106Y566531D01*
X697122Y566543D01*
X697178Y566631D01*
X697238Y566714D01*
X697244Y566733D01*
X697255Y566750D01*
X697280Y566851D01*
X697311Y566949D01*
X697310Y566969D01*
X697315Y566989D01*
X697307Y567092D01*
X697304Y567195D01*
X697297Y567214D01*
X697296Y567234D01*
X697256Y567329D01*
X697220Y567426D01*
X697207Y567442D01*
X697200Y567460D01*
X697095Y567591D01*
X694599Y570087D01*
X694599Y571350D01*
X699735Y576486D01*
X699937Y576486D01*
X700027Y576501D01*
X700118Y576508D01*
X700147Y576520D01*
X700179Y576526D01*
X700260Y576568D01*
X700344Y576604D01*
X700376Y576630D01*
X700397Y576641D01*
X700419Y576664D01*
X700475Y576709D01*
X708504Y584738D01*
X708516Y584754D01*
X708531Y584767D01*
X708560Y584811D01*
X708591Y584844D01*
X708611Y584886D01*
X708648Y584938D01*
X708653Y584957D01*
X708664Y584974D01*
X708680Y585035D01*
X708695Y585067D01*
X708699Y585104D01*
X708720Y585173D01*
X708719Y585193D01*
X708724Y585212D01*
X708719Y585284D01*
X708722Y585311D01*
X708716Y585339D01*
X708714Y585419D01*
X708707Y585437D01*
X708705Y585457D01*
X708674Y585530D01*
X708669Y585552D01*
X708658Y585571D01*
X708629Y585650D01*
X708617Y585665D01*
X708609Y585684D01*
X708504Y585815D01*
X703679Y590639D01*
X703679Y591903D01*
X711643Y599867D01*
X712907Y599867D01*
X720729Y592045D01*
X720787Y592003D01*
X720839Y591954D01*
X720886Y591932D01*
X720928Y591901D01*
X720997Y591880D01*
X721062Y591850D01*
X721114Y591844D01*
X721163Y591829D01*
X721235Y591831D01*
X721306Y591823D01*
X721357Y591834D01*
X721409Y591835D01*
X721477Y591860D01*
X721547Y591875D01*
X721591Y591902D01*
X721640Y591920D01*
X721696Y591965D01*
X721758Y592001D01*
X721792Y592041D01*
X721832Y592073D01*
X721871Y592134D01*
X721918Y592188D01*
X721937Y592237D01*
X721965Y592280D01*
X721983Y592350D01*
X722010Y592416D01*
X722017Y592488D01*
X722025Y592519D01*
X722024Y592542D01*
X722028Y592583D01*
X722028Y595533D01*
X722013Y595623D01*
X722006Y595714D01*
X721994Y595744D01*
X721988Y595776D01*
X721946Y595857D01*
X721910Y595941D01*
X721884Y595973D01*
X721873Y595993D01*
X721850Y596016D01*
X721805Y596072D01*
X715497Y602379D01*
X715497Y603642D01*
X723815Y611960D01*
X725078Y611960D01*
X733608Y603430D01*
X733608Y602491D01*
X733620Y602420D01*
X733622Y602348D01*
X733640Y602299D01*
X733648Y602248D01*
X733681Y602185D01*
X733706Y602117D01*
X733739Y602077D01*
X733763Y602031D01*
X733815Y601982D01*
X733860Y601925D01*
X733904Y601897D01*
X733941Y601861D01*
X734006Y601831D01*
X734067Y601792D01*
X734117Y601780D01*
X734164Y601758D01*
X734236Y601750D01*
X734305Y601732D01*
X734357Y601736D01*
X734409Y601731D01*
X734479Y601746D01*
X734551Y601752D01*
X734598Y601772D01*
X734649Y601783D01*
X734678Y601800D01*
X736018Y601800D01*
X744548Y593270D01*
X744548Y592283D01*
X744551Y592264D01*
X744549Y592244D01*
X744571Y592143D01*
X744588Y592041D01*
X744597Y592023D01*
X744601Y592004D01*
X744655Y591915D01*
X744703Y591823D01*
X744717Y591810D01*
X744728Y591793D01*
X744806Y591725D01*
X744881Y591654D01*
X744899Y591646D01*
X744915Y591633D01*
X745011Y591594D01*
X745104Y591550D01*
X745124Y591548D01*
X745143Y591541D01*
X745309Y591522D01*
X746296Y591522D01*
X754826Y582992D01*
X754826Y581729D01*
X746508Y573411D01*
X745245Y573411D01*
X739462Y579195D01*
X739388Y579248D01*
X739318Y579308D01*
X739288Y579320D01*
X739262Y579339D01*
X739175Y579365D01*
X739090Y579400D01*
X739049Y579404D01*
X739027Y579411D01*
X738995Y579410D01*
X738923Y579418D01*
X735193Y579418D01*
X735122Y579407D01*
X735051Y579405D01*
X735002Y579387D01*
X734950Y579378D01*
X734887Y579345D01*
X734820Y579320D01*
X734779Y579288D01*
X734733Y579263D01*
X734684Y579211D01*
X734628Y579166D01*
X734599Y579123D01*
X734564Y579085D01*
X734533Y579020D01*
X734495Y578960D01*
X734482Y578909D01*
X734460Y578862D01*
X734452Y578791D01*
X734435Y578721D01*
X734439Y578669D01*
X734433Y578617D01*
X734448Y578547D01*
X734454Y578476D01*
X734474Y578428D01*
X734485Y578377D01*
X734522Y578315D01*
X734550Y578249D01*
X734595Y578193D01*
X734611Y578166D01*
X734629Y578151D01*
X734655Y578119D01*
X735013Y577760D01*
X735013Y576497D01*
X727049Y568533D01*
X725786Y568533D01*
X720105Y574214D01*
X720089Y574225D01*
X720076Y574241D01*
X719989Y574297D01*
X719905Y574357D01*
X719886Y574363D01*
X719870Y574374D01*
X719769Y574399D01*
X719670Y574429D01*
X719650Y574429D01*
X719631Y574434D01*
X719528Y574426D01*
X719424Y574423D01*
X719406Y574416D01*
X719386Y574415D01*
X719291Y574374D01*
X719193Y574339D01*
X719178Y574326D01*
X719160Y574318D01*
X719029Y574214D01*
X711688Y566873D01*
X711676Y566856D01*
X711660Y566844D01*
X711604Y566757D01*
X711544Y566673D01*
X711538Y566654D01*
X711527Y566637D01*
X711502Y566537D01*
X711472Y566438D01*
X711472Y566418D01*
X711467Y566399D01*
X711475Y566296D01*
X711478Y566192D01*
X711485Y566173D01*
X711487Y566153D01*
X711527Y566059D01*
X711563Y565961D01*
X711575Y565945D01*
X711583Y565927D01*
X711688Y565796D01*
X711869Y565615D01*
X711943Y565561D01*
X712013Y565502D01*
X712043Y565490D01*
X712069Y565471D01*
X712156Y565444D01*
X712241Y565410D01*
X712282Y565406D01*
X712304Y565399D01*
X712336Y565400D01*
X712407Y565392D01*
X720713Y565392D01*
X721239Y564866D01*
X721313Y564813D01*
X721383Y564753D01*
X721413Y564741D01*
X721439Y564722D01*
X721526Y564695D01*
X721611Y564661D01*
X721652Y564657D01*
X721674Y564650D01*
X721706Y564651D01*
X721777Y564643D01*
X752378Y564643D01*
X752468Y564657D01*
X752559Y564665D01*
X752589Y564677D01*
X752621Y564682D01*
X752701Y564725D01*
X752785Y564761D01*
X752817Y564787D01*
X752838Y564798D01*
X752860Y564821D01*
X752916Y564866D01*
X816701Y628651D01*
X853701Y628651D01*
X853792Y628665D01*
X853882Y628673D01*
X853912Y628685D01*
X853944Y628690D01*
X854025Y628733D01*
X854109Y628769D01*
X854141Y628795D01*
X854162Y628806D01*
X854173Y628817D01*
X854174Y628818D01*
X854186Y628831D01*
X854240Y628874D01*
X892809Y667443D01*
X892821Y667459D01*
X892836Y667472D01*
X892892Y667559D01*
X892953Y667643D01*
X892958Y667662D01*
X892969Y667679D01*
X892995Y667779D01*
X893025Y667878D01*
X893024Y667898D01*
X893029Y667917D01*
X893021Y668020D01*
X893019Y668124D01*
X893012Y668142D01*
X893010Y668162D01*
X892970Y668257D01*
X892934Y668355D01*
X892922Y668370D01*
X892914Y668389D01*
X892809Y668520D01*
X892174Y669154D01*
X892174Y677046D01*
X897838Y682710D01*
X897880Y682768D01*
X897930Y682820D01*
X897951Y682867D01*
X897982Y682909D01*
X898003Y682978D01*
X898033Y683043D01*
X898039Y683095D01*
X898054Y683145D01*
X898052Y683216D01*
X898060Y683287D01*
X898049Y683338D01*
X898048Y683390D01*
X898023Y683458D01*
X898008Y683528D01*
X897981Y683573D01*
X897963Y683621D01*
X897919Y683677D01*
X897882Y683739D01*
X897842Y683773D01*
X897810Y683813D01*
X897749Y683852D01*
X897695Y683899D01*
X897647Y683918D01*
X897603Y683946D01*
X897533Y683964D01*
X897467Y683991D01*
X897395Y683999D01*
X897364Y684007D01*
X897341Y684005D01*
X897300Y684009D01*
X880700Y684009D01*
X880629Y683998D01*
X880558Y683996D01*
X880509Y683978D01*
X880457Y683970D01*
X880394Y683936D01*
X880327Y683911D01*
X880286Y683879D01*
X880240Y683854D01*
X880190Y683802D01*
X880134Y683758D01*
X880106Y683714D01*
X880070Y683676D01*
X880040Y683611D01*
X880001Y683551D01*
X879989Y683500D01*
X879967Y683453D01*
X879959Y683382D01*
X879941Y683312D01*
X879945Y683260D01*
X879940Y683209D01*
X879955Y683138D01*
X879961Y683067D01*
X879981Y683019D01*
X879992Y682968D01*
X880029Y682907D01*
X880057Y682841D01*
X880102Y682785D01*
X880118Y682757D01*
X880136Y682742D01*
X880162Y682710D01*
X885826Y677046D01*
X885826Y669154D01*
X880246Y663574D01*
X872354Y663574D01*
X872228Y663701D01*
X872211Y663713D01*
X872199Y663728D01*
X872112Y663784D01*
X872028Y663845D01*
X872009Y663850D01*
X871992Y663861D01*
X871892Y663887D01*
X871793Y663917D01*
X871773Y663916D01*
X871753Y663921D01*
X871650Y663913D01*
X871547Y663911D01*
X871528Y663904D01*
X871508Y663902D01*
X871413Y663862D01*
X871316Y663826D01*
X871300Y663814D01*
X871282Y663806D01*
X871151Y663701D01*
X851339Y643889D01*
X729988Y643889D01*
X729898Y643875D01*
X729807Y643867D01*
X729778Y643855D01*
X729746Y643850D01*
X729665Y643807D01*
X729581Y643771D01*
X729549Y643745D01*
X729528Y643734D01*
X729527Y643733D01*
X729506Y643711D01*
X729450Y643666D01*
X697454Y611670D01*
X697408Y611607D01*
X697385Y611583D01*
X697381Y611573D01*
X697341Y611526D01*
X697329Y611496D01*
X697310Y611470D01*
X697283Y611383D01*
X697249Y611298D01*
X697245Y611257D01*
X697238Y611235D01*
X697239Y611203D01*
X697231Y611131D01*
X697231Y580892D01*
X696740Y580401D01*
X696687Y580327D01*
X696628Y580258D01*
X696615Y580228D01*
X696597Y580201D01*
X696570Y580114D01*
X696536Y580030D01*
X696531Y579989D01*
X696524Y579966D01*
X696525Y579934D01*
X696517Y579863D01*
X696517Y579704D01*
X694295Y577481D01*
X694261Y577434D01*
X694219Y577392D01*
X694189Y577334D01*
X694151Y577282D01*
X694145Y577262D01*
X693730Y576913D01*
X693715Y576895D01*
X693682Y576869D01*
X691381Y574568D01*
X690118Y574568D01*
X687528Y577158D01*
X687528Y577342D01*
X687525Y577362D01*
X687527Y577381D01*
X687505Y577483D01*
X687488Y577585D01*
X687479Y577602D01*
X687475Y577622D01*
X687421Y577711D01*
X687373Y577802D01*
X687359Y577816D01*
X687348Y577833D01*
X687270Y577900D01*
X687195Y577972D01*
X687177Y577980D01*
X687162Y577993D01*
X687065Y578032D01*
X686972Y578075D01*
X686952Y578077D01*
X686933Y578085D01*
X686767Y578103D01*
X686583Y578103D01*
X683992Y580693D01*
X683992Y580878D01*
X683989Y580897D01*
X683991Y580917D01*
X683969Y581018D01*
X683953Y581120D01*
X683943Y581138D01*
X683939Y581157D01*
X683886Y581246D01*
X683838Y581338D01*
X683823Y581351D01*
X683813Y581368D01*
X683734Y581436D01*
X683659Y581507D01*
X683641Y581515D01*
X683626Y581528D01*
X683530Y581567D01*
X683436Y581611D01*
X683416Y581613D01*
X683398Y581620D01*
X683231Y581639D01*
X683047Y581639D01*
X680457Y584229D01*
X680457Y584413D01*
X680454Y584433D01*
X680456Y584453D01*
X680434Y584554D01*
X680417Y584656D01*
X680408Y584673D01*
X680404Y584693D01*
X680350Y584782D01*
X680302Y584873D01*
X680288Y584887D01*
X680277Y584904D01*
X680199Y584971D01*
X680124Y585043D01*
X680106Y585051D01*
X680091Y585064D01*
X679994Y585103D01*
X679901Y585146D01*
X679881Y585148D01*
X679862Y585156D01*
X679696Y585174D01*
X679512Y585174D01*
X677358Y587328D01*
X677342Y587340D01*
X677329Y587355D01*
X677242Y587411D01*
X677158Y587471D01*
X677139Y587477D01*
X677122Y587488D01*
X677022Y587513D01*
X676923Y587544D01*
X676903Y587543D01*
X676884Y587548D01*
X676781Y587540D01*
X676677Y587537D01*
X676659Y587531D01*
X676639Y587529D01*
X676544Y587489D01*
X676446Y587453D01*
X676431Y587441D01*
X676412Y587433D01*
X676281Y587328D01*
X674135Y585181D01*
X673950Y585181D01*
X673930Y585178D01*
X673910Y585180D01*
X673809Y585158D01*
X673707Y585141D01*
X673689Y585132D01*
X673670Y585128D01*
X673581Y585075D01*
X673489Y585026D01*
X673476Y585012D01*
X673459Y585002D01*
X673391Y584923D01*
X673320Y584848D01*
X673312Y584830D01*
X673299Y584815D01*
X673260Y584718D01*
X673216Y584625D01*
X673214Y584605D01*
X673207Y584586D01*
X673188Y584420D01*
X673188Y584235D01*
X670598Y581645D01*
X670413Y581645D01*
X670394Y581641D01*
X670374Y581644D01*
X670272Y581622D01*
X670170Y581605D01*
X670153Y581596D01*
X670133Y581591D01*
X670044Y581538D01*
X669953Y581490D01*
X669939Y581475D01*
X669922Y581465D01*
X669855Y581386D01*
X669784Y581311D01*
X669775Y581293D01*
X669762Y581278D01*
X669724Y581182D01*
X669680Y581088D01*
X669678Y581069D01*
X669670Y581050D01*
X669652Y580883D01*
X669652Y580698D01*
X667062Y578108D01*
X666877Y578108D01*
X666857Y578105D01*
X666837Y578107D01*
X666736Y578085D01*
X666634Y578068D01*
X666616Y578059D01*
X666597Y578055D01*
X666508Y578002D01*
X666417Y577953D01*
X666403Y577939D01*
X666386Y577929D01*
X666318Y577850D01*
X666247Y577775D01*
X666239Y577757D01*
X666226Y577742D01*
X666187Y577646D01*
X666144Y577552D01*
X666141Y577532D01*
X666134Y577514D01*
X666116Y577347D01*
X666116Y577162D01*
X663525Y574572D01*
X663340Y574572D01*
X663321Y574569D01*
X663301Y574571D01*
X663200Y574549D01*
X663098Y574532D01*
X663080Y574523D01*
X663061Y574518D01*
X662972Y574465D01*
X662880Y574417D01*
X662867Y574402D01*
X662849Y574392D01*
X662782Y574314D01*
X662711Y574239D01*
X662702Y574221D01*
X662690Y574205D01*
X662651Y574109D01*
X662607Y574015D01*
X662605Y573996D01*
X662598Y573977D01*
X662579Y573810D01*
X662579Y573626D01*
X659989Y571035D01*
X659804Y571035D01*
X659784Y571032D01*
X659764Y571034D01*
X659663Y571012D01*
X659561Y570996D01*
X659544Y570986D01*
X659524Y570982D01*
X659435Y570929D01*
X659344Y570880D01*
X659330Y570866D01*
X659313Y570856D01*
X659246Y570777D01*
X659174Y570702D01*
X659166Y570684D01*
X659153Y570669D01*
X659114Y570573D01*
X659071Y570479D01*
X659069Y570459D01*
X659061Y570441D01*
X659043Y570274D01*
X659043Y570089D01*
X656452Y567499D01*
X656267Y567499D01*
X656248Y567496D01*
X656228Y567498D01*
X656127Y567476D01*
X656025Y567459D01*
X656007Y567450D01*
X655988Y567446D01*
X655899Y567392D01*
X655807Y567344D01*
X655794Y567330D01*
X655777Y567319D01*
X655709Y567241D01*
X655638Y567166D01*
X655630Y567148D01*
X655617Y567133D01*
X655578Y567036D01*
X655534Y566943D01*
X655532Y566923D01*
X655525Y566904D01*
X655506Y566738D01*
X655506Y566553D01*
X652916Y563962D01*
X652731Y563962D01*
X652711Y563959D01*
X652692Y563961D01*
X652590Y563939D01*
X652488Y563923D01*
X652471Y563913D01*
X652451Y563909D01*
X652362Y563856D01*
X652271Y563808D01*
X652257Y563793D01*
X652240Y563783D01*
X652173Y563704D01*
X652102Y563629D01*
X652093Y563611D01*
X652080Y563596D01*
X652041Y563500D01*
X651998Y563406D01*
X651996Y563386D01*
X651988Y563368D01*
X651970Y563201D01*
X651970Y563016D01*
X649380Y560426D01*
X649195Y560426D01*
X649175Y560423D01*
X649155Y560425D01*
X649054Y560403D01*
X648952Y560386D01*
X648934Y560377D01*
X648915Y560373D01*
X648826Y560320D01*
X648735Y560271D01*
X648721Y560257D01*
X648704Y560247D01*
X648636Y560168D01*
X648565Y560093D01*
X648557Y560075D01*
X648544Y560060D01*
X648505Y559963D01*
X648462Y559870D01*
X648459Y559850D01*
X648452Y559832D01*
X648433Y559665D01*
X648433Y559480D01*
X645843Y556890D01*
X645658Y556890D01*
X645639Y556886D01*
X645619Y556889D01*
X645518Y556867D01*
X645415Y556850D01*
X645398Y556841D01*
X645378Y556836D01*
X645289Y556783D01*
X645198Y556735D01*
X645184Y556720D01*
X645167Y556710D01*
X645100Y556631D01*
X645029Y556556D01*
X645020Y556538D01*
X645007Y556523D01*
X644969Y556427D01*
X644925Y556333D01*
X644923Y556314D01*
X644915Y556295D01*
X644897Y556128D01*
X644897Y555943D01*
X642307Y553353D01*
X641044Y553353D01*
X635908Y558489D01*
X635908Y559931D01*
X635893Y560021D01*
X635886Y560112D01*
X635873Y560142D01*
X635868Y560174D01*
X635825Y560254D01*
X635790Y560338D01*
X635764Y560370D01*
X635753Y560391D01*
X635730Y560413D01*
X635685Y560469D01*
X634745Y561409D01*
X634745Y570237D01*
X634731Y570328D01*
X634723Y570418D01*
X634711Y570448D01*
X634706Y570480D01*
X634663Y570561D01*
X634627Y570645D01*
X634601Y570677D01*
X634590Y570698D01*
X634567Y570720D01*
X634522Y570776D01*
X625234Y580064D01*
X625218Y580075D01*
X625206Y580091D01*
X625118Y580147D01*
X625035Y580207D01*
X625016Y580213D01*
X624999Y580224D01*
X624898Y580249D01*
X624800Y580280D01*
X624780Y580279D01*
X624760Y580284D01*
X624657Y580276D01*
X624554Y580273D01*
X624535Y580266D01*
X624515Y580265D01*
X624420Y580224D01*
X624323Y580189D01*
X624307Y580176D01*
X624289Y580168D01*
X624158Y580064D01*
X619730Y575636D01*
X619677Y575562D01*
X619617Y575492D01*
X619605Y575462D01*
X619586Y575436D01*
X619559Y575349D01*
X619525Y575264D01*
X619521Y575223D01*
X619514Y575201D01*
X619515Y575169D01*
X619507Y575097D01*
X619507Y568147D01*
X619521Y568057D01*
X619529Y567966D01*
X619541Y567936D01*
X619546Y567904D01*
X619589Y567824D01*
X619625Y567740D01*
X619651Y567708D01*
X619662Y567687D01*
X619685Y567665D01*
X619730Y567609D01*
X631846Y555492D01*
X631920Y555439D01*
X631989Y555380D01*
X632019Y555368D01*
X632046Y555349D01*
X632133Y555322D01*
X632218Y555288D01*
X632258Y555283D01*
X632281Y555277D01*
X632313Y555277D01*
X632384Y555269D01*
X632688Y555269D01*
X637824Y550134D01*
X637824Y548871D01*
X635234Y546280D01*
X635049Y546280D01*
X635029Y546277D01*
X635009Y546279D01*
X634908Y546257D01*
X634806Y546241D01*
X634789Y546231D01*
X634769Y546227D01*
X634680Y546174D01*
X634589Y546126D01*
X634575Y546111D01*
X634558Y546101D01*
X634491Y546022D01*
X634419Y545947D01*
X634411Y545929D01*
X634398Y545914D01*
X634359Y545818D01*
X634316Y545724D01*
X634314Y545704D01*
X634306Y545686D01*
X634288Y545519D01*
X634288Y545334D01*
X631697Y542744D01*
X630434Y542744D01*
X625299Y547880D01*
X625299Y548184D01*
X625284Y548274D01*
X625277Y548365D01*
X625264Y548395D01*
X625259Y548427D01*
X625216Y548507D01*
X625180Y548591D01*
X625155Y548623D01*
X625144Y548644D01*
X625120Y548666D01*
X625076Y548722D01*
X613951Y559846D01*
X613877Y559899D01*
X613808Y559959D01*
X613778Y559971D01*
X613752Y559990D01*
X613665Y560017D01*
X613580Y560051D01*
X613539Y560055D01*
X613517Y560062D01*
X613484Y560061D01*
X613413Y560069D01*
X604479Y560069D01*
X604389Y560055D01*
X604298Y560047D01*
X604268Y560035D01*
X604236Y560030D01*
X604155Y559987D01*
X604071Y559951D01*
X604039Y559925D01*
X604019Y559914D01*
X603996Y559891D01*
X603940Y559846D01*
X599141Y555047D01*
X599113Y555047D01*
X599023Y555032D01*
X598932Y555025D01*
X598902Y555012D01*
X598870Y555007D01*
X598790Y554964D01*
X598706Y554929D01*
X598674Y554903D01*
X598653Y554892D01*
X598631Y554869D01*
X598575Y554824D01*
X598486Y554735D01*
X597854Y554735D01*
X589136Y563453D01*
X589062Y563507D01*
X588992Y563566D01*
X588962Y563578D01*
X588936Y563597D01*
X588849Y563624D01*
X588764Y563658D01*
X588723Y563663D01*
X588701Y563669D01*
X588669Y563669D01*
X588598Y563676D01*
X586801Y563676D01*
X582012Y568466D01*
X581995Y568478D01*
X581983Y568493D01*
X581896Y568549D01*
X581812Y568610D01*
X581793Y568615D01*
X581776Y568626D01*
X581676Y568652D01*
X581577Y568682D01*
X581557Y568681D01*
X581537Y568686D01*
X581435Y568678D01*
X581331Y568676D01*
X581312Y568669D01*
X581292Y568667D01*
X581197Y568627D01*
X581100Y568591D01*
X581084Y568579D01*
X581066Y568571D01*
X580935Y568466D01*
X576633Y564164D01*
X575370Y564164D01*
X569244Y570290D01*
X569244Y571553D01*
X576678Y578987D01*
X577941Y578987D01*
X582335Y574593D01*
X582409Y574540D01*
X582478Y574481D01*
X582508Y574468D01*
X582534Y574450D01*
X582621Y574423D01*
X582706Y574389D01*
X582747Y574384D01*
X582769Y574377D01*
X582802Y574378D01*
X582873Y574370D01*
X584012Y574370D01*
X585816Y572567D01*
X585832Y572555D01*
X585844Y572539D01*
X585932Y572483D01*
X586016Y572423D01*
X586035Y572417D01*
X586051Y572406D01*
X586152Y572381D01*
X586251Y572351D01*
X586271Y572351D01*
X586290Y572346D01*
X586393Y572354D01*
X586497Y572357D01*
X586515Y572364D01*
X586535Y572365D01*
X586630Y572406D01*
X586728Y572441D01*
X586743Y572454D01*
X586761Y572462D01*
X586892Y572567D01*
X592221Y577895D01*
X593265Y577895D01*
X593355Y577910D01*
X593446Y577917D01*
X593476Y577930D01*
X593508Y577935D01*
X593589Y577978D01*
X593673Y578014D01*
X593705Y578039D01*
X593725Y578050D01*
X593748Y578074D01*
X593804Y578118D01*
X601712Y586026D01*
X601765Y586100D01*
X601824Y586170D01*
X601836Y586200D01*
X601855Y586226D01*
X601882Y586313D01*
X601916Y586398D01*
X601921Y586439D01*
X601928Y586461D01*
X601927Y586493D01*
X601935Y586565D01*
X601935Y587609D01*
X607263Y592938D01*
X607275Y592954D01*
X607291Y592966D01*
X607347Y593053D01*
X607407Y593137D01*
X607413Y593156D01*
X607424Y593173D01*
X607449Y593274D01*
X607479Y593372D01*
X607479Y593392D01*
X607484Y593412D01*
X607476Y593515D01*
X607473Y593618D01*
X607466Y593637D01*
X607465Y593657D01*
X607424Y593752D01*
X607389Y593849D01*
X607376Y593865D01*
X607368Y593883D01*
X607263Y594014D01*
X605460Y595818D01*
X605460Y596957D01*
X605445Y597047D01*
X605438Y597138D01*
X605425Y597168D01*
X605420Y597200D01*
X605377Y597280D01*
X605342Y597364D01*
X605316Y597396D01*
X605305Y597417D01*
X605282Y597439D01*
X605237Y597495D01*
X600843Y601889D01*
X600843Y603152D01*
X607433Y609742D01*
X607445Y609758D01*
X607461Y609771D01*
X607517Y609858D01*
X607577Y609942D01*
X607583Y609961D01*
X607594Y609978D01*
X607619Y610078D01*
X607649Y610177D01*
X607649Y610197D01*
X607654Y610216D01*
X607646Y610319D01*
X607643Y610423D01*
X607636Y610442D01*
X607634Y610461D01*
X607594Y610556D01*
X607558Y610654D01*
X607546Y610670D01*
X607538Y610688D01*
X607433Y610819D01*
X552900Y665352D01*
X552884Y665364D01*
X552871Y665379D01*
X552784Y665435D01*
X552700Y665496D01*
X552681Y665501D01*
X552665Y665512D01*
X552564Y665538D01*
X552465Y665568D01*
X552445Y665567D01*
X552426Y665572D01*
X552323Y665564D01*
X552219Y665562D01*
X552201Y665555D01*
X552181Y665553D01*
X552086Y665513D01*
X551988Y665477D01*
X551973Y665465D01*
X551954Y665457D01*
X551823Y665352D01*
X550046Y663574D01*
X542154Y663574D01*
X536574Y669154D01*
X536574Y677046D01*
X542238Y682710D01*
X542280Y682768D01*
X542330Y682820D01*
X542351Y682867D01*
X542382Y682909D01*
X542403Y682978D01*
X542433Y683043D01*
X542439Y683095D01*
X542454Y683145D01*
X542452Y683216D01*
X542460Y683287D01*
X542449Y683338D01*
X542448Y683390D01*
X542423Y683458D01*
X542408Y683528D01*
X542381Y683573D01*
X542363Y683621D01*
X542319Y683677D01*
X542282Y683739D01*
X542242Y683773D01*
X542210Y683813D01*
X542149Y683852D01*
X542095Y683899D01*
X542047Y683918D01*
X542003Y683946D01*
X541933Y683964D01*
X541867Y683991D01*
X541795Y683999D01*
X541764Y684007D01*
X541741Y684005D01*
X541700Y684009D01*
X525393Y684009D01*
X525322Y683998D01*
X525250Y683996D01*
X525201Y683978D01*
X525150Y683970D01*
X525086Y683936D01*
X525019Y683911D01*
X524978Y683879D01*
X524932Y683854D01*
X524883Y683802D01*
X524827Y683758D01*
X524799Y683714D01*
X524763Y683676D01*
X524733Y683611D01*
X524694Y683551D01*
X524681Y683500D01*
X524659Y683453D01*
X524652Y683382D01*
X524634Y683312D01*
X524638Y683260D01*
X524632Y683209D01*
X524648Y683138D01*
X524653Y683067D01*
X524674Y683019D01*
X524685Y682968D01*
X524721Y682907D01*
X524749Y682841D01*
X524794Y682785D01*
X524811Y682757D01*
X524829Y682742D01*
X524854Y682710D01*
X530380Y677184D01*
X530380Y669293D01*
X529345Y668258D01*
X529333Y668242D01*
X529318Y668229D01*
X529261Y668142D01*
X529201Y668058D01*
X529195Y668039D01*
X529185Y668022D01*
X529159Y667922D01*
X529129Y667823D01*
X529129Y667803D01*
X529124Y667784D01*
X529132Y667681D01*
X529135Y667577D01*
X529142Y667558D01*
X529144Y667538D01*
X529184Y667444D01*
X529220Y667346D01*
X529232Y667330D01*
X529240Y667312D01*
X529345Y667181D01*
X562357Y634169D01*
X562357Y545481D01*
X562371Y545391D01*
X562379Y545300D01*
X562391Y545271D01*
X562396Y545239D01*
X562439Y545158D01*
X562475Y545074D01*
X562501Y545042D01*
X562512Y545021D01*
X562535Y544999D01*
X562580Y544943D01*
X564619Y542904D01*
X564619Y539136D01*
X561954Y536471D01*
X558186Y536471D01*
X555521Y539136D01*
X555521Y542904D01*
X557560Y544943D01*
X557613Y545017D01*
X557673Y545087D01*
X557685Y545117D01*
X557704Y545143D01*
X557731Y545230D01*
X557765Y545315D01*
X557769Y545356D01*
X557776Y545378D01*
X557775Y545410D01*
X557783Y545481D01*
X557783Y631959D01*
X557769Y632050D01*
X557761Y632140D01*
X557749Y632170D01*
X557744Y632202D01*
X557701Y632283D01*
X557665Y632367D01*
X557639Y632399D01*
X557628Y632420D01*
X557605Y632442D01*
X557560Y632498D01*
X526111Y663947D01*
X526095Y663959D01*
X526082Y663974D01*
X525995Y664031D01*
X525911Y664091D01*
X525892Y664097D01*
X525875Y664107D01*
X525775Y664133D01*
X525676Y664163D01*
X525656Y664163D01*
X525637Y664168D01*
X525534Y664160D01*
X525430Y664157D01*
X525411Y664150D01*
X525392Y664148D01*
X525297Y664108D01*
X525199Y664072D01*
X525183Y664060D01*
X525165Y664052D01*
X525034Y663947D01*
X524800Y663713D01*
X516908Y663713D01*
X511328Y669293D01*
X511328Y677184D01*
X516854Y682710D01*
X516896Y682768D01*
X516945Y682820D01*
X516967Y682867D01*
X516997Y682909D01*
X517018Y682978D01*
X517049Y683043D01*
X517054Y683095D01*
X517070Y683145D01*
X517068Y683216D01*
X517076Y683287D01*
X517065Y683338D01*
X517063Y683390D01*
X517039Y683458D01*
X517024Y683528D01*
X516997Y683573D01*
X516979Y683621D01*
X516934Y683677D01*
X516897Y683739D01*
X516858Y683773D01*
X516825Y683813D01*
X516765Y683852D01*
X516710Y683899D01*
X516662Y683918D01*
X516618Y683946D01*
X516549Y683964D01*
X516482Y683991D01*
X516411Y683999D01*
X516380Y684007D01*
X516356Y684005D01*
X516316Y684009D01*
X474300Y684009D01*
X474229Y683998D01*
X474158Y683996D01*
X474109Y683978D01*
X474057Y683970D01*
X473994Y683936D01*
X473927Y683911D01*
X473886Y683879D01*
X473840Y683854D01*
X473790Y683802D01*
X473734Y683758D01*
X473706Y683714D01*
X473670Y683676D01*
X473640Y683611D01*
X473601Y683551D01*
X473589Y683500D01*
X473567Y683453D01*
X473559Y683382D01*
X473541Y683312D01*
X473545Y683260D01*
X473540Y683209D01*
X473555Y683138D01*
X473561Y683067D01*
X473581Y683019D01*
X473592Y682968D01*
X473629Y682907D01*
X473657Y682841D01*
X473702Y682785D01*
X473718Y682757D01*
X473736Y682742D01*
X473762Y682710D01*
X479426Y677046D01*
X479426Y669154D01*
X474188Y663916D01*
X474135Y663842D01*
X474075Y663773D01*
X474063Y663743D01*
X474044Y663717D01*
X474017Y663630D01*
X473983Y663545D01*
X473979Y663504D01*
X473972Y663481D01*
X473973Y663449D01*
X473965Y663378D01*
X473965Y625348D01*
X473968Y625328D01*
X473966Y625309D01*
X473988Y625207D01*
X474004Y625105D01*
X474014Y625088D01*
X474018Y625068D01*
X474071Y624979D01*
X474120Y624888D01*
X474134Y624874D01*
X474144Y624857D01*
X474223Y624790D01*
X474298Y624718D01*
X474316Y624710D01*
X474331Y624697D01*
X474427Y624658D01*
X474521Y624615D01*
X474541Y624613D01*
X474559Y624605D01*
X474726Y624587D01*
X481546Y624587D01*
X481566Y624590D01*
X481585Y624588D01*
X481687Y624610D01*
X481789Y624626D01*
X481806Y624636D01*
X481826Y624640D01*
X481915Y624693D01*
X482006Y624742D01*
X482020Y624756D01*
X482037Y624766D01*
X482104Y624845D01*
X482176Y624920D01*
X482184Y624938D01*
X482197Y624953D01*
X482236Y625049D01*
X482279Y625143D01*
X482281Y625163D01*
X482289Y625181D01*
X482307Y625348D01*
X482307Y630464D01*
X483200Y631357D01*
X494464Y631357D01*
X495357Y630464D01*
X495357Y618200D01*
X494464Y617307D01*
X483200Y617307D01*
X482307Y618200D01*
X482307Y619252D01*
X482304Y619272D01*
X482306Y619291D01*
X482284Y619393D01*
X482268Y619495D01*
X482258Y619512D01*
X482254Y619532D01*
X482201Y619621D01*
X482152Y619712D01*
X482138Y619726D01*
X482128Y619743D01*
X482049Y619810D01*
X481974Y619882D01*
X481956Y619890D01*
X481941Y619903D01*
X481845Y619942D01*
X481751Y619985D01*
X481731Y619987D01*
X481713Y619995D01*
X481546Y620013D01*
X474726Y620013D01*
X474706Y620010D01*
X474687Y620012D01*
X474585Y619990D01*
X474483Y619974D01*
X474466Y619964D01*
X474446Y619960D01*
X474357Y619907D01*
X474266Y619858D01*
X474252Y619844D01*
X474235Y619834D01*
X474168Y619755D01*
X474096Y619680D01*
X474088Y619662D01*
X474075Y619647D01*
X474036Y619551D01*
X473993Y619457D01*
X473991Y619437D01*
X473983Y619419D01*
X473965Y619252D01*
X473965Y604496D01*
X472156Y602687D01*
X472103Y602613D01*
X472043Y602544D01*
X472031Y602514D01*
X472012Y602488D01*
X471985Y602401D01*
X471951Y602316D01*
X471947Y602275D01*
X471940Y602252D01*
X471941Y602220D01*
X471933Y602149D01*
X471933Y551401D01*
X471947Y551311D01*
X471955Y551220D01*
X471967Y551190D01*
X471972Y551158D01*
X472015Y551078D01*
X472051Y550994D01*
X472077Y550961D01*
X472088Y550941D01*
X472111Y550919D01*
X472156Y550863D01*
X475289Y547730D01*
X475363Y547677D01*
X475432Y547617D01*
X475462Y547605D01*
X475488Y547586D01*
X475576Y547559D01*
X475660Y547525D01*
X475701Y547521D01*
X475724Y547514D01*
X475756Y547515D01*
X475827Y547507D01*
X537996Y547507D01*
X548133Y537370D01*
X548133Y519397D01*
X548147Y519307D01*
X548155Y519216D01*
X548167Y519186D01*
X548172Y519154D01*
X548215Y519074D01*
X548251Y518990D01*
X548277Y518958D01*
X548288Y518937D01*
X548311Y518915D01*
X548356Y518859D01*
X548461Y518754D01*
X548477Y518742D01*
X548490Y518726D01*
X548576Y518670D01*
X548661Y518610D01*
X548680Y518604D01*
X548696Y518593D01*
X548797Y518568D01*
X548896Y518538D01*
X548916Y518538D01*
X548935Y518533D01*
X549038Y518541D01*
G37*
G36*
X464821Y383552D02*
X464821Y383552D01*
X464892Y383554D01*
X464941Y383572D01*
X464993Y383580D01*
X465056Y383614D01*
X465123Y383639D01*
X465164Y383671D01*
X465210Y383696D01*
X465260Y383748D01*
X465316Y383792D01*
X465344Y383836D01*
X465380Y383874D01*
X465410Y383939D01*
X465449Y383999D01*
X465461Y384050D01*
X465483Y384097D01*
X465491Y384168D01*
X465509Y384238D01*
X465505Y384290D01*
X465510Y384341D01*
X465495Y384412D01*
X465489Y384483D01*
X465469Y384531D01*
X465458Y384582D01*
X465421Y384643D01*
X465393Y384709D01*
X465348Y384765D01*
X465332Y384793D01*
X465314Y384808D01*
X465288Y384840D01*
X460374Y389754D01*
X460374Y397646D01*
X465612Y402884D01*
X465665Y402958D01*
X465725Y403027D01*
X465737Y403057D01*
X465756Y403083D01*
X465783Y403170D01*
X465817Y403255D01*
X465821Y403296D01*
X465828Y403319D01*
X465827Y403351D01*
X465835Y403422D01*
X465835Y474124D01*
X465832Y474144D01*
X465834Y474163D01*
X465812Y474265D01*
X465796Y474367D01*
X465786Y474384D01*
X465782Y474404D01*
X465729Y474493D01*
X465680Y474584D01*
X465666Y474598D01*
X465656Y474615D01*
X465577Y474682D01*
X465502Y474754D01*
X465484Y474762D01*
X465469Y474775D01*
X465373Y474814D01*
X465279Y474857D01*
X465259Y474859D01*
X465241Y474867D01*
X465074Y474885D01*
X460230Y474885D01*
X459337Y475778D01*
X459337Y497042D01*
X460230Y497935D01*
X473823Y497935D01*
X473913Y497949D01*
X474004Y497957D01*
X474034Y497969D01*
X474066Y497974D01*
X474146Y498017D01*
X474230Y498053D01*
X474263Y498079D01*
X474283Y498090D01*
X474305Y498113D01*
X474361Y498158D01*
X477848Y501645D01*
X477860Y501661D01*
X477876Y501673D01*
X477932Y501760D01*
X477992Y501844D01*
X477998Y501864D01*
X478009Y501880D01*
X478034Y501981D01*
X478064Y502080D01*
X478064Y502100D01*
X478069Y502119D01*
X478061Y502222D01*
X478058Y502325D01*
X478051Y502344D01*
X478050Y502364D01*
X478009Y502459D01*
X477973Y502556D01*
X477961Y502572D01*
X477953Y502590D01*
X477848Y502721D01*
X477265Y503304D01*
X477265Y526920D01*
X478158Y527813D01*
X491614Y527813D01*
X492507Y526920D01*
X492507Y503304D01*
X491614Y502411D01*
X489712Y502411D01*
X489692Y502408D01*
X489673Y502410D01*
X489571Y502388D01*
X489469Y502372D01*
X489452Y502362D01*
X489432Y502358D01*
X489343Y502305D01*
X489252Y502256D01*
X489238Y502242D01*
X489221Y502232D01*
X489154Y502153D01*
X489082Y502078D01*
X489074Y502060D01*
X489061Y502045D01*
X489022Y501949D01*
X488979Y501855D01*
X488977Y501835D01*
X488969Y501817D01*
X488951Y501650D01*
X488951Y501250D01*
X477610Y489909D01*
X477557Y489835D01*
X477497Y489766D01*
X477485Y489736D01*
X477466Y489710D01*
X477439Y489623D01*
X477405Y489538D01*
X477401Y489497D01*
X477394Y489474D01*
X477395Y489442D01*
X477387Y489371D01*
X477387Y475778D01*
X476494Y474885D01*
X474726Y474885D01*
X474706Y474882D01*
X474687Y474884D01*
X474585Y474862D01*
X474483Y474846D01*
X474466Y474836D01*
X474446Y474832D01*
X474357Y474779D01*
X474266Y474730D01*
X474252Y474716D01*
X474235Y474706D01*
X474168Y474627D01*
X474096Y474552D01*
X474088Y474534D01*
X474075Y474519D01*
X474036Y474423D01*
X473993Y474329D01*
X473991Y474309D01*
X473983Y474291D01*
X473965Y474124D01*
X473965Y403422D01*
X473979Y403332D01*
X473987Y403241D01*
X473999Y403211D01*
X474004Y403179D01*
X474047Y403099D01*
X474083Y403015D01*
X474109Y402983D01*
X474120Y402962D01*
X474143Y402940D01*
X474188Y402884D01*
X479426Y397646D01*
X479426Y389754D01*
X474512Y384840D01*
X474470Y384782D01*
X474420Y384730D01*
X474399Y384683D01*
X474368Y384641D01*
X474347Y384572D01*
X474317Y384507D01*
X474311Y384455D01*
X474296Y384405D01*
X474298Y384334D01*
X474290Y384263D01*
X474301Y384212D01*
X474302Y384160D01*
X474327Y384092D01*
X474342Y384022D01*
X474369Y383977D01*
X474387Y383929D01*
X474431Y383873D01*
X474468Y383811D01*
X474508Y383777D01*
X474540Y383737D01*
X474601Y383698D01*
X474655Y383651D01*
X474703Y383632D01*
X474747Y383604D01*
X474817Y383586D01*
X474883Y383559D01*
X474955Y383551D01*
X474986Y383543D01*
X475009Y383545D01*
X475050Y383541D01*
X515550Y383541D01*
X515621Y383552D01*
X515692Y383554D01*
X515741Y383572D01*
X515793Y383580D01*
X515856Y383614D01*
X515923Y383639D01*
X515964Y383671D01*
X516010Y383696D01*
X516060Y383748D01*
X516116Y383792D01*
X516144Y383836D01*
X516180Y383874D01*
X516210Y383939D01*
X516249Y383999D01*
X516261Y384050D01*
X516283Y384097D01*
X516291Y384168D01*
X516309Y384238D01*
X516305Y384290D01*
X516310Y384341D01*
X516295Y384412D01*
X516289Y384483D01*
X516269Y384531D01*
X516258Y384582D01*
X516221Y384643D01*
X516193Y384709D01*
X516148Y384765D01*
X516132Y384793D01*
X516114Y384808D01*
X516088Y384840D01*
X511174Y389754D01*
X511174Y397646D01*
X516754Y403226D01*
X524646Y403226D01*
X525280Y402591D01*
X525297Y402579D01*
X525309Y402564D01*
X525396Y402508D01*
X525480Y402447D01*
X525499Y402442D01*
X525516Y402431D01*
X525617Y402405D01*
X525715Y402375D01*
X525735Y402376D01*
X525755Y402371D01*
X525858Y402379D01*
X525961Y402381D01*
X525980Y402388D01*
X526000Y402390D01*
X526095Y402430D01*
X526192Y402466D01*
X526208Y402478D01*
X526226Y402486D01*
X526357Y402591D01*
X536517Y412751D01*
X573031Y412751D01*
X573122Y412765D01*
X573212Y412773D01*
X573242Y412785D01*
X573274Y412790D01*
X573355Y412833D01*
X573439Y412869D01*
X573471Y412895D01*
X573492Y412906D01*
X573514Y412929D01*
X573570Y412974D01*
X592612Y432016D01*
X592665Y432090D01*
X592725Y432160D01*
X592737Y432190D01*
X592756Y432216D01*
X592783Y432303D01*
X592817Y432388D01*
X592821Y432429D01*
X592828Y432451D01*
X592827Y432483D01*
X592835Y432555D01*
X592835Y493961D01*
X594398Y495524D01*
X598081Y499207D01*
X598092Y499223D01*
X598108Y499235D01*
X598164Y499323D01*
X598224Y499406D01*
X598230Y499425D01*
X598241Y499442D01*
X598266Y499543D01*
X598297Y499642D01*
X598296Y499661D01*
X598301Y499681D01*
X598293Y499784D01*
X598290Y499887D01*
X598283Y499906D01*
X598282Y499926D01*
X598242Y500021D01*
X598206Y500118D01*
X598193Y500134D01*
X598186Y500152D01*
X598081Y500283D01*
X578372Y519992D01*
X578298Y520045D01*
X578228Y520105D01*
X578198Y520117D01*
X578172Y520136D01*
X578085Y520163D01*
X578000Y520197D01*
X577959Y520201D01*
X577937Y520208D01*
X577905Y520207D01*
X577833Y520215D01*
X574950Y520215D01*
X572285Y522880D01*
X572285Y526648D01*
X574950Y529313D01*
X577101Y529313D01*
X577172Y529324D01*
X577244Y529326D01*
X577293Y529344D01*
X577344Y529352D01*
X577408Y529386D01*
X577475Y529411D01*
X577516Y529443D01*
X577562Y529468D01*
X577611Y529520D01*
X577667Y529564D01*
X577695Y529608D01*
X577731Y529646D01*
X577761Y529711D01*
X577800Y529771D01*
X577813Y529822D01*
X577835Y529869D01*
X577843Y529940D01*
X577860Y530010D01*
X577856Y530062D01*
X577862Y530113D01*
X577846Y530184D01*
X577841Y530255D01*
X577821Y530303D01*
X577809Y530354D01*
X577773Y530415D01*
X577745Y530481D01*
X577700Y530537D01*
X577683Y530565D01*
X577666Y530580D01*
X577640Y530612D01*
X577108Y531144D01*
X577034Y531198D01*
X576964Y531257D01*
X576934Y531269D01*
X576908Y531288D01*
X576821Y531315D01*
X576736Y531349D01*
X576695Y531353D01*
X576673Y531360D01*
X576641Y531359D01*
X576569Y531367D01*
X572527Y531367D01*
X572436Y531353D01*
X572346Y531345D01*
X572316Y531333D01*
X572284Y531328D01*
X572203Y531285D01*
X572119Y531249D01*
X572087Y531223D01*
X572066Y531212D01*
X572044Y531189D01*
X571988Y531144D01*
X554567Y513723D01*
X554556Y513707D01*
X554540Y513695D01*
X554484Y513607D01*
X554424Y513524D01*
X554418Y513505D01*
X554407Y513488D01*
X554382Y513387D01*
X554352Y513289D01*
X554352Y513269D01*
X554347Y513249D01*
X554355Y513146D01*
X554358Y513043D01*
X554365Y513024D01*
X554366Y513004D01*
X554407Y512909D01*
X554442Y512812D01*
X554455Y512796D01*
X554463Y512778D01*
X554567Y512647D01*
X578105Y489110D01*
X578105Y464907D01*
X578124Y464792D01*
X578141Y464676D01*
X578143Y464671D01*
X578144Y464664D01*
X578199Y464562D01*
X578252Y464457D01*
X578257Y464453D01*
X578260Y464447D01*
X578344Y464367D01*
X578428Y464285D01*
X578434Y464281D01*
X578438Y464278D01*
X578455Y464270D01*
X578575Y464204D01*
X579220Y463937D01*
X581793Y461364D01*
X583185Y458003D01*
X583185Y439125D01*
X581793Y435764D01*
X579220Y433191D01*
X575859Y431799D01*
X572221Y431799D01*
X568860Y433191D01*
X566287Y435764D01*
X564895Y439125D01*
X564895Y458003D01*
X566287Y461364D01*
X568860Y463937D01*
X569505Y464204D01*
X569605Y464265D01*
X569705Y464325D01*
X569709Y464330D01*
X569714Y464333D01*
X569788Y464423D01*
X569865Y464512D01*
X569867Y464518D01*
X569871Y464523D01*
X569913Y464631D01*
X569957Y464740D01*
X569958Y464748D01*
X569959Y464753D01*
X569960Y464771D01*
X569975Y464907D01*
X569975Y485427D01*
X569961Y485517D01*
X569953Y485608D01*
X569941Y485638D01*
X569936Y485670D01*
X569893Y485750D01*
X569857Y485834D01*
X569831Y485866D01*
X569820Y485887D01*
X569797Y485909D01*
X569752Y485965D01*
X558724Y496993D01*
X558666Y497035D01*
X558614Y497085D01*
X558567Y497107D01*
X558525Y497137D01*
X558456Y497158D01*
X558391Y497188D01*
X558339Y497194D01*
X558289Y497209D01*
X558218Y497207D01*
X558147Y497215D01*
X558096Y497204D01*
X558044Y497203D01*
X557976Y497178D01*
X557906Y497163D01*
X557861Y497136D01*
X557813Y497118D01*
X557757Y497074D01*
X557695Y497037D01*
X557661Y496997D01*
X557621Y496965D01*
X557582Y496904D01*
X557535Y496850D01*
X557516Y496802D01*
X557488Y496758D01*
X557470Y496688D01*
X557443Y496622D01*
X557435Y496550D01*
X557427Y496519D01*
X557429Y496496D01*
X557425Y496455D01*
X557425Y475778D01*
X556532Y474885D01*
X553226Y474885D01*
X553206Y474882D01*
X553187Y474884D01*
X553085Y474862D01*
X552983Y474846D01*
X552966Y474836D01*
X552946Y474832D01*
X552857Y474779D01*
X552766Y474730D01*
X552752Y474716D01*
X552735Y474706D01*
X552668Y474627D01*
X552596Y474552D01*
X552588Y474534D01*
X552575Y474519D01*
X552536Y474423D01*
X552493Y474329D01*
X552491Y474309D01*
X552483Y474291D01*
X552465Y474124D01*
X552465Y465007D01*
X552484Y464892D01*
X552501Y464776D01*
X552503Y464770D01*
X552504Y464764D01*
X552559Y464661D01*
X552612Y464556D01*
X552617Y464552D01*
X552620Y464546D01*
X552704Y464467D01*
X552788Y464384D01*
X552794Y464381D01*
X552798Y464377D01*
X552815Y464369D01*
X552859Y464345D01*
X552860Y464344D01*
X552864Y464342D01*
X552935Y464303D01*
X553820Y463937D01*
X556393Y461364D01*
X557785Y458003D01*
X557785Y439125D01*
X556393Y435764D01*
X553820Y433191D01*
X550459Y431799D01*
X546821Y431799D01*
X543460Y433191D01*
X540887Y435764D01*
X539495Y439125D01*
X539495Y458003D01*
X540887Y461364D01*
X543460Y463937D01*
X543865Y464104D01*
X543965Y464166D01*
X544065Y464226D01*
X544069Y464231D01*
X544074Y464234D01*
X544149Y464324D01*
X544225Y464413D01*
X544227Y464419D01*
X544231Y464424D01*
X544273Y464532D01*
X544317Y464641D01*
X544318Y464649D01*
X544319Y464653D01*
X544320Y464671D01*
X544335Y464808D01*
X544335Y474124D01*
X544332Y474144D01*
X544334Y474163D01*
X544312Y474265D01*
X544296Y474367D01*
X544286Y474384D01*
X544282Y474404D01*
X544229Y474493D01*
X544180Y474584D01*
X544166Y474598D01*
X544156Y474615D01*
X544077Y474682D01*
X544002Y474754D01*
X543984Y474762D01*
X543969Y474775D01*
X543873Y474814D01*
X543779Y474857D01*
X543759Y474859D01*
X543741Y474867D01*
X543574Y474885D01*
X540268Y474885D01*
X539375Y475778D01*
X539375Y497042D01*
X540268Y497935D01*
X540705Y497935D01*
X540776Y497946D01*
X540848Y497948D01*
X540896Y497966D01*
X540948Y497974D01*
X541011Y498008D01*
X541079Y498033D01*
X541119Y498065D01*
X541165Y498090D01*
X541215Y498142D01*
X541271Y498186D01*
X541299Y498230D01*
X541335Y498268D01*
X541365Y498333D01*
X541404Y498393D01*
X541416Y498444D01*
X541438Y498491D01*
X541446Y498562D01*
X541464Y498632D01*
X541460Y498684D01*
X541465Y498735D01*
X541450Y498806D01*
X541444Y498877D01*
X541424Y498925D01*
X541413Y498976D01*
X541376Y499037D01*
X541348Y499103D01*
X541303Y499159D01*
X541287Y499187D01*
X541269Y499202D01*
X541243Y499234D01*
X538289Y502188D01*
X538215Y502241D01*
X538146Y502301D01*
X538116Y502313D01*
X538090Y502332D01*
X538002Y502359D01*
X537918Y502393D01*
X537877Y502397D01*
X537854Y502404D01*
X537822Y502403D01*
X537751Y502411D01*
X524386Y502411D01*
X523493Y503304D01*
X523493Y526920D01*
X524386Y527813D01*
X537842Y527813D01*
X538704Y526951D01*
X538762Y526909D01*
X538814Y526859D01*
X538861Y526837D01*
X538903Y526807D01*
X538972Y526786D01*
X539037Y526756D01*
X539089Y526750D01*
X539139Y526735D01*
X539210Y526737D01*
X539281Y526729D01*
X539332Y526740D01*
X539384Y526741D01*
X539452Y526766D01*
X539522Y526781D01*
X539567Y526808D01*
X539615Y526825D01*
X539671Y526870D01*
X539733Y526907D01*
X539767Y526947D01*
X539807Y526979D01*
X539846Y527039D01*
X539893Y527094D01*
X539912Y527142D01*
X539940Y527186D01*
X539958Y527256D01*
X539985Y527322D01*
X539993Y527393D01*
X540001Y527425D01*
X539999Y527448D01*
X540003Y527489D01*
X540003Y533687D01*
X539989Y533777D01*
X539981Y533868D01*
X539969Y533898D01*
X539964Y533930D01*
X539921Y534010D01*
X539885Y534094D01*
X539859Y534126D01*
X539848Y534147D01*
X539825Y534169D01*
X539780Y534225D01*
X534851Y539154D01*
X534777Y539207D01*
X534708Y539267D01*
X534678Y539279D01*
X534652Y539298D01*
X534565Y539325D01*
X534480Y539359D01*
X534439Y539363D01*
X534416Y539370D01*
X534384Y539369D01*
X534313Y539377D01*
X472144Y539377D01*
X466407Y545114D01*
X463803Y547718D01*
X463803Y605832D01*
X465612Y607641D01*
X465665Y607715D01*
X465725Y607784D01*
X465737Y607814D01*
X465756Y607840D01*
X465783Y607927D01*
X465817Y608012D01*
X465821Y608053D01*
X465828Y608076D01*
X465827Y608108D01*
X465835Y608179D01*
X465835Y663378D01*
X465821Y663468D01*
X465813Y663559D01*
X465801Y663589D01*
X465796Y663621D01*
X465753Y663701D01*
X465717Y663785D01*
X465691Y663817D01*
X465680Y663838D01*
X465657Y663860D01*
X465612Y663916D01*
X460374Y669154D01*
X460374Y677046D01*
X466038Y682710D01*
X466080Y682768D01*
X466130Y682820D01*
X466151Y682867D01*
X466182Y682909D01*
X466203Y682978D01*
X466233Y683043D01*
X466239Y683095D01*
X466254Y683145D01*
X466252Y683216D01*
X466260Y683287D01*
X466249Y683338D01*
X466248Y683390D01*
X466223Y683458D01*
X466208Y683528D01*
X466181Y683573D01*
X466163Y683621D01*
X466119Y683677D01*
X466082Y683739D01*
X466042Y683773D01*
X466010Y683813D01*
X465949Y683852D01*
X465895Y683899D01*
X465847Y683918D01*
X465803Y683946D01*
X465733Y683964D01*
X465667Y683991D01*
X465595Y683999D01*
X465564Y684007D01*
X465541Y684005D01*
X465500Y684009D01*
X454002Y684009D01*
X453982Y684006D01*
X453963Y684008D01*
X453861Y683986D01*
X453759Y683970D01*
X453742Y683960D01*
X453722Y683956D01*
X453633Y683903D01*
X453542Y683854D01*
X453528Y683840D01*
X453511Y683830D01*
X453444Y683751D01*
X453372Y683676D01*
X453364Y683658D01*
X453351Y683643D01*
X453312Y683547D01*
X453269Y683453D01*
X453267Y683433D01*
X453259Y683415D01*
X453241Y683248D01*
X453241Y384302D01*
X453244Y384282D01*
X453242Y384263D01*
X453264Y384161D01*
X453280Y384059D01*
X453290Y384042D01*
X453294Y384022D01*
X453347Y383933D01*
X453396Y383842D01*
X453410Y383828D01*
X453420Y383811D01*
X453499Y383744D01*
X453574Y383672D01*
X453592Y383664D01*
X453607Y383651D01*
X453703Y383612D01*
X453797Y383569D01*
X453817Y383567D01*
X453835Y383559D01*
X454002Y383541D01*
X464750Y383541D01*
X464821Y383552D01*
G37*
G36*
X896621Y383552D02*
X896621Y383552D01*
X896692Y383554D01*
X896741Y383572D01*
X896793Y383580D01*
X896856Y383614D01*
X896923Y383639D01*
X896964Y383671D01*
X897010Y383696D01*
X897060Y383748D01*
X897116Y383792D01*
X897144Y383836D01*
X897180Y383874D01*
X897210Y383939D01*
X897249Y383999D01*
X897261Y384050D01*
X897283Y384097D01*
X897291Y384168D01*
X897309Y384238D01*
X897305Y384290D01*
X897310Y384341D01*
X897295Y384412D01*
X897289Y384483D01*
X897269Y384531D01*
X897258Y384582D01*
X897221Y384643D01*
X897193Y384709D01*
X897148Y384765D01*
X897132Y384793D01*
X897114Y384808D01*
X897088Y384840D01*
X892174Y389754D01*
X892174Y397646D01*
X897754Y403226D01*
X899160Y403226D01*
X899180Y403229D01*
X899199Y403227D01*
X899301Y403249D01*
X899403Y403265D01*
X899420Y403275D01*
X899440Y403279D01*
X899529Y403332D01*
X899620Y403381D01*
X899634Y403395D01*
X899651Y403405D01*
X899718Y403484D01*
X899790Y403559D01*
X899798Y403577D01*
X899811Y403592D01*
X899850Y403688D01*
X899893Y403782D01*
X899895Y403802D01*
X899903Y403820D01*
X899921Y403987D01*
X899921Y410479D01*
X899907Y410569D01*
X899899Y410660D01*
X899887Y410690D01*
X899882Y410722D01*
X899839Y410802D01*
X899803Y410886D01*
X899777Y410918D01*
X899766Y410939D01*
X899743Y410961D01*
X899698Y411017D01*
X882187Y428528D01*
X882113Y428581D01*
X882044Y428641D01*
X882014Y428653D01*
X881987Y428672D01*
X881901Y428699D01*
X881816Y428733D01*
X881775Y428737D01*
X881752Y428744D01*
X881720Y428743D01*
X881649Y428751D01*
X840555Y428751D01*
X787684Y481622D01*
X787626Y481664D01*
X787574Y481713D01*
X787527Y481735D01*
X787485Y481765D01*
X787416Y481786D01*
X787351Y481817D01*
X787299Y481822D01*
X787249Y481838D01*
X787178Y481836D01*
X787107Y481844D01*
X787056Y481833D01*
X787004Y481831D01*
X786936Y481807D01*
X786866Y481792D01*
X786821Y481765D01*
X786773Y481747D01*
X786717Y481702D01*
X786655Y481665D01*
X786621Y481626D01*
X786581Y481593D01*
X786542Y481533D01*
X786495Y481478D01*
X786476Y481430D01*
X786448Y481386D01*
X786430Y481317D01*
X786403Y481250D01*
X786395Y481179D01*
X786387Y481148D01*
X786389Y481124D01*
X786385Y481084D01*
X786385Y455003D01*
X786399Y454913D01*
X786407Y454822D01*
X786419Y454792D01*
X786424Y454760D01*
X786467Y454680D01*
X786503Y454596D01*
X786529Y454564D01*
X786540Y454543D01*
X786563Y454521D01*
X786608Y454465D01*
X789542Y451531D01*
X789542Y450267D01*
X781873Y442599D01*
X781861Y442583D01*
X781846Y442570D01*
X781790Y442483D01*
X781730Y442399D01*
X781724Y442380D01*
X781713Y442363D01*
X781688Y442263D01*
X781657Y442164D01*
X781658Y442144D01*
X781653Y442125D01*
X781661Y442022D01*
X781664Y441918D01*
X781670Y441899D01*
X781672Y441880D01*
X781712Y441785D01*
X781748Y441687D01*
X781761Y441671D01*
X781768Y441653D01*
X781873Y441522D01*
X794166Y429230D01*
X794240Y429177D01*
X794309Y429117D01*
X794339Y429105D01*
X794365Y429086D01*
X794452Y429059D01*
X794537Y429025D01*
X794578Y429021D01*
X794601Y429014D01*
X794633Y429015D01*
X794704Y429007D01*
X817550Y429007D01*
X819112Y427444D01*
X829265Y417292D01*
X829339Y417239D01*
X829408Y417179D01*
X829438Y417167D01*
X829465Y417148D01*
X829551Y417121D01*
X829636Y417087D01*
X829677Y417083D01*
X829700Y417076D01*
X829732Y417077D01*
X829803Y417069D01*
X886391Y417069D01*
X890764Y412696D01*
X890838Y412643D01*
X890908Y412583D01*
X890938Y412571D01*
X890964Y412552D01*
X891051Y412525D01*
X891136Y412491D01*
X891177Y412487D01*
X891199Y412480D01*
X891231Y412481D01*
X891303Y412473D01*
X894186Y412473D01*
X896851Y409808D01*
X896851Y406040D01*
X894186Y403375D01*
X890418Y403375D01*
X887753Y406040D01*
X887753Y408923D01*
X887739Y409014D01*
X887731Y409104D01*
X887719Y409134D01*
X887714Y409166D01*
X887671Y409247D01*
X887635Y409331D01*
X887609Y409363D01*
X887598Y409384D01*
X887575Y409406D01*
X887530Y409462D01*
X884720Y412272D01*
X884646Y412325D01*
X884576Y412385D01*
X884546Y412397D01*
X884520Y412416D01*
X884433Y412443D01*
X884348Y412477D01*
X884307Y412481D01*
X884285Y412488D01*
X884253Y412487D01*
X884181Y412495D01*
X862576Y412495D01*
X862505Y412484D01*
X862432Y412482D01*
X862384Y412464D01*
X862334Y412456D01*
X862270Y412422D01*
X862202Y412397D01*
X862162Y412364D01*
X862116Y412340D01*
X862066Y412288D01*
X862010Y412242D01*
X861982Y412199D01*
X861947Y412162D01*
X861916Y412096D01*
X861877Y412035D01*
X861865Y411986D01*
X861843Y411939D01*
X861835Y411867D01*
X861818Y411797D01*
X861822Y411746D01*
X861816Y411695D01*
X861832Y411624D01*
X861837Y411551D01*
X861858Y411504D01*
X861868Y411454D01*
X861906Y411392D01*
X861934Y411325D01*
X861978Y411271D01*
X861995Y411243D01*
X862013Y411228D01*
X862021Y411218D01*
X862022Y411216D01*
X862023Y411215D01*
X862039Y411195D01*
X862047Y411187D01*
X870643Y402591D01*
X870659Y402579D01*
X870672Y402564D01*
X870759Y402508D01*
X870843Y402447D01*
X870862Y402442D01*
X870878Y402431D01*
X870979Y402405D01*
X871078Y402375D01*
X871098Y402376D01*
X871117Y402371D01*
X871220Y402379D01*
X871324Y402381D01*
X871342Y402388D01*
X871362Y402390D01*
X871457Y402430D01*
X871555Y402466D01*
X871570Y402478D01*
X871589Y402486D01*
X871720Y402591D01*
X872354Y403226D01*
X880246Y403226D01*
X885826Y397646D01*
X885826Y389754D01*
X880912Y384840D01*
X880870Y384782D01*
X880820Y384730D01*
X880799Y384683D01*
X880768Y384641D01*
X880747Y384572D01*
X880717Y384507D01*
X880711Y384455D01*
X880696Y384405D01*
X880698Y384334D01*
X880690Y384263D01*
X880701Y384212D01*
X880702Y384160D01*
X880727Y384092D01*
X880742Y384022D01*
X880769Y383977D01*
X880787Y383929D01*
X880831Y383873D01*
X880868Y383811D01*
X880908Y383777D01*
X880940Y383737D01*
X881001Y383698D01*
X881055Y383651D01*
X881103Y383632D01*
X881147Y383604D01*
X881217Y383586D01*
X881283Y383559D01*
X881355Y383551D01*
X881386Y383543D01*
X881409Y383545D01*
X881450Y383541D01*
X896550Y383541D01*
X896621Y383552D01*
G37*
G36*
X633566Y583189D02*
X633566Y583189D01*
X633618Y583191D01*
X633686Y583215D01*
X633756Y583230D01*
X633801Y583257D01*
X633849Y583275D01*
X633905Y583320D01*
X633967Y583357D01*
X634001Y583396D01*
X634041Y583429D01*
X634080Y583489D01*
X634127Y583544D01*
X634146Y583592D01*
X634174Y583636D01*
X634192Y583705D01*
X634219Y583772D01*
X634227Y583843D01*
X634235Y583874D01*
X634233Y583898D01*
X634237Y583938D01*
X634237Y641865D01*
X634223Y641956D01*
X634215Y642046D01*
X634203Y642076D01*
X634198Y642108D01*
X634155Y642189D01*
X634119Y642273D01*
X634093Y642305D01*
X634082Y642326D01*
X634059Y642348D01*
X634014Y642404D01*
X607383Y669035D01*
X607367Y669047D01*
X607354Y669062D01*
X607267Y669118D01*
X607183Y669179D01*
X607164Y669184D01*
X607147Y669195D01*
X607047Y669221D01*
X606948Y669251D01*
X606928Y669250D01*
X606909Y669255D01*
X606806Y669247D01*
X606702Y669245D01*
X606684Y669238D01*
X606664Y669236D01*
X606569Y669196D01*
X606471Y669160D01*
X606456Y669148D01*
X606437Y669140D01*
X606306Y669035D01*
X600846Y663574D01*
X592954Y663574D01*
X587374Y669154D01*
X587374Y677046D01*
X593038Y682710D01*
X593080Y682768D01*
X593130Y682820D01*
X593151Y682867D01*
X593182Y682909D01*
X593203Y682978D01*
X593233Y683043D01*
X593239Y683095D01*
X593254Y683145D01*
X593252Y683216D01*
X593260Y683287D01*
X593249Y683338D01*
X593248Y683390D01*
X593223Y683458D01*
X593208Y683528D01*
X593181Y683573D01*
X593163Y683621D01*
X593119Y683677D01*
X593082Y683739D01*
X593042Y683773D01*
X593010Y683813D01*
X592949Y683852D01*
X592895Y683899D01*
X592847Y683918D01*
X592803Y683946D01*
X592733Y683964D01*
X592667Y683991D01*
X592595Y683999D01*
X592564Y684007D01*
X592541Y684005D01*
X592500Y684009D01*
X575900Y684009D01*
X575829Y683998D01*
X575758Y683996D01*
X575709Y683978D01*
X575657Y683970D01*
X575594Y683936D01*
X575527Y683911D01*
X575486Y683879D01*
X575440Y683854D01*
X575390Y683802D01*
X575334Y683758D01*
X575306Y683714D01*
X575270Y683676D01*
X575240Y683611D01*
X575201Y683551D01*
X575189Y683500D01*
X575167Y683453D01*
X575159Y683382D01*
X575141Y683312D01*
X575145Y683260D01*
X575140Y683209D01*
X575155Y683138D01*
X575161Y683067D01*
X575181Y683019D01*
X575192Y682968D01*
X575229Y682907D01*
X575257Y682841D01*
X575302Y682785D01*
X575318Y682757D01*
X575336Y682742D01*
X575362Y682710D01*
X581026Y677046D01*
X581026Y669154D01*
X575446Y663574D01*
X574548Y663574D01*
X574528Y663571D01*
X574509Y663573D01*
X574407Y663551D01*
X574305Y663535D01*
X574288Y663525D01*
X574268Y663521D01*
X574179Y663468D01*
X574088Y663419D01*
X574074Y663405D01*
X574057Y663395D01*
X573990Y663316D01*
X573918Y663241D01*
X573910Y663223D01*
X573897Y663208D01*
X573858Y663112D01*
X573815Y663018D01*
X573813Y662998D01*
X573805Y662980D01*
X573787Y662813D01*
X573787Y657091D01*
X573801Y657000D01*
X573809Y656910D01*
X573821Y656880D01*
X573826Y656848D01*
X573869Y656767D01*
X573905Y656683D01*
X573931Y656651D01*
X573942Y656630D01*
X573965Y656608D01*
X574010Y656552D01*
X622555Y608007D01*
X622555Y594099D01*
X622569Y594008D01*
X622577Y593918D01*
X622589Y593888D01*
X622594Y593856D01*
X622637Y593775D01*
X622673Y593691D01*
X622699Y593659D01*
X622710Y593638D01*
X622733Y593616D01*
X622778Y593560D01*
X632938Y583400D01*
X632996Y583358D01*
X633048Y583309D01*
X633095Y583287D01*
X633137Y583257D01*
X633206Y583236D01*
X633271Y583205D01*
X633323Y583200D01*
X633373Y583184D01*
X633444Y583186D01*
X633515Y583178D01*
X633566Y583189D01*
G37*
G36*
X676858Y502349D02*
X676858Y502349D01*
X676962Y502351D01*
X676981Y502358D01*
X677001Y502360D01*
X677095Y502400D01*
X677193Y502436D01*
X677209Y502448D01*
X677227Y502456D01*
X677358Y502561D01*
X687965Y513168D01*
X706299Y531501D01*
X706310Y531518D01*
X706326Y531530D01*
X706382Y531617D01*
X706442Y531701D01*
X706448Y531720D01*
X706459Y531737D01*
X706484Y531838D01*
X706514Y531936D01*
X706514Y531956D01*
X706519Y531976D01*
X706511Y532078D01*
X706508Y532182D01*
X706501Y532201D01*
X706500Y532221D01*
X706459Y532316D01*
X706424Y532413D01*
X706411Y532429D01*
X706403Y532447D01*
X706299Y532578D01*
X687527Y551350D01*
X677358Y561518D01*
X677342Y561530D01*
X677329Y561546D01*
X677242Y561602D01*
X677158Y561662D01*
X677139Y561668D01*
X677123Y561679D01*
X677022Y561704D01*
X676923Y561734D01*
X676903Y561734D01*
X676884Y561739D01*
X676781Y561731D01*
X676677Y561728D01*
X676659Y561721D01*
X676639Y561720D01*
X676544Y561679D01*
X676446Y561644D01*
X676431Y561631D01*
X676412Y561623D01*
X676282Y561518D01*
X647341Y532578D01*
X647329Y532562D01*
X647314Y532549D01*
X647258Y532462D01*
X647197Y532378D01*
X647192Y532359D01*
X647181Y532342D01*
X647155Y532242D01*
X647125Y532143D01*
X647126Y532123D01*
X647121Y532104D01*
X647129Y532001D01*
X647131Y531897D01*
X647138Y531879D01*
X647140Y531859D01*
X647180Y531764D01*
X647216Y531666D01*
X647228Y531651D01*
X647236Y531632D01*
X647341Y531501D01*
X676281Y502561D01*
X676298Y502549D01*
X676310Y502534D01*
X676397Y502478D01*
X676481Y502417D01*
X676500Y502412D01*
X676517Y502401D01*
X676618Y502375D01*
X676716Y502345D01*
X676736Y502346D01*
X676756Y502341D01*
X676858Y502349D01*
G37*
G36*
X656541Y580672D02*
X656541Y580672D01*
X656644Y580675D01*
X656663Y580682D01*
X656683Y580683D01*
X656778Y580724D01*
X656875Y580759D01*
X656891Y580772D01*
X656909Y580780D01*
X657040Y580885D01*
X657382Y581227D01*
X657435Y581301D01*
X657495Y581370D01*
X657507Y581400D01*
X657526Y581426D01*
X657553Y581513D01*
X657587Y581598D01*
X657591Y581639D01*
X657598Y581661D01*
X657597Y581694D01*
X657605Y581765D01*
X657605Y618421D01*
X695990Y656806D01*
X696043Y656880D01*
X696103Y656950D01*
X696115Y656980D01*
X696134Y657006D01*
X696161Y657093D01*
X696195Y657178D01*
X696199Y657219D01*
X696206Y657241D01*
X696205Y657273D01*
X696213Y657345D01*
X696213Y662813D01*
X696210Y662833D01*
X696212Y662852D01*
X696190Y662954D01*
X696174Y663056D01*
X696164Y663073D01*
X696160Y663093D01*
X696107Y663182D01*
X696058Y663273D01*
X696044Y663287D01*
X696034Y663304D01*
X695955Y663371D01*
X695880Y663443D01*
X695862Y663451D01*
X695847Y663464D01*
X695751Y663503D01*
X695657Y663546D01*
X695637Y663548D01*
X695619Y663556D01*
X695452Y663574D01*
X694554Y663574D01*
X688974Y669154D01*
X688974Y677046D01*
X694638Y682710D01*
X694680Y682768D01*
X694730Y682820D01*
X694751Y682867D01*
X694782Y682909D01*
X694803Y682978D01*
X694833Y683043D01*
X694839Y683095D01*
X694854Y683145D01*
X694852Y683216D01*
X694860Y683287D01*
X694849Y683338D01*
X694848Y683390D01*
X694823Y683458D01*
X694808Y683528D01*
X694781Y683573D01*
X694763Y683621D01*
X694719Y683677D01*
X694682Y683739D01*
X694642Y683773D01*
X694610Y683813D01*
X694549Y683852D01*
X694495Y683899D01*
X694447Y683918D01*
X694403Y683946D01*
X694333Y683964D01*
X694267Y683991D01*
X694195Y683999D01*
X694164Y684007D01*
X694141Y684005D01*
X694100Y684009D01*
X677500Y684009D01*
X677429Y683998D01*
X677358Y683996D01*
X677309Y683978D01*
X677257Y683970D01*
X677194Y683936D01*
X677127Y683911D01*
X677086Y683879D01*
X677040Y683854D01*
X676990Y683802D01*
X676934Y683758D01*
X676906Y683714D01*
X676870Y683676D01*
X676840Y683611D01*
X676801Y683551D01*
X676789Y683500D01*
X676767Y683453D01*
X676759Y683382D01*
X676741Y683312D01*
X676745Y683260D01*
X676740Y683209D01*
X676755Y683138D01*
X676761Y683067D01*
X676781Y683019D01*
X676792Y682968D01*
X676829Y682907D01*
X676857Y682841D01*
X676902Y682785D01*
X676918Y682757D01*
X676936Y682742D01*
X676962Y682710D01*
X682626Y677046D01*
X682626Y669154D01*
X677046Y663574D01*
X669154Y663574D01*
X668520Y664209D01*
X668503Y664221D01*
X668491Y664236D01*
X668404Y664292D01*
X668320Y664353D01*
X668301Y664358D01*
X668284Y664369D01*
X668184Y664395D01*
X668085Y664425D01*
X668065Y664424D01*
X668045Y664429D01*
X667943Y664421D01*
X667839Y664419D01*
X667820Y664412D01*
X667800Y664410D01*
X667705Y664370D01*
X667608Y664334D01*
X667592Y664322D01*
X667574Y664314D01*
X667443Y664209D01*
X648686Y645452D01*
X648633Y645378D01*
X648573Y645308D01*
X648561Y645278D01*
X648542Y645252D01*
X648515Y645165D01*
X648481Y645080D01*
X648477Y645039D01*
X648470Y645017D01*
X648471Y644985D01*
X648463Y644913D01*
X648463Y588701D01*
X648477Y588611D01*
X648485Y588520D01*
X648497Y588490D01*
X648502Y588458D01*
X648545Y588377D01*
X648581Y588294D01*
X648607Y588261D01*
X648618Y588241D01*
X648641Y588219D01*
X648686Y588163D01*
X655964Y580885D01*
X655980Y580873D01*
X655992Y580857D01*
X656080Y580801D01*
X656163Y580741D01*
X656183Y580735D01*
X656199Y580724D01*
X656300Y580699D01*
X656399Y580669D01*
X656419Y580669D01*
X656438Y580664D01*
X656541Y580672D01*
G37*
G36*
X705683Y425970D02*
X705683Y425970D01*
X705755Y425972D01*
X705804Y425990D01*
X705855Y425998D01*
X705918Y426032D01*
X705986Y426057D01*
X706026Y426089D01*
X706072Y426114D01*
X706122Y426166D01*
X706178Y426210D01*
X706206Y426254D01*
X706242Y426292D01*
X706272Y426357D01*
X706311Y426417D01*
X706323Y426468D01*
X706345Y426515D01*
X706353Y426586D01*
X706371Y426656D01*
X706367Y426708D01*
X706372Y426759D01*
X706357Y426830D01*
X706352Y426901D01*
X706331Y426949D01*
X706320Y427000D01*
X706283Y427061D01*
X706255Y427127D01*
X706210Y427183D01*
X706194Y427211D01*
X706176Y427226D01*
X706150Y427258D01*
X684052Y449356D01*
X683978Y449409D01*
X683909Y449469D01*
X683879Y449481D01*
X683853Y449500D01*
X683766Y449527D01*
X683681Y449561D01*
X683640Y449565D01*
X683618Y449572D01*
X683585Y449571D01*
X683514Y449579D01*
X660469Y449579D01*
X658906Y451142D01*
X650815Y459233D01*
X649252Y460796D01*
X649252Y466577D01*
X649237Y466667D01*
X649230Y466758D01*
X649223Y466774D01*
X649223Y468815D01*
X650679Y470271D01*
X650684Y470273D01*
X650716Y470299D01*
X650737Y470310D01*
X650759Y470333D01*
X650815Y470378D01*
X654625Y474188D01*
X654667Y474246D01*
X654716Y474298D01*
X654738Y474345D01*
X654768Y474387D01*
X654789Y474456D01*
X654820Y474521D01*
X654825Y474573D01*
X654841Y474623D01*
X654839Y474694D01*
X654847Y474765D01*
X654836Y474816D01*
X654834Y474868D01*
X654810Y474936D01*
X654794Y475006D01*
X654768Y475051D01*
X654750Y475099D01*
X654705Y475155D01*
X654668Y475217D01*
X654629Y475251D01*
X654596Y475291D01*
X654536Y475330D01*
X654481Y475377D01*
X654433Y475396D01*
X654389Y475424D01*
X654320Y475442D01*
X654253Y475469D01*
X654182Y475477D01*
X654151Y475485D01*
X654127Y475483D01*
X654086Y475487D01*
X653535Y475487D01*
X653444Y475473D01*
X653354Y475465D01*
X653324Y475453D01*
X653292Y475448D01*
X653211Y475405D01*
X653127Y475369D01*
X653095Y475343D01*
X653074Y475332D01*
X653052Y475309D01*
X652996Y475264D01*
X638018Y460286D01*
X637965Y460212D01*
X637905Y460142D01*
X637893Y460112D01*
X637874Y460086D01*
X637847Y459999D01*
X637813Y459914D01*
X637809Y459873D01*
X637802Y459851D01*
X637803Y459819D01*
X637795Y459747D01*
X637795Y442461D01*
X637809Y442370D01*
X637817Y442280D01*
X637829Y442250D01*
X637834Y442218D01*
X637877Y442137D01*
X637913Y442053D01*
X637939Y442021D01*
X637950Y442000D01*
X637973Y441978D01*
X638018Y441922D01*
X653758Y426182D01*
X653832Y426129D01*
X653902Y426069D01*
X653932Y426057D01*
X653958Y426038D01*
X654045Y426011D01*
X654130Y425977D01*
X654171Y425973D01*
X654193Y425966D01*
X654225Y425967D01*
X654297Y425959D01*
X705612Y425959D01*
X705683Y425970D01*
G37*
G36*
X790726Y424446D02*
X790726Y424446D01*
X790797Y424448D01*
X790846Y424466D01*
X790898Y424474D01*
X790961Y424508D01*
X791028Y424533D01*
X791069Y424565D01*
X791115Y424590D01*
X791165Y424642D01*
X791221Y424686D01*
X791249Y424730D01*
X791285Y424768D01*
X791315Y424833D01*
X791354Y424893D01*
X791366Y424944D01*
X791388Y424991D01*
X791396Y425062D01*
X791414Y425132D01*
X791410Y425184D01*
X791415Y425235D01*
X791400Y425306D01*
X791394Y425377D01*
X791374Y425425D01*
X791363Y425476D01*
X791326Y425537D01*
X791298Y425603D01*
X791253Y425659D01*
X791237Y425687D01*
X791219Y425702D01*
X791193Y425734D01*
X778602Y438325D01*
X778528Y438378D01*
X778459Y438438D01*
X778453Y438440D01*
X766710Y450183D01*
X766694Y450195D01*
X766681Y450210D01*
X766594Y450266D01*
X766510Y450326D01*
X766491Y450332D01*
X766475Y450343D01*
X766374Y450368D01*
X766275Y450399D01*
X766255Y450398D01*
X766236Y450403D01*
X766133Y450395D01*
X766029Y450392D01*
X766011Y450386D01*
X765991Y450384D01*
X765896Y450344D01*
X765798Y450308D01*
X765783Y450296D01*
X765764Y450288D01*
X765633Y450183D01*
X757354Y441904D01*
X756091Y441904D01*
X754088Y443907D01*
X754071Y443919D01*
X754059Y443935D01*
X753972Y443991D01*
X753888Y444051D01*
X753869Y444057D01*
X753852Y444068D01*
X753752Y444093D01*
X753653Y444123D01*
X753633Y444123D01*
X753613Y444128D01*
X753511Y444120D01*
X753407Y444117D01*
X753388Y444110D01*
X753368Y444109D01*
X753273Y444068D01*
X753176Y444033D01*
X753160Y444020D01*
X753142Y444012D01*
X753011Y443907D01*
X742712Y433608D01*
X720313Y433608D01*
X720242Y433596D01*
X720171Y433595D01*
X720122Y433577D01*
X720070Y433568D01*
X720007Y433535D01*
X719940Y433510D01*
X719899Y433478D01*
X719853Y433453D01*
X719804Y433401D01*
X719748Y433356D01*
X719720Y433313D01*
X719684Y433275D01*
X719653Y433210D01*
X719615Y433149D01*
X719602Y433099D01*
X719580Y433052D01*
X719572Y432980D01*
X719555Y432911D01*
X719559Y432859D01*
X719553Y432807D01*
X719568Y432737D01*
X719574Y432666D01*
X719594Y432618D01*
X719605Y432567D01*
X719642Y432505D01*
X719670Y432439D01*
X719715Y432383D01*
X719731Y432356D01*
X719749Y432341D01*
X719775Y432308D01*
X727426Y424658D01*
X727500Y424605D01*
X727569Y424545D01*
X727599Y424533D01*
X727625Y424514D01*
X727712Y424487D01*
X727797Y424453D01*
X727838Y424449D01*
X727860Y424442D01*
X727893Y424443D01*
X727964Y424435D01*
X790655Y424435D01*
X790726Y424446D01*
G37*
G36*
X711480Y445279D02*
X711480Y445279D01*
X711584Y445282D01*
X711602Y445288D01*
X711622Y445290D01*
X711717Y445330D01*
X711815Y445366D01*
X711830Y445379D01*
X711848Y445386D01*
X711979Y445491D01*
X717970Y451482D01*
X718022Y451490D01*
X718094Y451492D01*
X718143Y451510D01*
X718194Y451518D01*
X718257Y451552D01*
X718325Y451577D01*
X718366Y451609D01*
X718411Y451634D01*
X718461Y451685D01*
X718517Y451730D01*
X718545Y451774D01*
X718581Y451812D01*
X718611Y451877D01*
X718650Y451937D01*
X718663Y451988D01*
X718684Y452035D01*
X718692Y452106D01*
X718710Y452176D01*
X718706Y452228D01*
X718712Y452279D01*
X718696Y452350D01*
X718691Y452421D01*
X718670Y452469D01*
X718659Y452520D01*
X718622Y452581D01*
X718594Y452647D01*
X718550Y452703D01*
X718533Y452731D01*
X718515Y452746D01*
X718490Y452778D01*
X718100Y453168D01*
X718100Y454746D01*
X718091Y454804D01*
X718090Y454876D01*
X718081Y454901D01*
X718079Y454928D01*
X718065Y454962D01*
X718060Y454989D01*
X718034Y455040D01*
X718010Y455108D01*
X717993Y455130D01*
X717983Y455154D01*
X717953Y455191D01*
X717945Y455206D01*
X717929Y455222D01*
X717878Y455285D01*
X716161Y457002D01*
X716139Y457018D01*
X716122Y457038D01*
X716060Y457077D01*
X716017Y457114D01*
X715992Y457124D01*
X715961Y457146D01*
X715936Y457154D01*
X715913Y457168D01*
X715843Y457184D01*
X715789Y457206D01*
X715754Y457210D01*
X715726Y457218D01*
X715700Y457217D01*
X715673Y457223D01*
X715650Y457221D01*
X715622Y457224D01*
X714044Y457224D01*
X705372Y465896D01*
X705372Y467159D01*
X712609Y474395D01*
X712651Y474453D01*
X712700Y474505D01*
X712722Y474553D01*
X712752Y474595D01*
X712773Y474663D01*
X712804Y474728D01*
X712809Y474780D01*
X712825Y474830D01*
X712823Y474902D01*
X712831Y474973D01*
X712820Y475024D01*
X712818Y475076D01*
X712794Y475143D01*
X712779Y475213D01*
X712752Y475258D01*
X712734Y475307D01*
X712689Y475363D01*
X712652Y475424D01*
X712613Y475458D01*
X712580Y475499D01*
X712520Y475538D01*
X712465Y475584D01*
X712417Y475604D01*
X712373Y475632D01*
X712304Y475649D01*
X712287Y475656D01*
X700575Y487368D01*
X700501Y487422D01*
X700432Y487481D01*
X700401Y487493D01*
X700375Y487512D01*
X700288Y487539D01*
X700203Y487573D01*
X700162Y487577D01*
X700140Y487584D01*
X700108Y487583D01*
X700037Y487591D01*
X699733Y487591D01*
X694597Y492727D01*
X694597Y493990D01*
X697187Y496581D01*
X697372Y496581D01*
X697392Y496584D01*
X697411Y496582D01*
X697513Y496604D01*
X697615Y496620D01*
X697632Y496630D01*
X697652Y496634D01*
X697741Y496687D01*
X697832Y496735D01*
X697846Y496750D01*
X697863Y496760D01*
X697930Y496839D01*
X698001Y496914D01*
X698010Y496932D01*
X698023Y496947D01*
X698062Y497043D01*
X698105Y497137D01*
X698107Y497157D01*
X698115Y497175D01*
X698133Y497342D01*
X698133Y497527D01*
X700630Y500023D01*
X700642Y500040D01*
X700657Y500052D01*
X700713Y500139D01*
X700773Y500223D01*
X700779Y500242D01*
X700790Y500259D01*
X700815Y500359D01*
X700846Y500458D01*
X700845Y500478D01*
X700850Y500497D01*
X700842Y500600D01*
X700839Y500704D01*
X700833Y500723D01*
X700831Y500743D01*
X700791Y500838D01*
X700755Y500935D01*
X700742Y500951D01*
X700735Y500969D01*
X700630Y501100D01*
X695829Y505900D01*
X695829Y505901D01*
X694550Y507180D01*
X694534Y507191D01*
X694522Y507207D01*
X694434Y507263D01*
X694350Y507323D01*
X694331Y507329D01*
X694315Y507340D01*
X694214Y507365D01*
X694115Y507396D01*
X694095Y507395D01*
X694076Y507400D01*
X693973Y507392D01*
X693869Y507389D01*
X693851Y507382D01*
X693831Y507381D01*
X693736Y507340D01*
X693638Y507305D01*
X693623Y507292D01*
X693605Y507285D01*
X693474Y507180D01*
X680177Y493883D01*
X678942Y493883D01*
X678922Y493880D01*
X678903Y493882D01*
X678801Y493860D01*
X678699Y493843D01*
X678682Y493834D01*
X678662Y493830D01*
X678573Y493776D01*
X678482Y493728D01*
X678468Y493714D01*
X678451Y493703D01*
X678384Y493625D01*
X678312Y493550D01*
X678304Y493532D01*
X678291Y493517D01*
X678252Y493420D01*
X678209Y493327D01*
X678207Y493307D01*
X678199Y493288D01*
X678181Y493122D01*
X678181Y479412D01*
X678192Y479341D01*
X678194Y479270D01*
X678212Y479221D01*
X678220Y479169D01*
X678254Y479106D01*
X678279Y479039D01*
X678311Y478998D01*
X678336Y478952D01*
X678387Y478903D01*
X678432Y478847D01*
X678476Y478818D01*
X678514Y478783D01*
X678579Y478752D01*
X678639Y478714D01*
X678690Y478701D01*
X678737Y478679D01*
X678808Y478671D01*
X678878Y478653D01*
X678930Y478658D01*
X678981Y478652D01*
X679052Y478667D01*
X679123Y478673D01*
X679171Y478693D01*
X679222Y478704D01*
X679283Y478741D01*
X679349Y478769D01*
X679405Y478814D01*
X679433Y478830D01*
X679448Y478848D01*
X679480Y478874D01*
X679505Y478898D01*
X679690Y478898D01*
X679710Y478902D01*
X679729Y478899D01*
X679831Y478921D01*
X679933Y478938D01*
X679950Y478947D01*
X679970Y478952D01*
X680059Y479005D01*
X680150Y479053D01*
X680164Y479068D01*
X680181Y479078D01*
X680248Y479157D01*
X680319Y479232D01*
X680328Y479250D01*
X680341Y479265D01*
X680379Y479361D01*
X680423Y479455D01*
X680425Y479474D01*
X680433Y479493D01*
X680451Y479660D01*
X680451Y479845D01*
X683041Y482435D01*
X684304Y482435D01*
X689440Y477299D01*
X689440Y476995D01*
X689455Y476905D01*
X689462Y476814D01*
X689475Y476784D01*
X689480Y476752D01*
X689523Y476671D01*
X689558Y476588D01*
X689584Y476555D01*
X689595Y476535D01*
X689618Y476513D01*
X689663Y476457D01*
X691389Y474731D01*
X691389Y470400D01*
X691400Y470330D01*
X691402Y470258D01*
X691420Y470209D01*
X691428Y470158D01*
X691462Y470094D01*
X691487Y470027D01*
X691519Y469986D01*
X691544Y469940D01*
X691596Y469891D01*
X691640Y469835D01*
X691684Y469807D01*
X691722Y469771D01*
X691787Y469741D01*
X691847Y469702D01*
X691898Y469689D01*
X691945Y469667D01*
X692016Y469659D01*
X692086Y469642D01*
X692138Y469646D01*
X692189Y469640D01*
X692260Y469655D01*
X692331Y469661D01*
X692379Y469681D01*
X692430Y469692D01*
X692491Y469729D01*
X692557Y469757D01*
X692613Y469802D01*
X692641Y469819D01*
X692656Y469836D01*
X692688Y469862D01*
X693450Y470624D01*
X693503Y470698D01*
X693563Y470768D01*
X693575Y470798D01*
X693594Y470824D01*
X693621Y470911D01*
X693655Y470996D01*
X693659Y471037D01*
X693666Y471059D01*
X693665Y471091D01*
X693673Y471163D01*
X693673Y479757D01*
X693670Y479777D01*
X693672Y479797D01*
X693650Y479898D01*
X693634Y480000D01*
X693624Y480018D01*
X693620Y480037D01*
X693567Y480126D01*
X693518Y480217D01*
X693504Y480231D01*
X693494Y480248D01*
X693415Y480316D01*
X693340Y480387D01*
X693322Y480395D01*
X693307Y480408D01*
X693211Y480447D01*
X693117Y480490D01*
X693097Y480493D01*
X693079Y480500D01*
X692912Y480519D01*
X692660Y480519D01*
X687524Y485654D01*
X687524Y486917D01*
X690114Y489508D01*
X691377Y489508D01*
X696513Y484372D01*
X696513Y484068D01*
X696528Y483978D01*
X696535Y483887D01*
X696548Y483857D01*
X696553Y483825D01*
X696596Y483744D01*
X696631Y483660D01*
X696657Y483628D01*
X696668Y483608D01*
X696691Y483585D01*
X696736Y483529D01*
X698247Y482019D01*
X698247Y468953D01*
X694660Y465366D01*
X694607Y465292D01*
X694547Y465222D01*
X694535Y465192D01*
X694516Y465166D01*
X694489Y465079D01*
X694455Y464994D01*
X694451Y464953D01*
X694444Y464931D01*
X694445Y464899D01*
X694437Y464827D01*
X694437Y462272D01*
X694451Y462182D01*
X694459Y462091D01*
X694471Y462062D01*
X694476Y462030D01*
X694519Y461949D01*
X694555Y461865D01*
X694581Y461833D01*
X694592Y461812D01*
X694615Y461790D01*
X694660Y461734D01*
X710903Y445491D01*
X710919Y445480D01*
X710931Y445464D01*
X711019Y445408D01*
X711103Y445348D01*
X711121Y445342D01*
X711138Y445331D01*
X711239Y445306D01*
X711338Y445275D01*
X711358Y445276D01*
X711377Y445271D01*
X711480Y445279D01*
G37*
G36*
X772129Y451597D02*
X772129Y451597D01*
X772233Y451599D01*
X772251Y451606D01*
X772271Y451608D01*
X772366Y451648D01*
X772464Y451684D01*
X772479Y451696D01*
X772497Y451704D01*
X772628Y451809D01*
X780314Y459495D01*
X781050Y459495D01*
X781070Y459498D01*
X781089Y459496D01*
X781191Y459518D01*
X781293Y459535D01*
X781310Y459544D01*
X781330Y459548D01*
X781419Y459601D01*
X781510Y459650D01*
X781524Y459664D01*
X781541Y459674D01*
X781608Y459753D01*
X781680Y459828D01*
X781688Y459846D01*
X781701Y459861D01*
X781740Y459957D01*
X781783Y460051D01*
X781785Y460071D01*
X781793Y460089D01*
X781811Y460256D01*
X781811Y478798D01*
X781797Y478888D01*
X781789Y478979D01*
X781777Y479008D01*
X781772Y479040D01*
X781729Y479121D01*
X781693Y479205D01*
X781667Y479237D01*
X781656Y479258D01*
X781633Y479280D01*
X781588Y479336D01*
X766510Y494414D01*
X766493Y494426D01*
X766481Y494442D01*
X766394Y494498D01*
X766310Y494558D01*
X766291Y494564D01*
X766274Y494575D01*
X766174Y494600D01*
X766075Y494630D01*
X766055Y494630D01*
X766036Y494635D01*
X765933Y494627D01*
X765829Y494624D01*
X765810Y494617D01*
X765790Y494616D01*
X765696Y494575D01*
X765598Y494540D01*
X765582Y494527D01*
X765564Y494519D01*
X765433Y494414D01*
X756846Y485828D01*
X755583Y485828D01*
X751364Y490047D01*
X751306Y490089D01*
X751254Y490138D01*
X751207Y490160D01*
X751165Y490190D01*
X751096Y490211D01*
X751031Y490242D01*
X750979Y490247D01*
X750929Y490263D01*
X750858Y490261D01*
X750787Y490269D01*
X750736Y490258D01*
X750684Y490256D01*
X750616Y490232D01*
X750546Y490216D01*
X750502Y490190D01*
X750453Y490172D01*
X750397Y490127D01*
X750335Y490090D01*
X750301Y490051D01*
X750261Y490018D01*
X750222Y489958D01*
X750175Y489903D01*
X750156Y489855D01*
X750128Y489811D01*
X750110Y489742D01*
X750083Y489675D01*
X750075Y489604D01*
X750067Y489573D01*
X750069Y489549D01*
X750065Y489508D01*
X750065Y487979D01*
X744387Y482302D01*
X744376Y482286D01*
X744360Y482273D01*
X744304Y482186D01*
X744244Y482102D01*
X744238Y482083D01*
X744227Y482066D01*
X744202Y481966D01*
X744172Y481867D01*
X744172Y481847D01*
X744167Y481828D01*
X744175Y481725D01*
X744178Y481621D01*
X744185Y481602D01*
X744186Y481582D01*
X744227Y481488D01*
X744262Y481390D01*
X744275Y481374D01*
X744283Y481356D01*
X744362Y481258D01*
X744365Y481251D01*
X744370Y481247D01*
X744387Y481225D01*
X744610Y481003D01*
X744684Y480950D01*
X744753Y480890D01*
X744784Y480878D01*
X744810Y480859D01*
X744897Y480832D01*
X744982Y480798D01*
X745022Y480794D01*
X745045Y480787D01*
X745077Y480788D01*
X745148Y480780D01*
X745712Y480780D01*
X754384Y472108D01*
X754384Y471544D01*
X754398Y471454D01*
X754406Y471363D01*
X754418Y471333D01*
X754423Y471302D01*
X754466Y471221D01*
X754502Y471137D01*
X754528Y471105D01*
X754539Y471084D01*
X754562Y471062D01*
X754607Y471006D01*
X759807Y465806D01*
X760657Y464956D01*
X760673Y464944D01*
X760686Y464929D01*
X760773Y464872D01*
X760857Y464812D01*
X760876Y464806D01*
X760892Y464796D01*
X760993Y464770D01*
X761092Y464740D01*
X761112Y464740D01*
X761131Y464735D01*
X761234Y464743D01*
X761338Y464746D01*
X761356Y464753D01*
X761376Y464755D01*
X761471Y464795D01*
X761569Y464831D01*
X761584Y464843D01*
X761603Y464851D01*
X761734Y464956D01*
X768294Y471516D01*
X769557Y471516D01*
X777521Y463551D01*
X777521Y462288D01*
X769835Y454602D01*
X769823Y454586D01*
X769808Y454574D01*
X769752Y454487D01*
X769691Y454403D01*
X769686Y454384D01*
X769675Y454367D01*
X769649Y454266D01*
X769619Y454168D01*
X769620Y454148D01*
X769615Y454128D01*
X769623Y454025D01*
X769625Y453922D01*
X769632Y453903D01*
X769634Y453883D01*
X769674Y453788D01*
X769710Y453691D01*
X769722Y453675D01*
X769730Y453657D01*
X769835Y453526D01*
X771552Y451809D01*
X771568Y451797D01*
X771581Y451782D01*
X771668Y451726D01*
X771752Y451665D01*
X771771Y451660D01*
X771787Y451649D01*
X771888Y451623D01*
X771987Y451593D01*
X772007Y451594D01*
X772026Y451589D01*
X772129Y451597D01*
G37*
G36*
X654696Y464051D02*
X654696Y464051D01*
X654768Y464057D01*
X654816Y464077D01*
X654867Y464088D01*
X654928Y464125D01*
X654994Y464153D01*
X655050Y464198D01*
X655078Y464215D01*
X655093Y464232D01*
X655125Y464258D01*
X662040Y471173D01*
X663303Y471173D01*
X663809Y470666D01*
X663825Y470654D01*
X663838Y470639D01*
X663925Y470583D01*
X664009Y470522D01*
X664028Y470517D01*
X664045Y470506D01*
X664145Y470480D01*
X664244Y470450D01*
X664264Y470451D01*
X664283Y470446D01*
X664386Y470454D01*
X664490Y470456D01*
X664509Y470463D01*
X664529Y470465D01*
X664623Y470505D01*
X664721Y470541D01*
X664737Y470553D01*
X664755Y470561D01*
X664886Y470666D01*
X667506Y473286D01*
X667559Y473360D01*
X667619Y473430D01*
X667631Y473460D01*
X667650Y473486D01*
X667676Y473573D01*
X667710Y473658D01*
X667715Y473699D01*
X667722Y473721D01*
X667721Y473753D01*
X667722Y473762D01*
X672876Y478917D01*
X672928Y478989D01*
X672968Y479030D01*
X672972Y479041D01*
X672989Y479060D01*
X673001Y479090D01*
X673020Y479116D01*
X673044Y479195D01*
X673071Y479253D01*
X673073Y479268D01*
X673081Y479288D01*
X673085Y479329D01*
X673092Y479351D01*
X673091Y479384D01*
X673099Y479455D01*
X673099Y493931D01*
X673097Y493947D01*
X673098Y493961D01*
X673084Y494026D01*
X673077Y494112D01*
X673065Y494142D01*
X673060Y494174D01*
X673047Y494198D01*
X673046Y494202D01*
X673035Y494221D01*
X673017Y494254D01*
X672981Y494338D01*
X672955Y494370D01*
X672944Y494391D01*
X672921Y494413D01*
X672876Y494469D01*
X641949Y525396D01*
X638663Y528683D01*
X638663Y529082D01*
X638660Y529102D01*
X638662Y529121D01*
X638640Y529223D01*
X638623Y529325D01*
X638614Y529342D01*
X638610Y529362D01*
X638556Y529451D01*
X638508Y529542D01*
X638494Y529556D01*
X638484Y529573D01*
X638405Y529640D01*
X638330Y529712D01*
X638312Y529720D01*
X638297Y529733D01*
X638200Y529772D01*
X638107Y529815D01*
X638087Y529817D01*
X638068Y529825D01*
X637902Y529843D01*
X625027Y529843D01*
X624957Y529832D01*
X624885Y529830D01*
X624836Y529812D01*
X624785Y529804D01*
X624721Y529770D01*
X624654Y529745D01*
X624613Y529713D01*
X624567Y529688D01*
X624518Y529636D01*
X624462Y529592D01*
X624434Y529548D01*
X624398Y529510D01*
X624368Y529445D01*
X624329Y529385D01*
X624316Y529334D01*
X624294Y529287D01*
X624286Y529216D01*
X624269Y529146D01*
X624273Y529094D01*
X624267Y529043D01*
X624283Y528972D01*
X624288Y528901D01*
X624308Y528853D01*
X624320Y528802D01*
X624356Y528741D01*
X624384Y528675D01*
X624429Y528619D01*
X624446Y528591D01*
X624463Y528576D01*
X624489Y528544D01*
X627221Y525812D01*
X627221Y525628D01*
X627224Y525609D01*
X627222Y525589D01*
X627244Y525488D01*
X627260Y525386D01*
X627270Y525368D01*
X627274Y525348D01*
X627327Y525259D01*
X627375Y525168D01*
X627390Y525154D01*
X627400Y525137D01*
X627479Y525070D01*
X627554Y524999D01*
X627572Y524990D01*
X627587Y524977D01*
X627683Y524939D01*
X627777Y524895D01*
X627797Y524893D01*
X627815Y524885D01*
X627982Y524867D01*
X628166Y524867D01*
X630756Y522277D01*
X630756Y522093D01*
X630759Y522073D01*
X630757Y522053D01*
X630779Y521952D01*
X630796Y521850D01*
X630805Y521832D01*
X630809Y521813D01*
X630863Y521724D01*
X630911Y521633D01*
X630925Y521619D01*
X630936Y521602D01*
X631014Y521534D01*
X631089Y521463D01*
X631107Y521455D01*
X631123Y521442D01*
X631219Y521403D01*
X631312Y521360D01*
X631332Y521357D01*
X631351Y521350D01*
X631517Y521331D01*
X631701Y521331D01*
X634292Y518741D01*
X634292Y518557D01*
X634295Y518538D01*
X634293Y518518D01*
X634315Y518416D01*
X634331Y518314D01*
X634341Y518297D01*
X634345Y518277D01*
X634398Y518188D01*
X634447Y518097D01*
X634461Y518083D01*
X634471Y518066D01*
X634550Y517999D01*
X634625Y517928D01*
X634643Y517919D01*
X634658Y517906D01*
X634754Y517868D01*
X634848Y517824D01*
X634868Y517822D01*
X634886Y517814D01*
X635053Y517796D01*
X635237Y517796D01*
X637827Y515206D01*
X637827Y515022D01*
X637830Y515002D01*
X637828Y514982D01*
X637850Y514881D01*
X637867Y514779D01*
X637876Y514761D01*
X637881Y514742D01*
X637934Y514653D01*
X637982Y514562D01*
X637996Y514548D01*
X638007Y514531D01*
X638085Y514463D01*
X638160Y514392D01*
X638178Y514384D01*
X638194Y514371D01*
X638290Y514332D01*
X638383Y514289D01*
X638403Y514286D01*
X638422Y514279D01*
X638588Y514260D01*
X638773Y514260D01*
X641363Y511670D01*
X641363Y511486D01*
X641366Y511466D01*
X641364Y511447D01*
X641386Y511345D01*
X641403Y511243D01*
X641412Y511226D01*
X641416Y511206D01*
X641469Y511117D01*
X641518Y511026D01*
X641532Y511012D01*
X641542Y510995D01*
X641621Y510928D01*
X641696Y510857D01*
X641714Y510848D01*
X641729Y510835D01*
X641825Y510797D01*
X641919Y510753D01*
X641939Y510751D01*
X641957Y510743D01*
X642124Y510725D01*
X642308Y510725D01*
X644898Y508135D01*
X644898Y507951D01*
X644902Y507931D01*
X644899Y507911D01*
X644921Y507810D01*
X644938Y507708D01*
X644947Y507690D01*
X644952Y507671D01*
X645005Y507582D01*
X645053Y507490D01*
X645068Y507477D01*
X645078Y507460D01*
X645157Y507392D01*
X645232Y507321D01*
X645250Y507313D01*
X645265Y507300D01*
X645361Y507261D01*
X645455Y507217D01*
X645474Y507215D01*
X645493Y507208D01*
X645660Y507189D01*
X645844Y507189D01*
X645934Y507099D01*
X645961Y507079D01*
X645982Y507055D01*
X646095Y506979D01*
X646102Y506974D01*
X646106Y506972D01*
X646122Y506961D01*
X646400Y506817D01*
X646493Y506786D01*
X646585Y506749D01*
X646616Y506746D01*
X646634Y506740D01*
X646667Y506740D01*
X646751Y506731D01*
X647123Y506731D01*
X647644Y506210D01*
X647670Y506191D01*
X647692Y506166D01*
X647831Y506073D01*
X648013Y505978D01*
X648021Y505955D01*
X648065Y505867D01*
X648103Y505777D01*
X648123Y505752D01*
X648132Y505735D01*
X648155Y505712D01*
X648208Y505646D01*
X648463Y505391D01*
X648463Y504673D01*
X648468Y504641D01*
X648465Y504608D01*
X648498Y504443D01*
X648580Y504186D01*
X648592Y504162D01*
X648597Y504135D01*
X648647Y504052D01*
X648691Y503966D01*
X648710Y503947D01*
X648724Y503924D01*
X648797Y503861D01*
X648866Y503794D01*
X648890Y503782D01*
X648911Y503764D01*
X649000Y503728D01*
X649087Y503686D01*
X649114Y503682D01*
X649139Y503672D01*
X649305Y503654D01*
X649379Y503654D01*
X651969Y501064D01*
X651969Y500880D01*
X651973Y500860D01*
X651970Y500840D01*
X651992Y500739D01*
X652009Y500637D01*
X652018Y500619D01*
X652023Y500600D01*
X652076Y500511D01*
X652124Y500419D01*
X652139Y500406D01*
X652149Y500389D01*
X652228Y500321D01*
X652303Y500250D01*
X652321Y500242D01*
X652336Y500229D01*
X652432Y500190D01*
X652526Y500146D01*
X652545Y500144D01*
X652564Y500137D01*
X652731Y500118D01*
X652915Y500118D01*
X655505Y497528D01*
X655505Y497344D01*
X655508Y497324D01*
X655506Y497305D01*
X655528Y497203D01*
X655545Y497101D01*
X655554Y497084D01*
X655558Y497064D01*
X655611Y496975D01*
X655660Y496884D01*
X655674Y496870D01*
X655684Y496853D01*
X655763Y496786D01*
X655838Y496714D01*
X655856Y496706D01*
X655871Y496693D01*
X655968Y496654D01*
X656061Y496611D01*
X656081Y496609D01*
X656099Y496601D01*
X656266Y496583D01*
X656450Y496583D01*
X659040Y493993D01*
X659040Y493808D01*
X659044Y493789D01*
X659041Y493769D01*
X659063Y493668D01*
X659080Y493566D01*
X659089Y493548D01*
X659094Y493529D01*
X659147Y493440D01*
X659195Y493348D01*
X659210Y493335D01*
X659220Y493318D01*
X659299Y493250D01*
X659374Y493179D01*
X659392Y493171D01*
X659407Y493158D01*
X659503Y493119D01*
X659597Y493075D01*
X659616Y493073D01*
X659635Y493066D01*
X659802Y493047D01*
X659986Y493047D01*
X662576Y490457D01*
X662576Y490273D01*
X662579Y490253D01*
X662577Y490233D01*
X662599Y490132D01*
X662616Y490030D01*
X662625Y490013D01*
X662629Y489993D01*
X662682Y489904D01*
X662731Y489813D01*
X662745Y489799D01*
X662755Y489782D01*
X662834Y489715D01*
X662909Y489643D01*
X662927Y489635D01*
X662942Y489622D01*
X663039Y489583D01*
X663132Y489540D01*
X663152Y489538D01*
X663171Y489530D01*
X663337Y489512D01*
X663521Y489512D01*
X666112Y486921D01*
X666112Y486737D01*
X666115Y486718D01*
X666113Y486698D01*
X666135Y486597D01*
X666151Y486495D01*
X666161Y486477D01*
X666165Y486458D01*
X666218Y486369D01*
X666266Y486277D01*
X666281Y486264D01*
X666291Y486246D01*
X666370Y486179D01*
X666445Y486108D01*
X666463Y486100D01*
X666478Y486087D01*
X666574Y486048D01*
X666668Y486004D01*
X666688Y486002D01*
X666706Y485995D01*
X666873Y485976D01*
X667057Y485976D01*
X669647Y483386D01*
X669647Y482123D01*
X668143Y480619D01*
X668125Y480594D01*
X668082Y480550D01*
X667206Y479430D01*
X667179Y479426D01*
X667135Y479413D01*
X667090Y479410D01*
X667018Y479379D01*
X666943Y479357D01*
X666906Y479331D01*
X666864Y479314D01*
X666755Y479226D01*
X666741Y479217D01*
X666738Y479213D01*
X666733Y479209D01*
X664511Y476987D01*
X664207Y476987D01*
X664117Y476972D01*
X664026Y476965D01*
X663996Y476952D01*
X663964Y476947D01*
X663884Y476905D01*
X663800Y476869D01*
X663768Y476843D01*
X663747Y476832D01*
X663725Y476809D01*
X663669Y476764D01*
X654049Y467144D01*
X653995Y467070D01*
X653936Y467000D01*
X653924Y466970D01*
X653905Y466944D01*
X653878Y466857D01*
X653844Y466772D01*
X653840Y466731D01*
X653833Y466709D01*
X653834Y466677D01*
X653826Y466605D01*
X653826Y464796D01*
X653837Y464726D01*
X653839Y464654D01*
X653857Y464605D01*
X653865Y464554D01*
X653899Y464490D01*
X653924Y464423D01*
X653956Y464382D01*
X653980Y464336D01*
X654032Y464287D01*
X654077Y464231D01*
X654121Y464203D01*
X654159Y464167D01*
X654224Y464137D01*
X654284Y464098D01*
X654335Y464085D01*
X654382Y464063D01*
X654453Y464055D01*
X654523Y464038D01*
X654575Y464042D01*
X654626Y464036D01*
X654696Y464051D01*
G37*
%LPC*%
G36*
X519570Y615791D02*
X519570Y615791D01*
X518677Y616684D01*
X518677Y621284D01*
X518674Y621304D01*
X518676Y621323D01*
X518654Y621425D01*
X518638Y621527D01*
X518628Y621544D01*
X518624Y621564D01*
X518571Y621653D01*
X518522Y621744D01*
X518508Y621758D01*
X518498Y621775D01*
X518419Y621842D01*
X518344Y621914D01*
X518326Y621922D01*
X518311Y621935D01*
X518215Y621974D01*
X518121Y622017D01*
X518101Y622019D01*
X518083Y622027D01*
X517916Y622045D01*
X513118Y622045D01*
X513098Y622042D01*
X513079Y622044D01*
X512977Y622022D01*
X512875Y622006D01*
X512858Y621996D01*
X512838Y621992D01*
X512749Y621939D01*
X512658Y621890D01*
X512644Y621876D01*
X512627Y621866D01*
X512560Y621787D01*
X512488Y621712D01*
X512480Y621694D01*
X512467Y621679D01*
X512428Y621583D01*
X512385Y621489D01*
X512383Y621469D01*
X512375Y621451D01*
X512357Y621284D01*
X512357Y618200D01*
X511464Y617307D01*
X500200Y617307D01*
X499307Y618200D01*
X499307Y630464D01*
X500200Y631357D01*
X511464Y631357D01*
X512357Y630464D01*
X512357Y627380D01*
X512360Y627360D01*
X512358Y627341D01*
X512380Y627239D01*
X512396Y627137D01*
X512406Y627120D01*
X512410Y627100D01*
X512463Y627011D01*
X512512Y626920D01*
X512526Y626906D01*
X512536Y626889D01*
X512615Y626822D01*
X512690Y626750D01*
X512708Y626742D01*
X512723Y626729D01*
X512819Y626690D01*
X512913Y626647D01*
X512933Y626645D01*
X512951Y626637D01*
X513118Y626619D01*
X517916Y626619D01*
X517936Y626622D01*
X517955Y626620D01*
X518057Y626642D01*
X518159Y626658D01*
X518176Y626668D01*
X518196Y626672D01*
X518285Y626725D01*
X518376Y626774D01*
X518390Y626788D01*
X518407Y626798D01*
X518474Y626877D01*
X518546Y626952D01*
X518554Y626970D01*
X518567Y626985D01*
X518606Y627081D01*
X518649Y627175D01*
X518651Y627195D01*
X518659Y627213D01*
X518677Y627380D01*
X518677Y629948D01*
X519570Y630841D01*
X532834Y630841D01*
X533727Y629948D01*
X533727Y616684D01*
X532834Y615791D01*
X519570Y615791D01*
G37*
%LPD*%
D10*
G36*
X735721Y539605D02*
X737418Y537908D01*
X733177Y533667D01*
X731480Y535364D01*
X735721Y539605D01*
G37*
G36*
X732185Y543140D02*
X733882Y541443D01*
X729641Y537202D01*
X727944Y538899D01*
X732185Y543140D01*
G37*
G36*
X728650Y546676D02*
X730347Y544979D01*
X726106Y540738D01*
X724409Y542435D01*
X728650Y546676D01*
G37*
G36*
X725114Y550212D02*
X726811Y548515D01*
X722570Y544274D01*
X720873Y545971D01*
X725114Y550212D01*
G37*
G36*
X721579Y553747D02*
X723276Y552050D01*
X719035Y547809D01*
X717338Y549506D01*
X721579Y553747D01*
G37*
G36*
X718043Y557283D02*
X719740Y555586D01*
X715499Y551345D01*
X713802Y553042D01*
X718043Y557283D01*
G37*
G36*
X714508Y560818D02*
X716205Y559121D01*
X711964Y554880D01*
X710267Y556577D01*
X714508Y560818D01*
G37*
G36*
X710972Y564354D02*
X712669Y562657D01*
X708428Y558416D01*
X706731Y560113D01*
X710972Y564354D01*
G37*
G36*
X707437Y567889D02*
X709134Y566192D01*
X704893Y561951D01*
X703196Y563648D01*
X707437Y567889D01*
G37*
G36*
X703901Y571425D02*
X705598Y569728D01*
X701357Y565487D01*
X699660Y567184D01*
X703901Y571425D01*
G37*
G36*
X700366Y574960D02*
X702063Y573263D01*
X697822Y569022D01*
X696125Y570719D01*
X700366Y574960D01*
G37*
G36*
X696830Y578496D02*
X698527Y576799D01*
X694286Y572558D01*
X692589Y574255D01*
X696830Y578496D01*
G37*
G36*
X693295Y582031D02*
X694992Y580334D01*
X690751Y576093D01*
X689054Y577790D01*
X693295Y582031D01*
G37*
G36*
X689759Y585567D02*
X691456Y583870D01*
X687215Y579629D01*
X685518Y581326D01*
X689759Y585567D01*
G37*
G36*
X686223Y589102D02*
X687920Y587405D01*
X683679Y583164D01*
X681982Y584861D01*
X686223Y589102D01*
G37*
G36*
X682688Y592638D02*
X684385Y590941D01*
X680144Y586700D01*
X678447Y588397D01*
X682688Y592638D01*
G37*
G36*
X675199Y588404D02*
X673502Y586707D01*
X669261Y590948D01*
X670958Y592645D01*
X675199Y588404D01*
G37*
G36*
X671663Y584867D02*
X669966Y583170D01*
X665725Y587411D01*
X667422Y589108D01*
X671663Y584867D01*
G37*
G36*
X668126Y581331D02*
X666429Y579634D01*
X662188Y583875D01*
X663885Y585572D01*
X668126Y581331D01*
G37*
G36*
X664590Y577794D02*
X662893Y576097D01*
X658652Y580338D01*
X660349Y582035D01*
X664590Y577794D01*
G37*
G36*
X661054Y574258D02*
X659357Y572561D01*
X655116Y576802D01*
X656813Y578499D01*
X661054Y574258D01*
G37*
G36*
X657517Y570721D02*
X655820Y569024D01*
X651579Y573265D01*
X653276Y574962D01*
X657517Y570721D01*
G37*
G36*
X653981Y567185D02*
X652284Y565488D01*
X648043Y569729D01*
X649740Y571426D01*
X653981Y567185D01*
G37*
G36*
X650444Y563649D02*
X648747Y561952D01*
X644506Y566193D01*
X646203Y567890D01*
X650444Y563649D01*
G37*
G36*
X646908Y560112D02*
X645211Y558415D01*
X640970Y562656D01*
X642667Y564353D01*
X646908Y560112D01*
G37*
G36*
X643371Y556576D02*
X641674Y554879D01*
X637433Y559120D01*
X639130Y560817D01*
X643371Y556576D01*
G37*
G36*
X639835Y553039D02*
X638138Y551342D01*
X633897Y555583D01*
X635594Y557280D01*
X639835Y553039D01*
G37*
G36*
X636299Y549503D02*
X634602Y547806D01*
X630361Y552047D01*
X632058Y553744D01*
X636299Y549503D01*
G37*
G36*
X632762Y545967D02*
X631065Y544270D01*
X626824Y548511D01*
X628521Y550208D01*
X632762Y545967D01*
G37*
G36*
X629226Y542430D02*
X627529Y540733D01*
X623288Y544974D01*
X624985Y546671D01*
X629226Y542430D01*
G37*
G36*
X625689Y538894D02*
X623992Y537197D01*
X619751Y541438D01*
X621448Y543135D01*
X625689Y538894D01*
G37*
G36*
X622153Y535357D02*
X620456Y533660D01*
X616215Y537901D01*
X617912Y539598D01*
X622153Y535357D01*
G37*
G36*
X620463Y530413D02*
X622160Y528716D01*
X617919Y524475D01*
X616222Y526172D01*
X620463Y530413D01*
G37*
G36*
X623998Y526877D02*
X625695Y525180D01*
X621454Y520939D01*
X619757Y522636D01*
X623998Y526877D01*
G37*
G36*
X627534Y523341D02*
X629231Y521644D01*
X624990Y517403D01*
X623293Y519100D01*
X627534Y523341D01*
G37*
G36*
X631069Y519806D02*
X632766Y518109D01*
X628525Y513868D01*
X626828Y515565D01*
X631069Y519806D01*
G37*
G36*
X634605Y516270D02*
X636302Y514573D01*
X632061Y510332D01*
X630364Y512029D01*
X634605Y516270D01*
G37*
G36*
X638140Y512735D02*
X639837Y511038D01*
X635596Y506797D01*
X633899Y508494D01*
X638140Y512735D01*
G37*
G36*
X641676Y509199D02*
X643373Y507502D01*
X639132Y503261D01*
X637435Y504958D01*
X641676Y509199D01*
G37*
G36*
X645211Y505664D02*
X646908Y503967D01*
X642667Y499726D01*
X640970Y501423D01*
X645211Y505664D01*
G37*
G36*
X648747Y502128D02*
X650444Y500431D01*
X646203Y496190D01*
X644506Y497887D01*
X648747Y502128D01*
G37*
G36*
X652282Y498593D02*
X653979Y496896D01*
X649738Y492655D01*
X648041Y494352D01*
X652282Y498593D01*
G37*
G36*
X655818Y495057D02*
X657515Y493360D01*
X653274Y489119D01*
X651577Y490816D01*
X655818Y495057D01*
G37*
G36*
X659353Y491522D02*
X661050Y489825D01*
X656809Y485584D01*
X655112Y487281D01*
X659353Y491522D01*
G37*
G36*
X662889Y487986D02*
X664586Y486289D01*
X660345Y482048D01*
X658648Y483745D01*
X662889Y487986D01*
G37*
G36*
X666424Y484451D02*
X668121Y482754D01*
X663880Y478513D01*
X662183Y480210D01*
X666424Y484451D01*
G37*
G36*
X669960Y480915D02*
X671657Y479218D01*
X667416Y474977D01*
X665719Y476674D01*
X669960Y480915D01*
G37*
G36*
X673496Y477380D02*
X675193Y475683D01*
X670952Y471442D01*
X669255Y473139D01*
X673496Y477380D01*
G37*
G36*
X684378Y473132D02*
X682681Y471435D01*
X678440Y475676D01*
X680137Y477373D01*
X684378Y473132D01*
G37*
G36*
X687915Y476668D02*
X686218Y474971D01*
X681977Y479212D01*
X683674Y480909D01*
X687915Y476668D01*
G37*
G36*
X691451Y480205D02*
X689754Y478508D01*
X685513Y482749D01*
X687210Y484446D01*
X691451Y480205D01*
G37*
G36*
X694988Y483741D02*
X693291Y482044D01*
X689050Y486285D01*
X690747Y487982D01*
X694988Y483741D01*
G37*
G36*
X698524Y487278D02*
X696827Y485581D01*
X692586Y489822D01*
X694283Y491519D01*
X698524Y487278D01*
G37*
G36*
X702060Y490814D02*
X700363Y489117D01*
X696122Y493358D01*
X697819Y495055D01*
X702060Y490814D01*
G37*
G36*
X705597Y494350D02*
X703900Y492653D01*
X699659Y496894D01*
X701356Y498591D01*
X705597Y494350D01*
G37*
G36*
X709133Y497887D02*
X707436Y496190D01*
X703195Y500431D01*
X704892Y502128D01*
X709133Y497887D01*
G37*
G36*
X712670Y501423D02*
X710973Y499726D01*
X706732Y503967D01*
X708429Y505664D01*
X712670Y501423D01*
G37*
G36*
X716206Y504960D02*
X714509Y503263D01*
X710268Y507504D01*
X711965Y509201D01*
X716206Y504960D01*
G37*
G36*
X719743Y508496D02*
X718046Y506799D01*
X713805Y511040D01*
X715502Y512737D01*
X719743Y508496D01*
G37*
G36*
X723279Y512033D02*
X721582Y510336D01*
X717341Y514577D01*
X719038Y516274D01*
X723279Y512033D01*
G37*
G36*
X726815Y515569D02*
X725118Y513872D01*
X720877Y518113D01*
X722574Y519810D01*
X726815Y515569D01*
G37*
G36*
X730352Y519105D02*
X728655Y517408D01*
X724414Y521649D01*
X726111Y523346D01*
X730352Y519105D01*
G37*
G36*
X733888Y522642D02*
X732191Y520945D01*
X727950Y525186D01*
X729647Y526883D01*
X733888Y522642D01*
G37*
G36*
X737425Y526178D02*
X735728Y524481D01*
X731487Y528722D01*
X733184Y530419D01*
X737425Y526178D01*
G37*
D11*
G36*
X646768Y532040D02*
X676820Y562092D01*
X706872Y532040D01*
X676820Y501988D01*
X646768Y532040D01*
G37*
D12*
G36*
X585989Y525708D02*
X596596Y536315D01*
X610737Y522174D01*
X600130Y511567D01*
X585989Y525708D01*
G37*
G36*
X564775Y504494D02*
X575382Y515101D01*
X589523Y500960D01*
X578916Y490353D01*
X564775Y504494D01*
G37*
D13*
G36*
X655247Y462223D02*
X662671Y469647D01*
X670307Y462011D01*
X662883Y454587D01*
X655247Y462223D01*
G37*
G36*
X642873Y449849D02*
X650297Y457273D01*
X657933Y449637D01*
X650509Y442213D01*
X642873Y449849D01*
G37*
G36*
X743023Y592639D02*
X735599Y585215D01*
X727963Y592851D01*
X735387Y600275D01*
X743023Y592639D01*
G37*
G36*
X755397Y605013D02*
X747973Y597589D01*
X740337Y605225D01*
X747761Y612649D01*
X755397Y605013D01*
G37*
D14*
G36*
X602369Y602521D02*
X608909Y609061D01*
X614141Y603829D01*
X607601Y597289D01*
X602369Y602521D01*
G37*
G36*
X593883Y594035D02*
X600423Y600575D01*
X605655Y595343D01*
X599115Y588803D01*
X593883Y594035D01*
G37*
G36*
X582541Y572229D02*
X576001Y565689D01*
X570769Y570921D01*
X577309Y577461D01*
X582541Y572229D01*
G37*
G36*
X591027Y580715D02*
X584487Y574175D01*
X579255Y579407D01*
X585795Y585947D01*
X591027Y580715D01*
G37*
D15*
X647700Y393900D03*
D16*
X520854Y673239D03*
D13*
G36*
X756723Y443429D02*
X749299Y450853D01*
X756935Y458489D01*
X764359Y451065D01*
X756723Y443429D01*
G37*
G36*
X769097Y431055D02*
X761673Y438479D01*
X769309Y446115D01*
X776733Y438691D01*
X769097Y431055D01*
G37*
D17*
G36*
X768219Y455142D02*
X761148Y462213D01*
X768925Y469990D01*
X775996Y462919D01*
X768219Y455142D01*
G37*
G36*
X780239Y443122D02*
X773168Y450193D01*
X780945Y457970D01*
X788016Y450899D01*
X780239Y443122D01*
G37*
D18*
X547202Y623316D03*
X526202Y623316D03*
D17*
X488832Y624332D03*
X505832Y624332D03*
D19*
G36*
X603460Y586977D02*
X610531Y594048D01*
X623258Y581321D01*
X616187Y574250D01*
X603460Y586977D01*
G37*
G36*
X585782Y569299D02*
X592853Y576370D01*
X605580Y563643D01*
X598509Y556572D01*
X585782Y569299D01*
G37*
D20*
G36*
X723867Y467941D02*
X714675Y458749D01*
X706897Y466527D01*
X716089Y475719D01*
X723867Y467941D01*
G37*
G36*
X752859Y471477D02*
X743667Y462285D01*
X735889Y470063D01*
X745081Y479255D01*
X752859Y471477D01*
G37*
G36*
X740131Y484205D02*
X730939Y475013D01*
X723161Y482791D01*
X732353Y491983D01*
X740131Y484205D01*
G37*
G36*
X736595Y455213D02*
X727403Y446021D01*
X719625Y453799D01*
X728817Y462991D01*
X736595Y455213D01*
G37*
D14*
G36*
X718599Y449953D02*
X725139Y443413D01*
X719907Y438181D01*
X713367Y444721D01*
X718599Y449953D01*
G37*
G36*
X710113Y458439D02*
X716653Y451899D01*
X711421Y446667D01*
X704881Y453207D01*
X710113Y458439D01*
G37*
G36*
X743307Y483379D02*
X736767Y489919D01*
X741999Y495151D01*
X748539Y488611D01*
X743307Y483379D01*
G37*
G36*
X751793Y474893D02*
X745253Y481433D01*
X750485Y486665D01*
X757025Y480125D01*
X751793Y474893D01*
G37*
D21*
X723900Y673100D03*
X698500Y673100D03*
X673100Y673100D03*
X647700Y673100D03*
X622300Y673100D03*
X596900Y673100D03*
X571500Y673100D03*
X546100Y673100D03*
D22*
X673100Y393700D03*
X698500Y393700D03*
X723900Y393700D03*
X749300Y393700D03*
X774700Y393700D03*
X800100Y393700D03*
X825500Y393700D03*
X520700Y393700D03*
X546100Y393700D03*
X571500Y393700D03*
X596900Y393700D03*
X622300Y393700D03*
D21*
X876300Y673100D03*
X850900Y673100D03*
X825500Y673100D03*
X800100Y673100D03*
X1079500Y673100D03*
X1054100Y673100D03*
X1028700Y673100D03*
X1003300Y673100D03*
X977900Y673100D03*
X952500Y673100D03*
X927100Y673100D03*
X901700Y673100D03*
D15*
X850900Y393700D03*
X876300Y393700D03*
X774700Y673100D03*
X749300Y673100D03*
D23*
X484886Y515112D03*
X508000Y515112D03*
X531114Y515112D03*
D24*
X508000Y577090D03*
D12*
X548400Y486410D03*
X518400Y486410D03*
X498362Y486410D03*
X468362Y486410D03*
D15*
X1003300Y393700D03*
X1079500Y393700D03*
X1104900Y393700D03*
X1054100Y393700D03*
X1028700Y393700D03*
X901700Y393700D03*
X927100Y393700D03*
X952500Y393700D03*
X977900Y393700D03*
D17*
G36*
X575651Y547870D02*
X568580Y554941D01*
X576357Y562718D01*
X583428Y555647D01*
X575651Y547870D01*
G37*
G36*
X587671Y535850D02*
X580600Y542921D01*
X588377Y550698D01*
X595448Y543627D01*
X587671Y535850D01*
G37*
D16*
X495300Y673100D03*
X495300Y393700D03*
X469900Y393700D03*
X469900Y673100D03*
X1104900Y673100D03*
D13*
G36*
X732083Y602799D02*
X724659Y595375D01*
X717023Y603011D01*
X724447Y610435D01*
X732083Y602799D01*
G37*
G36*
X744457Y615173D02*
X737033Y607749D01*
X729397Y615385D01*
X736821Y622809D01*
X744457Y615173D01*
G37*
D25*
X1104900Y534670D03*
X812800Y534670D03*
D13*
G36*
X756215Y487353D02*
X748791Y494777D01*
X756427Y502413D01*
X763851Y494989D01*
X756215Y487353D01*
G37*
G36*
X768589Y474979D02*
X761165Y482403D01*
X768801Y490039D01*
X776225Y482615D01*
X768589Y474979D01*
G37*
G36*
X753301Y582361D02*
X745877Y574937D01*
X738241Y582573D01*
X745665Y589997D01*
X753301Y582361D01*
G37*
G36*
X765675Y594735D02*
X758251Y587311D01*
X750615Y594947D01*
X758039Y602371D01*
X765675Y594735D01*
G37*
D26*
G36*
X712275Y584200D02*
X705204Y591271D01*
X712275Y598342D01*
X719346Y591271D01*
X712275Y584200D01*
G37*
G36*
X726417Y570058D02*
X719346Y577129D01*
X726417Y584200D01*
X733488Y577129D01*
X726417Y570058D01*
G37*
D27*
X574040Y456184D02*
X574040Y440944D01*
X548640Y440944D02*
X548640Y456184D01*
D28*
X698593Y506730D02*
X706164Y499159D01*
D29*
X698593Y506730D02*
X698500Y506730D01*
D30*
X678493Y497948D02*
X675146Y497948D01*
X642728Y530366D02*
X642728Y533713D01*
X675146Y566132D02*
X678493Y566132D01*
X710912Y533713D02*
X710912Y533400D01*
X710912Y530366D01*
X692253Y511707D02*
X678493Y497948D01*
X692253Y511707D02*
X710912Y530366D01*
X710912Y533713D02*
X688987Y555637D01*
X678493Y566132D01*
X675146Y566132D02*
X642728Y533713D01*
X642728Y530366D02*
X646237Y526857D01*
X675146Y497948D01*
D28*
X693616Y511707D02*
X698593Y506730D01*
D29*
X693616Y511707D02*
X692253Y511707D01*
D28*
X675640Y477827D02*
X672224Y474411D01*
D29*
X675640Y497454D02*
X675146Y497948D01*
D28*
X675640Y497454D02*
X675640Y477827D01*
X689811Y555637D02*
X702629Y568456D01*
D29*
X689811Y555637D02*
X688987Y555637D01*
D31*
X611051Y536629D02*
X598363Y523941D01*
X611051Y536629D02*
X619184Y536629D01*
X639694Y533400D02*
X646237Y526857D01*
X622413Y533400D02*
X619184Y536629D01*
X622413Y533400D02*
X639694Y533400D01*
D28*
X672224Y474411D02*
X662777Y464964D01*
X662777Y462117D01*
D30*
X469900Y606180D02*
X469900Y622300D01*
X469900Y673100D01*
D32*
X724553Y602905D02*
X724553Y590379D01*
X702629Y568456D01*
D29*
X706164Y499159D02*
X707886Y497437D01*
X808990Y538480D02*
X812800Y534670D01*
X808990Y538480D02*
X784860Y538480D01*
D33*
X784860Y538480D03*
X712216Y531540D03*
D29*
X784098Y480060D02*
X784098Y454341D01*
X784098Y480060D02*
X764286Y499872D01*
X761310Y499872D01*
X756321Y494883D01*
X784098Y454341D02*
X780592Y450546D01*
X712216Y531540D02*
X711708Y533400D01*
X710912Y533400D01*
X753767Y497437D02*
X756321Y494883D01*
X753767Y497437D02*
X707886Y497437D01*
D30*
X544068Y517398D02*
X544068Y535686D01*
X536312Y543442D01*
X473828Y543442D01*
X574040Y487426D02*
X574040Y448564D01*
X574040Y487426D02*
X549021Y512445D01*
X544068Y517398D01*
X473828Y543442D02*
X467868Y549402D01*
D31*
X592713Y529590D02*
X598363Y523941D01*
X583692Y529590D02*
X578358Y534924D01*
X570738Y534924D01*
X549021Y513207D02*
X549021Y512445D01*
X583692Y529590D02*
X592713Y529590D01*
X570738Y534924D02*
X549021Y513207D01*
D30*
X467868Y604148D02*
X469900Y606180D01*
X467868Y604148D02*
X467868Y549402D01*
D29*
X486800Y622300D02*
X488832Y624332D01*
X486800Y622300D02*
X469900Y622300D01*
D32*
X722132Y580888D02*
X728147Y586903D01*
X722132Y580888D02*
X706165Y564920D01*
X728147Y586903D02*
X729651Y586903D01*
X735493Y592745D01*
D34*
X731755Y582467D02*
X745771Y582467D01*
X731755Y582467D02*
X726417Y577129D01*
D29*
X725424Y577596D02*
X722132Y580888D01*
X725424Y577596D02*
X726417Y577129D01*
X633330Y550775D02*
X617220Y566885D01*
X617220Y580390D01*
X613461Y584149D01*
X613359Y584149D01*
D35*
X613359Y591871D01*
X608255Y596975D02*
X608255Y603175D01*
X608255Y596975D02*
X613359Y591871D01*
D29*
X613152Y563880D02*
X629793Y547239D01*
X598272Y563880D02*
X595681Y566471D01*
X598272Y563880D02*
X613152Y563880D01*
D35*
X595681Y566471D02*
X587959Y566471D01*
X582855Y571575D02*
X576655Y571575D01*
X582855Y571575D02*
X587959Y566471D01*
D30*
X469900Y484872D02*
X469900Y393700D01*
X469900Y484872D02*
X468362Y486410D01*
X484886Y502934D01*
X484886Y515112D01*
D29*
X723846Y516841D02*
X723900Y516636D01*
X1026414Y393700D02*
X1028700Y393700D01*
X726054Y514633D02*
X723846Y516841D01*
X740028Y514633D02*
X746097Y520702D01*
X771436Y520702D01*
X740028Y514633D02*
X726054Y514633D01*
X843828Y448310D02*
X892549Y448310D01*
X927093Y413766D01*
X1008634Y413766D02*
X1028700Y393700D01*
X843828Y448310D02*
X771436Y520702D01*
X927093Y413766D02*
X1008634Y413766D01*
X758703Y452813D02*
X756829Y450959D01*
X758707Y452809D02*
X762567Y456627D01*
X768572Y462566D01*
X692150Y461010D02*
X692150Y466090D01*
X695960Y469900D01*
X695960Y481072D01*
X692019Y485013D01*
X758703Y452813D02*
X758707Y452809D01*
D33*
X892302Y407924D03*
D29*
X885444Y414782D01*
X828541Y414782D01*
X816603Y426720D01*
X793442Y426720D01*
X779327Y440835D02*
X779292Y440835D01*
X763500Y456627D02*
X762567Y456627D01*
X763500Y456627D02*
X779292Y440835D01*
X779327Y440835D02*
X793442Y426720D01*
X717265Y435895D02*
X692150Y461010D01*
X717265Y435895D02*
X741764Y435895D01*
X756829Y450959D01*
X730919Y523914D02*
X729996Y524256D01*
X736675Y522194D02*
X742039Y527558D01*
X736675Y522194D02*
X732639Y522194D01*
X730919Y523914D01*
X1051814Y421386D02*
X1079500Y393700D01*
X774269Y527558D02*
X742039Y527558D01*
X844373Y457454D02*
X896598Y457454D01*
X932666Y421386D01*
X844373Y457454D02*
X774269Y527558D01*
X932666Y421386D02*
X1051814Y421386D01*
X734568Y527304D02*
X734456Y527450D01*
X1104900Y394716D02*
X1104900Y393700D01*
X738266Y531260D02*
X734456Y527450D01*
X738266Y531260D02*
X774877Y531260D01*
X844873Y461264D02*
X898622Y461264D01*
X934690Y425196D01*
X1073404Y425196D02*
X1104900Y393700D01*
X844873Y461264D02*
X774877Y531260D01*
X934690Y425196D02*
X1073404Y425196D01*
X728472Y519684D02*
X728045Y519956D01*
X727383Y520377D01*
X1054100Y394462D02*
X1054100Y393700D01*
X727383Y520234D02*
X727383Y520377D01*
X727383Y520234D02*
X728959Y518658D01*
X744834Y523750D02*
X773004Y523750D01*
X739742Y518658D02*
X728959Y518658D01*
X739742Y518658D02*
X744834Y523750D01*
X843872Y452882D02*
X894573Y452882D01*
X929879Y417576D01*
X1030224Y417576D02*
X1054100Y393700D01*
X843872Y452882D02*
X773004Y523750D01*
X929879Y417576D02*
X1030224Y417576D01*
X647700Y394716D02*
X613410Y429006D01*
X640080Y505968D02*
X640404Y506230D01*
X647700Y394716D02*
X647700Y393900D01*
X613410Y479298D02*
X640080Y505968D01*
X613410Y479298D02*
X613410Y429006D01*
X618744Y525780D02*
X618744Y527304D01*
X618744Y525780D02*
X617220Y524256D01*
X617220Y519684D01*
X600202Y502666D02*
X598932Y502666D01*
X576834Y524764D01*
X600202Y502666D02*
X617220Y519684D01*
X560070Y541020D02*
X560070Y633222D01*
X521208Y672084D01*
X618744Y527304D02*
X619191Y527444D01*
X521208Y672084D02*
X520854Y673239D01*
D33*
X576834Y524764D03*
X560070Y541020D03*
D29*
X525186Y624332D02*
X505832Y624332D01*
X525186Y624332D02*
X526202Y623316D01*
X731646Y483498D02*
X737413Y489265D01*
X742653Y489265D01*
X731646Y483498D02*
X714753Y483498D01*
X702628Y495622D01*
X728110Y452925D02*
X719253Y444067D01*
X728110Y452925D02*
X728110Y454506D01*
X726130Y456487D01*
X713196Y477981D02*
X713172Y478005D01*
X709889Y481289D02*
X699091Y492086D01*
X717036Y478005D02*
X726154Y468888D01*
X726154Y466994D01*
X713172Y478005D02*
X709889Y481289D01*
X726130Y466970D02*
X726154Y466994D01*
X717036Y478005D02*
X713172Y478005D01*
X726130Y466970D02*
X726130Y456487D01*
X664464Y583692D02*
X662940Y585216D01*
X662940Y614172D01*
X720852Y672084D01*
X723900Y672084D01*
X664464Y583692D02*
X665157Y582603D01*
X723900Y672084D02*
X723900Y673100D01*
X659892Y580644D02*
X661416Y579120D01*
X659892Y580644D02*
X659892Y617474D01*
X697992Y655574D01*
X661621Y579066D02*
X661416Y579120D01*
X697992Y655574D02*
X698500Y656590D01*
X698500Y673100D01*
X646176Y646176D02*
X646176Y596900D01*
X646176Y590550D01*
X646176Y646176D02*
X673100Y673100D01*
X656844Y576072D02*
X658085Y575530D01*
X646176Y587438D02*
X646176Y590550D01*
X646176Y587438D02*
X658085Y575530D01*
X643128Y667512D02*
X647700Y672084D01*
X653796Y573024D02*
X654548Y571993D01*
X647700Y672084D02*
X647700Y673100D01*
X643128Y583414D02*
X654548Y571993D01*
X643128Y583414D02*
X643128Y667512D01*
X640080Y655320D02*
X622300Y673100D01*
X650090Y569379D02*
X651012Y568457D01*
X650090Y569379D02*
X649986Y569976D01*
X646176Y575549D02*
X640080Y581645D01*
X646176Y575549D02*
X646176Y573293D01*
X651012Y568457D01*
X640080Y581645D02*
X640080Y655320D01*
X606552Y673100D02*
X596900Y673100D01*
X606552Y673100D02*
X636524Y643128D01*
X636524Y580891D02*
X643128Y574287D01*
X643128Y569268D02*
X647475Y564921D01*
X643128Y569268D02*
X643128Y574287D01*
X636524Y580891D02*
X636524Y643128D01*
X640080Y565404D02*
X643128Y562356D01*
X640080Y565404D02*
X640080Y573024D01*
X620268Y592836D01*
X620268Y607060D01*
X571500Y655828D01*
X643128Y562356D02*
X643939Y561384D01*
X571500Y655828D02*
X571500Y673100D01*
X637032Y562356D02*
X640080Y559308D01*
X637032Y562356D02*
X637032Y571500D01*
X617220Y591312D01*
X617220Y604266D01*
X547624Y673862D01*
X640080Y559308D02*
X640402Y557848D01*
X547624Y673862D02*
X546100Y673100D01*
X646176Y504444D02*
X646118Y504386D01*
X645405Y504161D01*
X643939Y502695D02*
X643635Y502695D01*
X617244Y476304D01*
X662178Y404622D02*
X673100Y393700D01*
X617244Y431268D02*
X617244Y476304D01*
X617244Y431268D02*
X643890Y404622D01*
X662178Y404622D01*
X621054Y473226D02*
X646176Y498348D01*
X647475Y499159D01*
X621054Y432642D02*
X645518Y408178D01*
X621054Y432642D02*
X621054Y473226D01*
X645518Y408178D02*
X684022Y408178D01*
X698500Y393700D01*
X651010Y495624D02*
X650310Y495624D01*
X624864Y470178D01*
X647543Y412750D02*
X702818Y412750D01*
X721868Y393700D02*
X723900Y393700D01*
X721868Y393700D02*
X702818Y412750D01*
X624864Y435429D02*
X624864Y470178D01*
X624864Y435429D02*
X647543Y412750D01*
X653632Y492088D02*
X654546Y492088D01*
X653632Y492088D02*
X627912Y466368D01*
X704342Y416560D02*
X715518Y405384D01*
X737616Y405384D01*
X749300Y393700D01*
X648806Y416560D02*
X627912Y437454D01*
X627912Y466368D01*
X648806Y416560D02*
X704342Y416560D01*
X706374Y419862D02*
X717804Y408432D01*
X760476Y408432D01*
X774192Y394716D01*
X658081Y488553D02*
X651674Y484034D01*
X774192Y394716D02*
X774700Y393700D01*
X651674Y484034D02*
X631722Y464082D01*
X631722Y439478D01*
X651338Y419862D02*
X706374Y419862D01*
X651338Y419862D02*
X631722Y439478D01*
X783336Y411480D02*
X800100Y394716D01*
X661416Y484632D02*
X661617Y485017D01*
X800100Y394716D02*
X800100Y393700D01*
X661617Y485017D02*
X654374Y477774D01*
X652272Y477774D01*
X635508Y461010D01*
X635508Y441198D01*
X653034Y423672D01*
X720852Y411480D02*
X783336Y411480D01*
X708660Y423672D02*
X653034Y423672D01*
X708660Y423672D02*
X720852Y411480D01*
X665988Y481584D02*
X665152Y481482D01*
X651539Y467868D01*
X651510Y467868D01*
X651539Y467868D02*
X651539Y461743D01*
X661416Y451866D02*
X684777Y451866D01*
X722115Y414528D01*
X822268Y393700D02*
X825500Y393700D01*
X822268Y393700D02*
X801440Y414528D01*
X661416Y451866D02*
X651539Y461743D01*
X722115Y414528D02*
X801440Y414528D01*
X621792Y521208D02*
X621792Y522732D01*
X621792Y521208D02*
X620268Y519684D01*
X620268Y518160D01*
X595122Y493014D01*
X595122Y431292D01*
X574294Y410464D01*
X537464Y410464D01*
X520700Y393700D01*
X621792Y522732D02*
X622726Y523908D01*
X624840Y519684D02*
X624840Y518160D01*
X598170Y491490D01*
X598170Y427482D01*
X577342Y406654D01*
X559054Y406654D02*
X546100Y393700D01*
X559054Y406654D02*
X577342Y406654D01*
X624840Y519684D02*
X626262Y520372D01*
X629797Y516837D02*
X601980Y489020D01*
X601980Y424180D01*
X571500Y393700D01*
X597408Y394716D02*
X605790Y403098D01*
X632460Y512064D02*
X633333Y513301D01*
X597408Y394716D02*
X596900Y393700D01*
X605790Y485759D02*
X633333Y513301D01*
X605790Y485759D02*
X605790Y403098D01*
X609600Y406908D02*
X621792Y394716D01*
X636868Y509766D02*
X637032Y510540D01*
X621792Y394716D02*
X622300Y393700D01*
X609600Y482498D02*
X636868Y509766D01*
X609600Y482498D02*
X609600Y406908D01*
X728726Y646176D02*
X850392Y646176D01*
X876300Y672084D01*
X691951Y578990D02*
X691896Y578358D01*
X691951Y578990D02*
X692023Y579062D01*
X876300Y672084D02*
X876300Y673100D01*
X694944Y581839D02*
X692167Y579062D01*
X692023Y579062D01*
X694944Y581839D02*
X694944Y612394D01*
X728726Y646176D01*
X691896Y586740D02*
X688848Y583692D01*
X691896Y586740D02*
X691896Y615696D01*
X725424Y649224D01*
X783336Y649224D01*
X792480Y658368D01*
X836676Y658368D01*
X850392Y672084D01*
X688848Y583692D02*
X688487Y582598D01*
X850392Y672084D02*
X850900Y673100D01*
X687324Y589026D02*
X684951Y586653D01*
X684951Y586133D01*
X687324Y589026D02*
X687324Y617982D01*
X721614Y652272D01*
X781812Y652272D01*
X790956Y661416D01*
X813816Y661416D01*
X825500Y673100D01*
X682752Y618744D02*
X682752Y590550D01*
X682752Y618744D02*
X719328Y655320D01*
X780288Y655320D01*
X797052Y672084D01*
X800100Y672084D01*
X682752Y590550D02*
X682253Y590505D01*
X681416Y589669D01*
X800100Y672084D02*
X800100Y673100D01*
X734568Y537972D02*
X734449Y536636D01*
X1078992Y672084D02*
X1079500Y673100D01*
X765611Y537972D02*
X734568Y537972D01*
X827333Y599694D02*
X858468Y599694D01*
X1045718Y639318D02*
X1079500Y673100D01*
X827333Y599694D02*
X765611Y537972D01*
X858468Y599694D02*
X898092Y639318D01*
X1045718Y639318D01*
X732536Y542036D02*
X731520Y541020D01*
X1053084Y671322D02*
X1053084Y672084D01*
X731520Y541020D02*
X730913Y540171D01*
X1053084Y672084D02*
X1054100Y673100D01*
X763517Y542036D02*
X732536Y542036D01*
X824985Y603504D02*
X857967Y603504D01*
X896829Y642366D01*
X1023366Y642366D02*
X1054100Y673100D01*
X824985Y603504D02*
X763517Y542036D01*
X896829Y642366D02*
X1023366Y642366D01*
X729996Y545592D02*
X728472Y544068D01*
X729996Y545592D02*
X762000Y545592D01*
X823722Y607314D01*
X728472Y544068D02*
X727378Y543707D01*
X1028700Y672084D02*
X1028700Y673100D01*
X857467Y607314D02*
X823722Y607314D01*
X857467Y607314D02*
X895567Y645414D01*
X1001014Y645414D02*
X1028700Y673100D01*
X1001014Y645414D02*
X895567Y645414D01*
X724662Y547116D02*
X723969Y547116D01*
X724662Y547116D02*
X726948Y549402D01*
X759714Y549402D01*
X821436Y611124D01*
X723969Y547116D02*
X723842Y547243D01*
X1002792Y672084D02*
X1003300Y673100D01*
X856966Y611124D02*
X821436Y611124D01*
X856966Y611124D02*
X894304Y648462D01*
X978662Y648462D02*
X1003300Y673100D01*
X978662Y648462D02*
X894304Y648462D01*
X722376Y553212D02*
X720852Y551688D01*
X722376Y553212D02*
X757428Y553212D01*
X819150Y614934D01*
X720852Y551688D02*
X720307Y550778D01*
X819150Y614934D02*
X856466Y614934D01*
X893804Y652272D01*
X957072Y652272D02*
X977900Y673100D01*
X957072Y652272D02*
X893804Y652272D01*
X716771Y554314D02*
X716280Y553212D01*
X952500Y672084D02*
X952500Y673100D01*
X718718Y556260D02*
X716771Y554314D01*
X756165Y556260D02*
X818649Y618744D01*
X756165Y556260D02*
X718718Y556260D01*
X818649Y618744D02*
X855965Y618744D01*
X893303Y656082D01*
X935482Y656082D02*
X952500Y673100D01*
X935482Y656082D02*
X893303Y656082D01*
X714756Y559308D02*
X713236Y557849D01*
X926592Y672084D02*
X927100Y673100D01*
X719252Y559308D02*
X718991Y559569D01*
X714956Y559569D02*
X713236Y557849D01*
X714956Y559569D02*
X718991Y559569D01*
X754903Y559308D02*
X818149Y622554D01*
X754903Y559308D02*
X719252Y559308D01*
X818149Y622554D02*
X855465Y622554D01*
X892803Y659892D01*
X913892Y659892D02*
X927100Y673100D01*
X913892Y659892D02*
X892803Y659892D01*
X710184Y562356D02*
X709700Y561385D01*
X709700Y561529D02*
X711276Y563105D01*
X709700Y561529D02*
X709700Y561385D01*
X711276Y563105D02*
X719766Y563105D01*
X720515Y562356D01*
X753640Y562356D02*
X817648Y626364D01*
X854964Y626364D01*
X753640Y562356D02*
X720515Y562356D01*
X854964Y626364D02*
X901700Y673100D01*
X811530Y418338D02*
X723900Y418338D01*
X837946Y406654D02*
X850900Y393700D01*
X837946Y406654D02*
X823214Y406654D01*
X811530Y418338D01*
X682752Y473964D02*
X681409Y474404D01*
X681228Y461010D02*
X723900Y418338D01*
X681228Y474223D02*
X681409Y474404D01*
X681228Y474223D02*
X681228Y461010D01*
X859536Y410464D02*
X876300Y393700D01*
X859536Y410464D02*
X826008Y410464D01*
X814324Y422148D01*
X726701Y422148D01*
X689102Y473784D02*
X684946Y477940D01*
X689102Y473784D02*
X689102Y459747D01*
X726701Y422148D01*
X672230Y589676D02*
X678942Y596387D01*
X678942Y620014D01*
X717296Y658368D01*
X760476Y658368D01*
X774192Y672084D01*
X774700Y673100D01*
X667512Y587502D02*
X667512Y586740D01*
X667512Y587502D02*
X665988Y589026D01*
X665988Y612648D01*
X714756Y661416D01*
X737616Y661416D01*
X749300Y673100D01*
X668694Y586139D02*
X667512Y586740D01*
D33*
X595630Y584200D03*
X589280Y590550D03*
D30*
X595630Y584200D01*
D33*
X676910Y554990D03*
X676910Y509270D03*
X699770Y532130D03*
X654050Y532130D03*
X676910Y532130D03*
X676910Y543560D03*
X688340Y532130D03*
X676910Y520700D03*
X665480Y532130D03*
X665480Y520700D03*
X688340Y520700D03*
X688340Y543560D03*
X665480Y543560D03*
X703580Y459740D03*
X702310Y478790D03*
X726440Y621538D03*
X765810Y586740D03*
X760984Y473456D03*
X659638Y442214D03*
X643636Y459232D03*
X585724Y486664D03*
X562610Y511556D03*
X476250Y567690D03*
X476250Y580390D03*
X539750Y567690D03*
X539750Y554990D03*
X539750Y580390D03*
X527050Y554990D03*
X514350Y554990D03*
X501650Y554990D03*
X488950Y554990D03*
X476250Y554990D03*
X501650Y593090D03*
X501650Y605790D03*
X514350Y593090D03*
X514350Y605790D03*
X527050Y593090D03*
X527050Y605790D03*
X539750Y605790D03*
X539750Y593090D03*
X1109980Y502920D03*
X1097280Y502920D03*
X1096010Y565150D03*
X1109980Y565150D03*
X567436Y546608D03*
X689610Y495300D03*
X643890Y547370D03*
X688340Y568960D03*
X701802Y584962D03*
X627634Y569468D03*
X508000Y469392D03*
X776986Y473964D03*
X754888Y434340D03*
D29*
X760984Y473456D02*
X759714Y474726D01*
D33*
X665988Y494538D03*
X636270Y523494D03*
X650748Y509778D03*
X662940Y567436D03*
X831342Y584200D03*
X850392Y474472D03*
X905256Y627634D03*
X942594Y437134D03*
X1040892Y627634D03*
X1064514Y437134D03*
X780288Y611124D03*
X753618Y633222D03*
X679450Y437896D03*
X733552Y429514D03*
X459232Y621030D03*
X559816Y647446D03*
X576580Y602488D03*
X662940Y634238D03*
X612140Y634238D03*
X628142Y605028D03*
X652780Y603504D03*
X803910Y441452D03*
X866394Y422148D03*
X567436Y563372D03*
X494538Y533654D03*
X508254Y533654D03*
X522732Y533654D03*
X496316Y469646D03*
X519938Y469646D03*
X569214Y517906D03*
X585724Y473964D03*
X460756Y432308D03*
D29*
X710184Y501396D02*
X710946Y500634D01*
X710184Y501396D02*
X709701Y502695D01*
X710946Y500634D02*
X744033Y500634D01*
X750891Y507492D01*
X841502Y431038D02*
X882911Y431038D01*
X902208Y411741D02*
X902208Y393700D01*
X901700Y393700D01*
X765048Y507492D02*
X750891Y507492D01*
X765048Y507492D02*
X841502Y431038D01*
X882911Y431038D02*
X902208Y411741D01*
X885698Y434848D02*
X843280Y434848D01*
X926846Y393700D02*
X927100Y393700D01*
X926846Y393700D02*
X885698Y434848D01*
X743601Y504512D02*
X714956Y504512D01*
X713237Y506232D01*
X767332Y510796D02*
X843280Y434848D01*
X767332Y510796D02*
X749885Y510796D01*
X743601Y504512D01*
X716774Y509768D02*
X716280Y510540D01*
X768911Y513844D02*
X843081Y439674D01*
X888238Y439674D01*
X940308Y405892D02*
X952500Y393700D01*
X940308Y405892D02*
X922020Y405892D01*
X888238Y439674D01*
X716959Y509768D02*
X716774Y509768D01*
X716959Y509768D02*
X718678Y508049D01*
X742827Y508049D01*
X748622Y513844D01*
X768911Y513844D01*
X720852Y512064D02*
X720310Y513305D01*
X961898Y409702D02*
X977900Y393700D01*
X961898Y409702D02*
X923798Y409702D01*
X889762Y443738D01*
X843327Y443738D01*
X720929Y513305D02*
X720310Y513305D01*
X720929Y513305D02*
X722648Y511585D01*
X746597Y516892D02*
X770173Y516892D01*
X741291Y511585D02*
X722648Y511585D01*
X741291Y511585D02*
X746597Y516892D01*
X770173Y516892D02*
X843327Y443738D01*
X622720Y540166D02*
X621884Y540166D01*
X618490Y543560D01*
X588311Y543560D01*
X588024Y543274D01*
X699094Y571991D02*
X699094Y572094D01*
X712275Y585275D02*
X712275Y591271D01*
X712275Y585275D02*
X699094Y572094D01*
D30*
X548400Y497826D02*
X531114Y515112D01*
X548400Y497826D02*
X548400Y486410D01*
X548400Y448804D01*
X548640Y448564D01*
M02*
